<?xml version="1.0" encoding="UTF-8"?><svg xmlns="http://www.w3.org/2000/svg" xmlns:xlink="http://www.w3.org/1999/xlink" contentScriptType="text/ecmascript" width="30" zoomAndPan="magnify" contentStyleType="text/css" viewBox="0 0 30 30.000001" height="30.000001" preserveAspectRatio="xMidYMid meet" version="1.0"><defs><clipPath id="clip-0"><path d="M 5 9 L 22 9 L 22 24.101562 L 5 24.101562 Z M 5 9 " clip-rule="nonzero"/></clipPath><clipPath id="clip-1"><path d="M 11 5.230469 L 25 5.230469 L 25 15 L 11 15 Z M 11 5.230469 " clip-rule="nonzero"/></clipPath><clipPath id="clip-2"><path d="M 20 10 L 25.160156 10 L 25.160156 15 L 20 15 Z M 20 10 " clip-rule="nonzero"/></clipPath><clipPath id="clip-3"><path d="M 11 5.230469 L 19 5.230469 L 19 11 L 11 11 Z M 11 5.230469 " clip-rule="nonzero"/></clipPath><clipPath id="clip-4"><path d="M 12 5.230469 L 15 5.230469 L 15 8 L 12 8 Z M 12 5.230469 " clip-rule="nonzero"/></clipPath><clipPath id="clip-5"><path d="M 20 10 L 25.160156 10 L 25.160156 15 L 20 15 Z M 20 10 " clip-rule="nonzero"/></clipPath></defs><path fill="rgb(96.469116%, 51.759338%, 7.058716%)" d="M 23.539062 14.847656 L 15.648438 17.386719 C 15.71875 16.949219 15.925781 16.273438 16.53125 16.035156 L 16.671875 15.988281 L 19.46875 15.0625 L 21.53125 14.375 C 21.535156 14.378906 21.539062 14.378906 21.539062 14.382812 C 21.921875 14.71875 22.421875 14.925781 22.972656 14.925781 C 23.167969 14.925781 23.359375 14.898438 23.539062 14.847656 " fill-opacity="1" fill-rule="nonzero"/><path fill="rgb(96.469116%, 51.759338%, 7.058716%)" d="M 13.453125 18.089844 L 10.453125 19.054688 C 9.539062 19.351562 8.820312 20.070312 8.515625 20.992188 L 7.902344 22.847656 C 7.828125 23.074219 7.625 23.1875 7.425781 23.175781 L 7.425781 22.222656 C 7.425781 21.476562 7.625 20.871094 7.648438 20.800781 L 7.832031 20.273438 C 8.164062 19.308594 8.917969 18.558594 9.871094 18.242188 L 11.777344 17.609375 C 12.636719 17.410156 13.148438 17.679688 13.453125 18.089844 " fill-opacity="1" fill-rule="nonzero"/><g clip-path="url(#clip-0)"><path fill="rgb(96.078491%, 81.568909%, 9.799194%)" d="M 21.054688 14.535156 L 19.46875 15.0625 L 16.671875 15.988281 L 16.53125 16.035156 C 15.609375 16.402344 15.609375 17.777344 15.609375 17.777344 L 15.609375 19.492188 C 15.609375 19.640625 15.492188 19.765625 15.34375 19.765625 C 15.195312 19.765625 15.074219 19.640625 15.074219 19.492188 L 15.074219 17.570312 C 15.074219 17.570312 15.019531 17.136719 14.757812 17.136719 C 14.5 17.136719 14.433594 17.777344 14.433594 17.777344 L 14.433594 22.25 C 14.433594 22.398438 14.316406 22.519531 14.167969 22.519531 C 14.019531 22.519531 13.898438 22.398438 13.898438 22.25 L 13.898438 19.632812 C 13.886719 19.070312 13.695312 17.164062 11.777344 17.609375 L 9.871094 18.242188 C 8.917969 18.558594 8.164062 19.308594 7.832031 20.273438 L 7.648438 20.800781 C 7.625 20.871094 7.425781 21.476562 7.425781 22.222656 L 7.425781 23.835938 C 7.425781 23.984375 7.308594 24.105469 7.160156 24.105469 C 7.011719 24.105469 6.890625 23.984375 6.890625 23.835938 L 6.890625 23.46875 C 6.894531 22.824219 6.546875 21.976562 6.546875 21.976562 L 5.511719 19.171875 C 4.84375 17.363281 5.300781 15.320312 6.679688 13.988281 L 11.957031 9.472656 C 11.957031 9.472656 11.984375 9.453125 12.03125 9.414062 C 12.074219 9.375 12.136719 9.316406 12.203125 9.238281 C 12.429688 9.496094 12.707031 9.707031 13.015625 9.863281 C 13.039062 9.875 13.0625 9.882812 13.089844 9.890625 C 13.277344 9.945312 13.46875 10.007812 13.660156 10.074219 C 16.980469 11.242188 20.464844 13.996094 20.886719 14.335938 C 20.9375 14.40625 20.996094 14.472656 21.054688 14.535156 " fill-opacity="1" fill-rule="nonzero"/></g><path fill="rgb(96.078491%, 86.268616%, 21.569824%)" d="M 9.054688 15.390625 C 11.746094 15.511719 17.351562 14.324219 16.355469 11.304688 C 15.488281 10.832031 14.566406 10.394531 13.660156 10.074219 C 13.46875 10.007812 13.277344 9.945312 13.089844 9.890625 C 13.0625 9.882812 13.039062 9.875 13.015625 9.863281 C 12.707031 9.707031 12.429688 9.496094 12.203125 9.238281 C 12.070312 9.394531 11.957031 9.472656 11.957031 9.472656 L 6.679688 13.988281 C 5.300781 15.320312 4.84375 17.363281 5.511719 19.171875 C 5.511719 19.171875 6.363281 15.265625 9.054688 15.390625 " fill-opacity="1" fill-rule="nonzero"/><path fill="rgb(94.119263%, 29.798889%, 10.978699%)" d="M 12.320312 17.542969 C 12.15625 17.542969 11.976562 17.566406 11.78125 17.609375 L 9.871094 18.242188 C 8.917969 18.558594 8.164062 19.308594 7.832031 20.273438 L 7.648438 20.800781 C 7.625 20.871094 7.425781 21.476562 7.425781 22.222656 L 7.425781 23.175781 C 7.601562 23.183594 7.78125 23.097656 7.875 22.917969 L 7.875 22.222656 C 7.875 21.539062 8.0625 20.972656 8.070312 20.949219 L 8.253906 20.421875 C 8.539062 19.597656 9.195312 18.945312 10.011719 18.675781 L 11.898438 18.046875 C 12.050781 18.015625 12.191406 17.996094 12.320312 17.996094 C 12.597656 17.996094 12.816406 18.078125 12.988281 18.242188 L 13.453125 18.09375 C 13.21875 17.777344 12.863281 17.542969 12.320312 17.542969 " fill-opacity="1" fill-rule="nonzero"/><path fill="rgb(95.689392%, 92.939758%, 34.118652%)" d="M 13.660156 10.074219 C 13.46875 10.007812 13.277344 9.945312 13.089844 9.890625 C 13.0625 9.882812 13.039062 9.875 13.015625 9.863281 C 12.707031 9.707031 12.429688 9.496094 12.203125 9.238281 C 12.070312 9.394531 11.957031 9.472656 11.957031 9.472656 L 8.902344 12.085938 C 9.542969 12.660156 10.546875 13.03125 11.675781 13.03125 C 13.5625 13.03125 15.101562 12 15.175781 10.703125 C 14.675781 10.46875 14.164062 10.253906 13.660156 10.074219 " fill-opacity="1" fill-rule="nonzero"/><path fill="rgb(95.289612%, 36.859131%, 9.799194%)" d="M 22.972656 14.925781 C 22.246094 14.925781 21.605469 14.566406 21.207031 14.015625 C 21.207031 14.015625 21.125 13.949219 20.976562 13.828125 C 20.808594 13.875 20.625 13.925781 20.429688 13.980469 C 20.65625 14.152344 20.816406 14.277344 20.886719 14.335938 C 21.226562 14.785156 21.703125 15.109375 22.230469 15.269531 L 23.554688 14.84375 C 23.367188 14.894531 23.171875 14.925781 22.972656 14.925781 " fill-opacity="1" fill-rule="nonzero"/><g clip-path="url(#clip-1)"><path fill="rgb(96.859741%, 59.999084%, 5.879211%)" d="M 24.515625 11.128906 C 24.417969 11.03125 24.316406 10.945312 24.203125 10.867188 C 23.851562 10.621094 23.425781 10.480469 22.972656 10.480469 C 21.765625 10.480469 20.785156 11.476562 20.785156 12.703125 C 20.785156 13.011719 20.847656 13.300781 20.957031 13.570312 C 21.023438 13.726562 21.105469 13.878906 21.207031 14.015625 C 21.148438 13.964844 17.414062 10.914062 13.808594 9.648438 C 13.609375 9.578125 13.410156 9.511719 13.210938 9.453125 C 12.484375 9.09375 11.980469 8.335938 11.980469 7.453125 C 11.980469 6.226562 12.960938 5.234375 14.167969 5.234375 C 14.367188 5.234375 14.558594 5.257812 14.742188 5.308594 C 14.832031 5.324219 20.433594 6.285156 24.515625 11.128906 " fill-opacity="1" fill-rule="nonzero"/></g><g clip-path="url(#clip-2)"><path fill="rgb(98.429871%, 83.918762%, 43.528748%)" d="M 25.15625 12.703125 C 25.15625 13.929688 24.179688 14.925781 22.972656 14.925781 C 22.066406 14.925781 21.289062 14.367188 20.957031 13.570312 C 21.308594 13.8125 21.730469 13.953125 22.1875 13.953125 C 23.394531 13.953125 24.375 12.960938 24.375 11.730469 C 24.375 11.425781 24.3125 11.132812 24.203125 10.867188 C 24.777344 11.265625 25.15625 11.941406 25.15625 12.703125 " fill-opacity="1" fill-rule="nonzero"/></g><path fill="rgb(98.81897%, 89.408875%, 61.569214%)" d="M 24.375 11.730469 C 24.375 12.960938 23.394531 13.953125 22.1875 13.953125 C 21.730469 13.953125 21.308594 13.8125 20.957031 13.570312 C 20.847656 13.300781 20.785156 13.011719 20.785156 12.703125 C 20.785156 11.476562 21.765625 10.480469 22.972656 10.480469 C 23.425781 10.480469 23.851562 10.621094 24.203125 10.867188 C 24.3125 11.132812 24.375 11.425781 24.375 11.730469 " fill-opacity="1" fill-rule="nonzero"/><path fill="rgb(94.509888%, 29.798889%, 36.468506%)" d="M 16.808594 13.542969 C 16.808594 14.003906 16.179688 14.378906 15.40625 14.378906 C 14.628906 14.378906 14 14.003906 14 13.542969 C 14 13.078125 14.628906 12.703125 15.40625 12.703125 C 16.179688 12.703125 16.808594 13.078125 16.808594 13.542969 " fill-opacity="1" fill-rule="nonzero"/><path fill="rgb(93.728638%, 20.779419%, 25.878906%)" d="M 15.40625 14.378906 C 14.628906 14.378906 14 14.003906 14 13.542969 L 14 13.890625 C 14 14.351562 14.628906 14.726562 15.40625 14.726562 C 16.179688 14.726562 16.808594 14.351562 16.808594 13.890625 L 16.808594 13.542969 C 16.808594 14.003906 16.179688 14.378906 15.40625 14.378906 " fill-opacity="1" fill-rule="nonzero"/><path fill="rgb(94.509888%, 29.798889%, 36.468506%)" d="M 10.382812 12.265625 C 10.382812 12.730469 9.753906 13.105469 8.976562 13.105469 C 8.203125 13.105469 7.574219 12.730469 7.574219 12.265625 C 7.574219 11.804688 8.203125 11.429688 8.976562 11.429688 C 9.753906 11.429688 10.382812 11.804688 10.382812 12.265625 " fill-opacity="1" fill-rule="nonzero"/><path fill="rgb(93.728638%, 20.779419%, 25.878906%)" d="M 8.976562 13.105469 C 8.203125 13.105469 7.574219 12.730469 7.574219 12.265625 L 7.574219 12.617188 C 7.574219 13.078125 8.203125 13.453125 8.976562 13.453125 C 9.753906 13.453125 10.382812 13.078125 10.382812 12.617188 L 10.382812 12.265625 C 10.382812 12.730469 9.753906 13.105469 8.976562 13.105469 " fill-opacity="1" fill-rule="nonzero"/><path fill="rgb(94.509888%, 29.798889%, 36.468506%)" d="M 10.804688 15.617188 C 10.804688 16.078125 10.175781 16.453125 9.398438 16.453125 C 8.625 16.453125 7.996094 16.078125 7.996094 15.617188 C 7.996094 15.152344 8.625 14.777344 9.398438 14.777344 C 10.175781 14.777344 10.804688 15.152344 10.804688 15.617188 " fill-opacity="1" fill-rule="nonzero"/><path fill="rgb(93.728638%, 20.779419%, 25.878906%)" d="M 9.398438 16.453125 C 8.625 16.453125 7.996094 16.078125 7.996094 15.617188 L 7.996094 15.964844 C 7.996094 16.425781 8.625 16.800781 9.398438 16.800781 C 10.175781 16.800781 10.804688 16.425781 10.804688 15.964844 L 10.804688 15.617188 C 10.804688 16.078125 10.175781 16.453125 9.398438 16.453125 " fill-opacity="1" fill-rule="nonzero"/><path fill="rgb(28.62854%, 69.018555%, 37.649536%)" d="M 14.226562 16.117188 L 13.179688 16.117188 C 13.066406 16.117188 12.976562 16.023438 12.976562 15.910156 C 12.976562 15.796875 13.066406 15.703125 13.179688 15.703125 L 14.226562 15.703125 C 14.335938 15.703125 14.429688 15.796875 14.429688 15.910156 C 14.429688 16.023438 14.335938 16.117188 14.226562 16.117188 " fill-opacity="1" fill-rule="nonzero"/><path fill="rgb(28.62854%, 69.018555%, 37.649536%)" d="M 7.125 14.535156 C 7.035156 14.535156 6.957031 14.476562 6.929688 14.386719 L 6.660156 13.453125 C 6.628906 13.34375 6.691406 13.230469 6.796875 13.199219 C 6.90625 13.164062 7.015625 13.226562 7.050781 13.335938 L 7.320312 14.269531 C 7.351562 14.378906 7.289062 14.492188 7.183594 14.527344 C 7.164062 14.53125 7.144531 14.535156 7.125 14.535156 " fill-opacity="1" fill-rule="nonzero"/><path fill="rgb(28.62854%, 69.018555%, 37.649536%)" d="M 12.601562 11.085938 C 12.148438 11.085938 11.917969 11.257812 11.90625 11.308594 C 11.917969 11.355469 12.148438 11.527344 12.601562 11.527344 C 13.054688 11.527344 13.285156 11.359375 13.292969 11.304688 C 13.285156 11.253906 13.054688 11.085938 12.601562 11.085938 Z M 12.601562 11.9375 C 11.964844 11.9375 11.503906 11.671875 11.503906 11.304688 C 11.503906 10.941406 11.964844 10.675781 12.601562 10.675781 C 13.238281 10.675781 13.699219 10.941406 13.699219 11.304688 C 13.699219 11.671875 13.238281 11.9375 12.601562 11.9375 " fill-opacity="1" fill-rule="nonzero"/><path fill="rgb(28.62854%, 69.018555%, 37.649536%)" d="M 7.980469 17.984375 C 7.863281 17.984375 7.644531 18.035156 7.375 18.222656 C 7.003906 18.484375 6.90625 18.753906 6.929688 18.800781 C 6.960938 18.839844 7.246094 18.84375 7.621094 18.585938 C 7.992188 18.324219 8.089844 18.050781 8.070312 18.003906 C 8.058594 17.992188 8.027344 17.984375 7.980469 17.984375 Z M 7.023438 19.234375 C 6.835938 19.234375 6.683594 19.167969 6.59375 19.035156 C 6.53125 18.941406 6.449219 18.734375 6.632812 18.414062 C 6.742188 18.226562 6.925781 18.039062 7.148438 17.882812 C 7.367188 17.726562 7.605469 17.625 7.820312 17.585938 C 8.179688 17.527344 8.339844 17.675781 8.402344 17.769531 C 8.46875 17.867188 8.546875 18.070312 8.363281 18.390625 C 8.253906 18.582031 8.070312 18.769531 7.851562 18.925781 C 7.558594 19.128906 7.261719 19.234375 7.023438 19.234375 " fill-opacity="1" fill-rule="nonzero"/><path fill="rgb(70.199585%, 19.60907%, 17.649841%)" d="M 6.972656 16.703125 C 6.972656 16.816406 6.78125 16.90625 6.546875 16.90625 C 6.3125 16.90625 6.125 16.816406 6.125 16.703125 C 6.125 16.589844 6.3125 16.347656 6.546875 16.347656 C 6.78125 16.347656 6.972656 16.589844 6.972656 16.703125 " fill-opacity="1" fill-rule="nonzero"/><path fill="rgb(70.199585%, 19.60907%, 17.649841%)" d="M 18.726562 14.371094 C 18.726562 14.480469 18.539062 14.570312 18.304688 14.570312 C 18.070312 14.570312 17.878906 14.480469 17.878906 14.371094 C 17.878906 14.257812 18.070312 14.015625 18.304688 14.015625 C 18.539062 14.015625 18.726562 14.257812 18.726562 14.371094 " fill-opacity="1" fill-rule="nonzero"/><path fill="rgb(74.119568%, 29.798889%, 15.689087%)" d="M 12.128906 14.089844 C 12.128906 14.203125 11.941406 14.292969 11.707031 14.292969 C 11.472656 14.292969 11.28125 14.203125 11.28125 14.089844 C 11.28125 13.980469 11.472656 13.734375 11.707031 13.734375 C 11.941406 13.734375 12.128906 13.980469 12.128906 14.089844 " fill-opacity="1" fill-rule="nonzero"/><path fill="rgb(96.859741%, 59.609985%, 5.879211%)" d="M 15.199219 10.214844 C 15.199219 10.417969 15.1875 10.601562 15.183594 10.707031 C 14.679688 10.46875 14.167969 10.253906 13.660156 10.074219 C 13.46875 10.007812 13.277344 9.945312 13.089844 9.890625 C 13.0625 9.882812 13.039062 9.875 13.015625 9.863281 C 12.707031 9.707031 12.429688 9.496094 12.203125 9.238281 C 12.289062 9.136719 12.378906 9.003906 12.457031 8.839844 C 12.660156 9.097656 12.917969 9.308594 13.210938 9.453125 C 13.410156 9.511719 13.609375 9.578125 13.808594 9.648438 C 14.273438 9.808594 14.738281 10.003906 15.199219 10.214844 " fill-opacity="1" fill-rule="nonzero"/><path fill="rgb(96.469116%, 53.329468%, 7.058716%)" d="M 16.355469 11.304688 C 15.972656 11.097656 15.582031 10.894531 15.183594 10.707031 C 15.1875 10.601562 15.199219 10.417969 15.199219 10.214844 C 15.535156 10.371094 15.863281 10.535156 16.1875 10.703125 L 16.355469 11.304688 " fill-opacity="1" fill-rule="nonzero"/><path fill="rgb(95.689392%, 43.919373%, 8.628845%)" d="M 21.535156 14.375 L 21.054688 14.535156 C 20.996094 14.472656 20.9375 14.40625 20.882812 14.335938 C 20.578125 14.089844 18.65625 12.566406 16.355469 11.308594 L 16.1875 10.703125 C 18.917969 12.136719 21.207031 14.015625 21.207031 14.015625 C 21.300781 14.148438 21.410156 14.269531 21.535156 14.375 " fill-opacity="1" fill-rule="nonzero"/><path fill="rgb(94.119263%, 29.798889%, 10.978699%)" d="M 14.757812 17.136719 C 14.5 17.136719 14.433594 17.777344 14.433594 17.777344 L 15.074219 17.570312 C 15.074219 17.570312 15.019531 17.136719 14.757812 17.136719 " fill-opacity="1" fill-rule="nonzero"/><g clip-path="url(#clip-3)"><path fill="rgb(97.648621%, 70.588684%, 9.01947%)" d="M 18.390625 6.527344 C 16.339844 5.582031 14.789062 5.316406 14.742188 5.308594 C 14.558594 5.257812 14.367188 5.234375 14.167969 5.234375 C 12.960938 5.234375 11.980469 6.226562 11.980469 7.453125 C 11.980469 8.335938 12.484375 9.09375 13.210938 9.453125 C 13.410156 9.511719 13.609375 9.578125 13.808594 9.648438 C 14.265625 9.808594 14.726562 10 15.183594 10.207031 C 15.144531 10.019531 15.121094 9.824219 15.121094 9.625 C 15.121094 7.960938 16.570312 6.605469 18.390625 6.527344 " fill-opacity="1" fill-rule="nonzero"/></g><path fill="rgb(94.119263%, 29.798889%, 10.978699%)" d="M 21.054688 14.535156 L 19.46875 15.0625 L 16.675781 15.988281 L 16.671875 15.988281 L 16.53125 16.035156 C 15.925781 16.273438 15.71875 16.949219 15.648438 17.386719 L 16.140625 17.226562 C 16.21875 16.925781 16.375 16.589844 16.683594 16.460938 L 16.78125 16.429688 L 17.5625 16.171875 L 18.757812 15.773438 L 19.609375 15.492188 L 21.195312 14.964844 L 21.449219 14.882812 C 21.304688 14.78125 21.175781 14.664062 21.054688 14.535156 " fill-opacity="1" fill-rule="nonzero"/><g clip-path="url(#clip-4)"><path fill="rgb(100%, 100%, 100%)" d="M 14.109375 6.273438 C 14.113281 6.273438 13.988281 6.308594 13.960938 6.320312 C 13.910156 6.339844 13.859375 6.363281 13.808594 6.390625 C 13.707031 6.449219 13.621094 6.515625 13.546875 6.597656 C 13.507812 6.640625 13.476562 6.683594 13.449219 6.730469 C 13.417969 6.777344 13.394531 6.828125 13.375 6.878906 C 13.339844 6.988281 13.320312 7.105469 13.316406 7.226562 L 13.316406 7.230469 C 13.316406 7.335938 13.230469 7.417969 13.128906 7.417969 C 13.035156 7.414062 12.957031 7.34375 12.945312 7.25 C 12.929688 7.09375 12.933594 6.925781 12.972656 6.761719 C 12.992188 6.683594 13.015625 6.601562 13.050781 6.523438 C 13.085938 6.445312 13.128906 6.371094 13.175781 6.304688 C 13.273438 6.164062 13.394531 6.046875 13.527344 5.949219 C 13.59375 5.902344 13.660156 5.859375 13.734375 5.820312 C 13.769531 5.800781 13.804688 5.78125 13.84375 5.765625 C 13.863281 5.757812 13.953125 5.722656 13.972656 5.714844 C 14.121094 5.675781 14.277344 5.769531 14.316406 5.925781 C 14.355469 6.078125 14.261719 6.234375 14.109375 6.273438 " fill-opacity="1" fill-rule="nonzero"/></g><path fill="rgb(100%, 100%, 100%)" d="M 12.945312 8.269531 C 13.003906 8.417969 13.167969 8.492188 13.3125 8.433594 C 13.460938 8.375 13.535156 8.210938 13.476562 8.058594 C 13.421875 7.910156 13.257812 7.835938 13.109375 7.894531 C 12.960938 7.953125 12.890625 8.121094 12.945312 8.269531 " fill-opacity="1" fill-rule="nonzero"/><g clip-path="url(#clip-5)"><path fill="rgb(98.429871%, 83.918762%, 43.528748%)" d="M 25.15625 12.703125 C 25.15625 13.929688 24.179688 14.925781 22.972656 14.925781 C 22.066406 14.925781 21.289062 14.367188 20.957031 13.570312 C 21.308594 13.8125 21.730469 13.953125 22.1875 13.953125 C 23.394531 13.953125 24.375 12.960938 24.375 11.730469 C 24.375 11.425781 24.3125 11.132812 24.203125 10.867188 C 24.777344 11.265625 25.15625 11.941406 25.15625 12.703125 " fill-opacity="1" fill-rule="nonzero"/></g><path fill="rgb(98.81897%, 89.408875%, 61.569214%)" d="M 24.375 11.730469 C 24.375 12.960938 23.394531 13.953125 22.1875 13.953125 C 21.730469 13.953125 21.308594 13.8125 20.957031 13.570312 C 20.847656 13.300781 20.785156 13.011719 20.785156 12.703125 C 20.785156 11.476562 21.765625 10.480469 22.972656 10.480469 C 23.425781 10.480469 23.851562 10.621094 24.203125 10.867188 C 24.3125 11.132812 24.375 11.425781 24.375 11.730469 " fill-opacity="1" fill-rule="nonzero"/></svg>