<?xml version="1.0" encoding="UTF-8"?><svg xmlns="http://www.w3.org/2000/svg" xmlns:xlink="http://www.w3.org/1999/xlink" contentScriptType="text/ecmascript" width="30" zoomAndPan="magnify" contentStyleType="text/css" viewBox="0 0 30 30.000001" height="30.000001" preserveAspectRatio="xMidYMid meet" version="1.0"><defs><clipPath id="clip-0"><path d="M 8 3.410156 L 20 3.410156 L 20 16 L 8 16 Z M 8 3.410156 " clip-rule="nonzero"/></clipPath><clipPath id="clip-1"><path d="M 5.046875 7 L 17 7 L 17 19 L 5.046875 19 Z M 5.046875 7 " clip-rule="nonzero"/></clipPath><clipPath id="clip-2"><path d="M 5.046875 8 L 17 8 L 17 19 L 5.046875 19 Z M 5.046875 8 " clip-rule="nonzero"/></clipPath><clipPath id="clip-3"><path d="M 16 3.410156 L 24.644531 3.410156 L 24.644531 13 L 16 13 Z M 16 3.410156 " clip-rule="nonzero"/></clipPath><clipPath id="clip-4"><path d="M 6 17 L 22 17 L 22 25.910156 L 6 25.910156 Z M 6 17 " clip-rule="nonzero"/></clipPath><clipPath id="clip-5"><path d="M 5.046875 15 L 23 15 L 23 18 L 5.046875 18 Z M 5.046875 15 " clip-rule="nonzero"/></clipPath></defs><g clip-path="url(#clip-0)"><path fill="rgb(97.648621%, 67.449951%, 11.759949%)" d="M 19.746094 9.230469 C 19.746094 12.445312 17.214844 15.046875 14.089844 15.046875 C 11.523438 15.046875 9.351562 13.285156 8.667969 10.867188 C 8.519531 10.347656 8.4375 9.800781 8.4375 9.230469 C 8.4375 6.019531 10.96875 3.414062 14.089844 3.414062 C 15.171875 3.414062 16.179688 3.726562 17.039062 4.265625 C 18.660156 5.285156 19.746094 7.128906 19.746094 9.230469 " fill-opacity="1" fill-rule="nonzero"/></g><path fill="rgb(97.24884%, 62.348938%, 5.879211%)" d="M 19.746094 9.230469 C 19.746094 12.445312 17.214844 15.046875 14.089844 15.046875 C 11.523438 15.046875 9.351562 13.285156 8.667969 10.867188 C 9.417969 11.222656 10.253906 11.417969 11.136719 11.417969 C 14.4375 11.417969 17.117188 8.660156 17.117188 5.261719 C 17.117188 4.921875 17.089844 4.589844 17.039062 4.265625 C 18.660156 5.285156 19.746094 7.128906 19.746094 9.230469 " fill-opacity="1" fill-rule="nonzero"/><g clip-path="url(#clip-1)"><path fill="rgb(96.078491%, 50.979614%, 57.249451%)" d="M 16.730469 13.109375 C 16.730469 16.320312 14.199219 18.925781 11.078125 18.925781 C 8.507812 18.925781 6.339844 17.164062 5.652344 14.746094 C 5.503906 14.226562 5.421875 13.679688 5.421875 13.109375 C 5.421875 9.898438 7.953125 7.292969 11.078125 7.292969 C 12.15625 7.292969 13.164062 7.601562 14.023438 8.144531 C 15.644531 9.164062 16.730469 11.007812 16.730469 13.109375 " fill-opacity="1" fill-rule="nonzero"/></g><g clip-path="url(#clip-2)"><path fill="rgb(93.328857%, 48.239136%, 54.508972%)" d="M 16.730469 13.109375 C 16.730469 16.320312 14.199219 18.925781 11.078125 18.925781 C 8.507812 18.925781 6.339844 17.164062 5.652344 14.746094 C 6.402344 15.097656 7.238281 15.296875 8.121094 15.296875 C 11.421875 15.296875 14.101562 12.539062 14.101562 9.140625 C 14.101562 8.800781 14.074219 8.46875 14.023438 8.144531 C 15.644531 9.164062 16.730469 11.007812 16.730469 13.109375 " fill-opacity="1" fill-rule="nonzero"/></g><path fill="rgb(92.158508%, 41.569519%, 48.629761%)" d="M 8.082031 13.496094 C 7.449219 13.507812 6.929688 12.957031 6.929688 12.308594 L 6.929688 11.945312 C 6.929688 11.730469 7.101562 11.558594 7.308594 11.558594 C 7.515625 11.558594 7.683594 11.730469 7.683594 11.945312 L 7.683594 12.320312 C 7.683594 12.527344 7.835938 12.707031 8.035156 12.71875 C 8.253906 12.734375 8.4375 12.554688 8.4375 12.332031 L 8.4375 11.945312 C 8.4375 11.730469 8.605469 11.558594 8.816406 11.558594 C 9.023438 11.558594 9.191406 11.730469 9.191406 11.945312 L 9.191406 12.332031 C 9.191406 12.96875 8.695312 13.488281 8.082031 13.496094 " fill-opacity="1" fill-rule="nonzero"/><g clip-path="url(#clip-3)"><path fill="rgb(94.898987%, 86.669922%, 72.549438%)" d="M 16.730469 12.722656 L 21.976562 4.082031 C 22.230469 3.664062 22.671875 3.414062 23.148438 3.414062 L 23.261719 3.414062 C 24.027344 3.414062 24.644531 4.050781 24.644531 4.835938 C 24.644531 5.167969 24.527344 5.492188 24.320312 5.75 L 18.613281 12.722656 L 16.730469 12.722656 " fill-opacity="1" fill-rule="nonzero"/></g><path fill="rgb(45.878601%, 21.958923%, 14.898682%)" d="M 22.003906 14.273438 C 22.003906 17.484375 19.472656 20.089844 16.351562 20.089844 C 13.605469 20.089844 11.3125 18.070312 10.804688 15.394531 C 10.734375 15.03125 10.699219 14.65625 10.699219 14.273438 C 10.699219 11.058594 13.230469 8.457031 16.351562 8.457031 C 17.300781 8.457031 18.199219 8.695312 18.984375 9.121094 C 20.78125 10.097656 22.003906 12.039062 22.003906 14.273438 " fill-opacity="1" fill-rule="nonzero"/><path fill="rgb(40.779114%, 19.60907%, 13.729858%)" d="M 22.003906 14.273438 C 22.003906 17.484375 19.472656 20.089844 16.351562 20.089844 C 13.605469 20.089844 11.3125 18.070312 10.804688 15.394531 C 11.144531 15.445312 11.492188 15.472656 11.84375 15.472656 C 15.472656 15.472656 18.476562 12.714844 18.984375 9.121094 C 20.78125 10.097656 22.003906 12.039062 22.003906 14.273438 " fill-opacity="1" fill-rule="nonzero"/><g clip-path="url(#clip-4)"><path fill="rgb(94.898987%, 86.669922%, 72.549438%)" d="M 21.25 17.375 L 21.097656 18.539062 L 20.121094 25.90625 L 7.308594 25.90625 L 6.332031 18.539062 L 6.175781 17.375 L 21.25 17.375 " fill-opacity="1" fill-rule="nonzero"/></g><path fill="rgb(91.758728%, 83.918762%, 70.199585%)" d="M 21.25 17.375 L 21.097656 18.539062 L 6.332031 18.539062 L 6.175781 17.375 L 21.25 17.375 " fill-opacity="1" fill-rule="nonzero"/><path fill="rgb(97.648621%, 89.019775%, 75.289917%)" d="M 8.277344 18.875 L 7.53125 18.980469 L 7.640625 19.808594 L 8.386719 19.703125 L 8.277344 18.875 " fill-opacity="1" fill-rule="nonzero"/><path fill="rgb(97.648621%, 89.019775%, 75.289917%)" d="M 8.5 20.5625 L 7.753906 20.667969 L 8.25 24.410156 L 8.996094 24.304688 L 8.5 20.5625 " fill-opacity="1" fill-rule="nonzero"/><g clip-path="url(#clip-5)"><path fill="rgb(94.898987%, 86.669922%, 72.549438%)" d="M 21.628906 17.375 L 5.800781 17.375 C 5.382812 17.375 5.046875 17.027344 5.046875 16.601562 C 5.046875 16.171875 5.382812 15.824219 5.800781 15.824219 L 21.628906 15.824219 C 22.046875 15.824219 22.382812 16.171875 22.382812 16.601562 C 22.382812 17.027344 22.046875 17.375 21.628906 17.375 " fill-opacity="1" fill-rule="nonzero"/></g><path fill="rgb(33.329773%, 14.898682%, 10.5896%)" d="M 18.632812 13.109375 C 18 13.121094 17.484375 12.570312 17.484375 11.917969 L 17.484375 11.558594 C 17.484375 11.34375 17.652344 11.171875 17.859375 11.171875 C 18.066406 11.171875 18.238281 11.34375 18.238281 11.558594 L 18.238281 11.933594 C 18.238281 12.136719 18.386719 12.320312 18.589844 12.332031 C 18.808594 12.347656 18.992188 12.167969 18.992188 11.945312 L 18.992188 11.558594 C 18.992188 11.34375 19.160156 11.171875 19.367188 11.171875 C 19.574219 11.171875 19.746094 11.34375 19.746094 11.558594 L 19.746094 11.945312 C 19.746094 12.582031 19.246094 13.097656 18.632812 13.109375 " fill-opacity="1" fill-rule="nonzero"/><path fill="rgb(95.289612%, 41.569519%, 8.628845%)" d="M 14.089844 5.351562 L 13.335938 5.351562 L 13.335938 4.578125 L 14.089844 4.578125 L 14.089844 5.351562 " fill-opacity="1" fill-rule="nonzero"/><path fill="rgb(95.289612%, 41.569519%, 8.628845%)" d="M 16.351562 6.902344 L 15.597656 6.902344 L 15.597656 6.128906 L 16.351562 6.128906 L 16.351562 6.902344 " fill-opacity="1" fill-rule="nonzero"/><path fill="rgb(92.158508%, 41.569519%, 48.629761%)" d="M 10.699219 10.007812 L 9.945312 10.007812 L 9.945312 9.230469 L 10.699219 9.230469 L 10.699219 10.007812 " fill-opacity="1" fill-rule="nonzero"/><path fill="rgb(52.159119%, 26.669312%, 18.429565%)" d="M 14.089844 12.722656 L 13.335938 12.722656 L 13.335938 11.945312 L 14.089844 11.945312 L 14.089844 12.722656 " fill-opacity="1" fill-rule="nonzero"/><path fill="rgb(52.159119%, 26.669312%, 18.429565%)" d="M 15.976562 11.171875 L 15.222656 11.171875 L 15.222656 10.394531 L 15.976562 10.394531 L 15.976562 11.171875 " fill-opacity="1" fill-rule="nonzero"/><path fill="rgb(89.408875%, 81.568909%, 68.629456%)" d="M 15.996094 22.03125 C 15.363281 22.039062 14.84375 21.492188 14.84375 20.839844 L 14.84375 20.476562 C 14.84375 20.265625 15.015625 20.089844 15.222656 20.089844 C 15.429688 20.089844 15.597656 20.265625 15.597656 20.476562 L 15.597656 20.851562 C 15.597656 21.058594 15.75 21.238281 15.949219 21.253906 C 16.167969 21.269531 16.351562 21.089844 16.351562 20.867188 L 16.351562 20.476562 C 16.351562 20.265625 16.519531 20.089844 16.730469 20.089844 C 16.9375 20.089844 17.105469 20.265625 17.105469 20.476562 L 17.105469 20.867188 C 17.105469 21.5 16.609375 22.019531 15.996094 22.03125 " fill-opacity="1" fill-rule="nonzero"/><path fill="rgb(40.779114%, 19.60907%, 13.729858%)" d="M 15.222656 15.4375 L 15.222656 16.988281 C 15.222656 17.417969 15.558594 17.761719 15.976562 17.761719 C 16.390625 17.761719 16.730469 17.417969 16.730469 16.988281 L 16.730469 16.601562 C 16.730469 16.171875 17.066406 15.824219 17.484375 15.824219 C 17.898438 15.824219 18.238281 16.171875 18.238281 16.601562 L 18.238281 17.761719 C 18.238281 18.191406 18.574219 18.539062 18.992188 18.539062 C 19.40625 18.539062 19.746094 18.191406 19.746094 17.761719 L 19.746094 15.4375 L 15.222656 15.4375 " fill-opacity="1" fill-rule="nonzero"/></svg>