<?xml version="1.0" encoding="UTF-8"?><svg xmlns="http://www.w3.org/2000/svg" xmlns:xlink="http://www.w3.org/1999/xlink" contentScriptType="text/ecmascript" width="30" zoomAndPan="magnify" contentStyleType="text/css" viewBox="0 0 30 30.000001" height="30.000001" preserveAspectRatio="xMidYMid meet" version="1.0"><defs><clipPath id="clip-0"><path d="M 9 11 L 21 11 L 21 26.722656 L 9 26.722656 Z M 9 11 " clip-rule="nonzero"/></clipPath><clipPath id="clip-1"><path d="M 10 2.046875 L 17 2.046875 L 17 14 L 10 14 Z M 10 2.046875 " clip-rule="nonzero"/></clipPath><clipPath id="clip-2"><path d="M 8.582031 12 L 10 12 L 10 14 L 8.582031 14 Z M 8.582031 12 " clip-rule="nonzero"/></clipPath><clipPath id="clip-3"><path d="M 8.582031 13 L 10 13 L 10 14 L 8.582031 14 Z M 8.582031 13 " clip-rule="nonzero"/></clipPath><clipPath id="clip-4"><path d="M 13 25 L 15 25 L 15 26.722656 L 13 26.722656 Z M 13 25 " clip-rule="nonzero"/></clipPath><clipPath id="clip-5"><path d="M 10 2.046875 L 13 2.046875 L 13 4 L 10 4 Z M 10 2.046875 " clip-rule="nonzero"/></clipPath><clipPath id="clip-6"><path d="M 8.597656 6.042969 L 21.632812 6.042969 L 21.632812 26.722656 L 8.597656 26.722656 Z M 8.597656 6.042969 " clip-rule="nonzero"/></clipPath><clipPath id="clip-7"><path d="M 21 12 L 21.648438 12 L 21.648438 14 L 21 14 Z M 21 12 " clip-rule="nonzero"/></clipPath><clipPath id="clip-8"><path d="M 14 25 L 15 25 L 15 26.722656 L 14 26.722656 Z M 14 25 " clip-rule="nonzero"/></clipPath><clipPath id="clip-9"><path d="M 15 25 L 16 25 L 16 26.722656 L 15 26.722656 Z M 15 25 " clip-rule="nonzero"/></clipPath><clipPath id="clip-10"><path d="M 16 25 L 17 25 L 17 26.722656 L 16 26.722656 Z M 16 25 " clip-rule="nonzero"/></clipPath><clipPath id="clip-11"><path d="M 17 25 L 18 25 L 18 26.722656 L 17 26.722656 Z M 17 25 " clip-rule="nonzero"/></clipPath></defs><g clip-path="url(#clip-0)"><path fill="rgb(94.509888%, 30.198669%, 27.059937%)" d="M 20.640625 16.839844 C 20.636719 16.507812 20.636719 16.175781 20.632812 15.84375 C 20.632812 15.554688 20.628906 15.269531 20.625 14.980469 C 20.625 14.753906 20.621094 14.523438 20.621094 14.296875 L 20.632812 13.933594 C 20.714844 13.019531 20.671875 12.257812 19.84375 11.746094 C 18.761719 11.074219 17.214844 10.972656 15.972656 11.070312 C 14.96875 11.148438 13.925781 11.363281 12.972656 11.675781 C 12.0625 11.976562 11.128906 12.40625 10.449219 13.082031 C 10.101562 13.421875 9.832031 13.742188 9.875 14.242188 C 9.894531 14.519531 9.957031 14.863281 10.003906 15.078125 L 10.066406 15.308594 C 10.636719 17.277344 12.265625 22.855469 12.710938 24.125 L 12.714844 24.136719 C 12.753906 24.257812 12.808594 24.371094 12.871094 24.480469 C 12.996094 24.691406 13.15625 24.894531 13.355469 25.042969 C 13.546875 25.191406 13.792969 25.324219 14.015625 25.414062 C 14.113281 25.453125 14.1875 25.46875 14.214844 25.574219 C 14.238281 25.65625 14.222656 25.742188 14.230469 25.824219 C 14.238281 25.945312 14.230469 26.011719 14.304688 26.117188 C 14.386719 26.226562 14.683594 26.253906 14.910156 26.269531 C 15 26.273438 15.089844 26.273438 15.179688 26.273438 C 15.964844 26.273438 16.785156 26.140625 17.574219 26.011719 L 17.921875 25.957031 C 18.398438 25.886719 18.859375 25.691406 19.402344 25.421875 C 19.535156 25.359375 19.660156 25.28125 19.773438 25.1875 C 19.882812 25.09375 19.878906 25.011719 19.875 24.878906 C 19.875 24.757812 19.878906 24.757812 19.867188 24.640625 C 19.859375 24.550781 19.851562 24.457031 19.9375 24.398438 C 20.074219 24.304688 20.253906 24.160156 20.382812 24.058594 C 20.527344 23.941406 20.503906 23.769531 20.523438 23.609375 C 20.542969 23.429688 20.546875 23.246094 20.554688 23.066406 C 20.574219 22.785156 20.585938 22.503906 20.59375 22.222656 C 20.601562 21.894531 20.617188 21.566406 20.621094 21.238281 C 20.625 20.878906 20.632812 20.523438 20.632812 20.164062 C 20.636719 19.792969 20.640625 19.417969 20.640625 19.042969 C 20.644531 18.671875 20.640625 18.296875 20.640625 17.921875 C 20.644531 17.5625 20.640625 17.199219 20.640625 16.839844 " fill-opacity="1" fill-rule="nonzero"/></g><g clip-path="url(#clip-1)"><path fill="rgb(89.019775%, 79.60968%, 12.548828%)" d="M 10.625 2.429688 C 10.679688 2.347656 10.734375 2.285156 10.785156 2.242188 C 10.835938 2.195312 10.871094 2.171875 10.921875 2.164062 C 10.972656 2.164062 10.972656 2.222656 10.972656 2.261719 C 10.972656 2.347656 10.945312 2.457031 10.914062 2.511719 C 10.886719 2.570312 10.792969 2.730469 10.6875 2.839844 C 10.65625 2.871094 10.628906 2.90625 10.59375 2.929688 C 10.542969 2.964844 10.515625 2.9375 10.492188 2.886719 C 10.453125 2.800781 10.519531 2.601562 10.625 2.429688 M 10.453125 3.007812 L 10.449219 3.003906 C 10.648438 3.257812 11.097656 3.449219 11.359375 3.625 C 11.761719 3.921875 12.183594 4.199219 12.574219 4.511719 C 12.871094 4.746094 13.15625 5.003906 13.414062 5.289062 C 13.8125 5.78125 13.886719 6.519531 13.980469 7.125 L 14.003906 7.351562 C 14.066406 8.183594 14.394531 10.539062 14.78125 13.160156 C 14.804688 13.175781 14.835938 13.1875 14.871094 13.191406 C 15.039062 13.21875 15.882812 13.171875 16.042969 12.957031 C 15.710938 10.328125 15.394531 7.84375 15.371094 7.710938 C 15.238281 6.945312 15.132812 6.175781 14.980469 5.414062 C 14.84375 4.730469 12.878906 3.324219 12.3125 2.90625 C 11.980469 2.660156 11.179688 2.167969 11.019531 2.074219 C 11.011719 2.066406 11 2.058594 10.984375 2.054688 C 10.964844 2.046875 10.941406 2.042969 10.910156 2.046875 C 10.90625 2.046875 10.902344 2.046875 10.898438 2.046875 C 10.769531 2.0625 10.625 2.195312 10.519531 2.359375 C 10.398438 2.550781 10.328125 2.78125 10.390625 2.921875 C 10.410156 2.960938 10.429688 2.988281 10.453125 3.007812 " fill-opacity="1" fill-rule="nonzero"/></g><path fill="rgb(89.019775%, 79.60968%, 12.548828%)" d="M 9.449219 12.3125 C 9.429688 11.027344 10.246094 9.679688 11.183594 8.828125 C 11.226562 8.789062 11.160156 8.722656 11.117188 8.765625 C 10.160156 9.632812 9.335938 11 9.355469 12.3125 C 9.359375 12.367188 9.449219 12.367188 9.449219 12.3125 " fill-opacity="1" fill-rule="nonzero"/><path fill="rgb(89.019775%, 79.60968%, 12.548828%)" d="M 12.125 8.007812 C 11.867188 8.125 11.652344 8.300781 11.449219 8.496094 C 11.40625 8.535156 11.472656 8.601562 11.511719 8.558594 C 11.710938 8.371094 11.917969 8.199219 12.171875 8.085938 C 12.226562 8.0625 12.179688 7.984375 12.125 8.007812 " fill-opacity="1" fill-rule="nonzero"/><path fill="rgb(89.019775%, 79.60968%, 12.548828%)" d="M 12.8125 7.71875 C 12.867188 7.695312 12.820312 7.617188 12.765625 7.640625 C 12.664062 7.683594 12.566406 7.726562 12.476562 7.78125 C 12.425781 7.8125 12.472656 7.890625 12.523438 7.859375 C 12.613281 7.800781 12.710938 7.761719 12.8125 7.71875 " fill-opacity="1" fill-rule="nonzero"/><g clip-path="url(#clip-2)"><path fill="rgb(89.019775%, 79.60968%, 12.548828%)" d="M 9.648438 13.636719 C 9.402344 13.449219 8.828125 13.023438 9.109375 12.664062 C 9.144531 12.621094 9.0625 12.574219 9.027344 12.621094 C 8.71875 13.019531 9.308594 13.492188 9.582031 13.703125 C 9.628906 13.738281 9.695312 13.671875 9.648438 13.636719 " fill-opacity="1" fill-rule="nonzero"/></g><g clip-path="url(#clip-3)"><path fill="rgb(89.019775%, 79.60968%, 12.548828%)" d="M 8.871094 13.410156 C 8.875 13.351562 8.78125 13.351562 8.78125 13.410156 C 8.777344 13.582031 8.859375 13.738281 8.925781 13.890625 C 8.949219 13.945312 9.027344 13.898438 9.003906 13.847656 C 8.945312 13.707031 8.871094 13.5625 8.871094 13.410156 " fill-opacity="1" fill-rule="nonzero"/></g><path fill="rgb(89.019775%, 79.60968%, 12.548828%)" d="M 13.046875 8.28125 C 12.9375 8.753906 13.597656 8.949219 13.972656 8.925781 C 14.03125 8.921875 14.03125 8.832031 13.972656 8.835938 C 13.667969 8.855469 13.042969 8.710938 13.136719 8.304688 C 13.148438 8.25 13.0625 8.226562 13.046875 8.28125 " fill-opacity="1" fill-rule="nonzero"/><path fill="rgb(89.019775%, 79.60968%, 12.548828%)" d="M 13.226562 8.140625 C 13.296875 8.058594 13.382812 8 13.472656 7.941406 C 13.523438 7.910156 13.476562 7.832031 13.425781 7.863281 C 13.328125 7.925781 13.234375 7.988281 13.160156 8.074219 C 13.121094 8.121094 13.1875 8.183594 13.226562 8.140625 " fill-opacity="1" fill-rule="nonzero"/><path fill="rgb(89.019775%, 79.60968%, 12.548828%)" d="M 13.488281 25.234375 C 13.042969 25.121094 12.820312 24.78125 12.59375 24.421875 C 12.5625 24.371094 12.480469 24.417969 12.511719 24.464844 C 12.753906 24.847656 12.996094 25.199219 13.464844 25.320312 C 13.523438 25.335938 13.546875 25.25 13.488281 25.234375 " fill-opacity="1" fill-rule="nonzero"/><path fill="rgb(89.019775%, 79.60968%, 12.548828%)" d="M 11.167969 19.859375 C 10.695312 18.277344 10.257812 16.679688 9.726562 15.113281 C 9.707031 15.058594 9.617188 15.082031 9.636719 15.136719 C 10.152344 16.660156 10.582031 18.214844 11.042969 19.753906 C 11.460938 21.164062 11.8125 22.621094 12.332031 24.003906 C 12.351562 24.054688 12.441406 24.03125 12.417969 23.976562 C 11.917969 22.640625 11.578125 21.226562 11.167969 19.859375 " fill-opacity="1" fill-rule="nonzero"/><g clip-path="url(#clip-4)"><path fill="rgb(89.019775%, 79.60968%, 12.548828%)" d="M 14.191406 26.234375 C 13.972656 26.148438 13.890625 25.90625 13.894531 25.695312 C 13.894531 25.636719 13.800781 25.636719 13.800781 25.695312 C 13.796875 25.949219 13.90625 26.222656 14.167969 26.320312 C 14.222656 26.339844 14.246094 26.253906 14.191406 26.234375 " fill-opacity="1" fill-rule="nonzero"/></g><path fill="rgb(89.019775%, 79.60968%, 12.548828%)" d="M 16.410156 20.453125 C 16.285156 20.398438 16.160156 20.34375 16.035156 20.292969 C 16.160156 20.34375 16.285156 20.398438 16.410156 20.453125 M 18.019531 18.949219 C 18.0625 18.941406 18.105469 18.910156 18.113281 18.878906 C 18.226562 18.789062 19.257812 17.683594 19.394531 17.097656 C 19.421875 17.058594 19.421875 17.019531 19.417969 16.984375 C 19.445312 16.816406 16.792969 16.464844 16.621094 16.609375 C 16.582031 16.617188 16.550781 16.636719 16.511719 16.664062 C 16.375 15.585938 16.214844 14.292969 16.054688 13.03125 C 15.820312 13.246094 15.085938 13.316406 14.789062 13.226562 C 15.007812 14.714844 15.246094 16.28125 15.464844 17.699219 C 15.253906 17.921875 15.433594 19.421875 15.679688 19.476562 C 15.699219 19.480469 15.71875 19.484375 15.738281 19.488281 C 15.777344 19.742188 15.863281 20.226562 15.867188 20.226562 C 15.390625 20.042969 13.734375 21.085938 13.757812 21.175781 C 13.757812 21.21875 13.769531 21.273438 13.792969 21.292969 C 13.910156 21.660156 14.847656 22.648438 15.109375 22.792969 C 15.140625 22.824219 15.183594 22.851562 15.21875 22.847656 C 15.347656 22.914062 16.800781 23.402344 17.402344 23.292969 C 17.457031 23.300781 17.492188 23.285156 17.523438 23.265625 C 17.691406 23.226562 17.003906 20.730469 17.015625 20.738281 C 16.96875 20.328125 16.917969 19.917969 16.867188 19.507812 C 16.980469 19.417969 17.777344 19.128906 18.019531 18.949219 " fill-opacity="1" fill-rule="nonzero"/><path fill="rgb(96.078491%, 53.729248%, 23.919678%)" d="M 15.679688 19.476562 C 15.699219 19.480469 15.71875 19.484375 15.738281 19.488281 C 15.652344 18.933594 15.558594 18.332031 15.460938 17.699219 C 15.253906 17.917969 15.050781 18.148438 14.855469 18.375 C 14.746094 18.503906 14.625 18.652344 14.613281 18.824219 C 14.613281 18.828125 14.609375 18.832031 14.609375 18.839844 C 14.605469 19.039062 14.804688 19.136719 14.964844 19.226562 C 15.183594 19.351562 15.433594 19.421875 15.679688 19.476562 " fill-opacity="1" fill-rule="nonzero"/><path fill="rgb(96.078491%, 53.729248%, 23.919678%)" d="M 16.867188 19.507812 C 16.996094 19.484375 17.121094 19.445312 17.246094 19.398438 C 17.519531 19.285156 17.777344 19.128906 18.015625 18.949219 C 17.53125 18.285156 17.046875 17.621094 16.550781 16.964844 C 16.699219 18.128906 16.804688 18.992188 16.832031 19.214844 C 16.84375 19.3125 16.855469 19.410156 16.867188 19.507812 " fill-opacity="1" fill-rule="nonzero"/><path fill="rgb(96.078491%, 53.729248%, 23.919678%)" d="M 16.519531 16.722656 L 16.519531 16.726562 C 17.058594 17.4375 17.585938 18.15625 18.113281 18.875 C 18.226562 18.789062 18.335938 18.699219 18.445312 18.605469 C 18.921875 18.1875 19.257812 17.683594 19.394531 17.101562 C 18.441406 16.9375 17.484375 16.808594 16.519531 16.722656 " fill-opacity="1" fill-rule="nonzero"/><path fill="rgb(96.078491%, 53.729248%, 23.919678%)" d="M 17.152344 16.183594 C 16.96875 16.324219 16.792969 16.464844 16.617188 16.613281 L 16.621094 16.609375 C 17.558594 16.695312 18.492188 16.824219 19.417969 16.984375 C 19.449219 16.816406 19.460938 16.644531 19.457031 16.46875 C 19.453125 16.257812 19.417969 16.042969 19.375 15.839844 C 19.324219 15.589844 19.261719 15.015625 18.878906 15.140625 C 18.625 15.226562 18.363281 15.394531 18.132812 15.523438 C 17.789062 15.71875 17.464844 15.945312 17.152344 16.183594 " fill-opacity="1" fill-rule="nonzero"/><path fill="rgb(96.078491%, 53.729248%, 23.919678%)" d="M 13.792969 21.289062 C 13.910156 21.660156 14.09375 22.003906 14.386719 22.28125 C 14.597656 22.480469 14.851562 22.648438 15.113281 22.792969 L 15.109375 22.789062 C 15.578125 22.042969 16.050781 21.300781 16.507812 20.546875 C 15.613281 20.824219 14.660156 20.953125 13.792969 21.289062 " fill-opacity="1" fill-rule="nonzero"/><path fill="rgb(96.078491%, 53.729248%, 23.919678%)" d="M 13.890625 19.699219 C 13.886719 19.699219 13.878906 19.703125 13.875 19.707031 C 13.683594 19.78125 13.671875 19.996094 13.648438 20.171875 C 13.617188 20.417969 13.644531 20.667969 13.695312 20.910156 C 13.710938 21.003906 13.734375 21.09375 13.757812 21.183594 L 13.757812 21.175781 C 14.609375 20.847656 15.535156 20.71875 16.410156 20.453125 L 16.410156 20.449219 C 16.316406 20.410156 16.226562 20.371094 16.132812 20.332031 C 16.039062 20.296875 15.949219 20.257812 15.851562 20.222656 C 15.378906 20.039062 14.894531 19.882812 14.40625 19.742188 C 14.246094 19.695312 14.058594 19.644531 13.890625 19.699219 " fill-opacity="1" fill-rule="nonzero"/><path fill="rgb(96.078491%, 53.729248%, 23.919678%)" d="M 17.402344 23.289062 C 17.183594 22.375 16.929688 21.46875 16.628906 20.578125 C 16.167969 21.339844 15.691406 22.09375 15.21875 22.847656 C 15.347656 22.917969 15.476562 22.976562 15.605469 23.035156 C 16.1875 23.300781 16.800781 23.402344 17.402344 23.289062 " fill-opacity="1" fill-rule="nonzero"/><path fill="rgb(96.078491%, 53.729248%, 23.919678%)" d="M 18.027344 23.101562 C 18.226562 23.015625 18.414062 22.898438 18.589844 22.777344 C 18.804688 22.636719 19.324219 22.351562 19.054688 22.0625 C 18.875 21.867188 18.613281 21.699219 18.398438 21.542969 C 18.078125 21.3125 17.734375 21.113281 17.386719 20.929688 C 17.265625 20.863281 17.140625 20.800781 17.015625 20.738281 L 17.003906 20.730469 C 16.929688 20.695312 16.851562 20.65625 16.773438 20.621094 C 17.0625 21.488281 17.308594 22.375 17.523438 23.265625 C 17.691406 23.226562 17.863281 23.171875 18.027344 23.101562 " fill-opacity="1" fill-rule="nonzero"/><path fill="rgb(96.078491%, 53.729248%, 23.919678%)" d="M 14.496094 13.523438 C 15.042969 13.738281 15.71875 13.636719 16.1875 13.292969 C 16.234375 13.257812 16.1875 13.179688 16.140625 13.214844 C 15.917969 13.378906 15.667969 13.46875 15.398438 13.519531 C 15.246094 13.546875 15.089844 13.546875 14.9375 13.539062 C 14.851562 13.53125 14.765625 13.515625 14.683594 13.496094 C 14.464844 13.441406 14.097656 13.148438 14.566406 12.980469 C 14.625 12.957031 14.597656 12.871094 14.542969 12.890625 C 14.234375 13.003906 14.144531 13.386719 14.496094 13.523438 " fill-opacity="1" fill-rule="nonzero"/><path fill="rgb(96.078491%, 53.729248%, 23.919678%)" d="M 10.566406 13.332031 C 11.492188 12.453125 12.742188 12.03125 13.980469 11.75 C 14.039062 11.738281 14.015625 11.652344 13.957031 11.664062 C 12.703125 11.949219 11.4375 12.382812 10.5 13.269531 C 10.457031 13.3125 10.523438 13.375 10.566406 13.332031 " fill-opacity="1" fill-rule="nonzero"/><path fill="rgb(96.078491%, 53.729248%, 23.919678%)" d="M 10.0625 14.015625 C 10.082031 13.972656 10.085938 13.925781 10.105469 13.882812 C 10.128906 13.832031 10.050781 13.785156 10.027344 13.839844 C 10.007812 13.882812 10 13.925781 9.980469 13.96875 C 9.957031 14.019531 10.039062 14.066406 10.0625 14.015625 " fill-opacity="1" fill-rule="nonzero"/><path fill="rgb(96.078491%, 53.729248%, 23.919678%)" d="M 10.089844 14.378906 C 10.09375 14.320312 10.003906 14.320312 10 14.378906 C 9.984375 14.585938 10.0625 14.773438 10.109375 14.972656 C 10.125 15.027344 10.214844 15.003906 10.199219 14.949219 C 10.152344 14.757812 10.078125 14.578125 10.089844 14.378906 " fill-opacity="1" fill-rule="nonzero"/><path fill="rgb(96.078491%, 53.729248%, 23.919678%)" d="M 12.816406 22.960938 C 12.1875 20.582031 11.292969 18.285156 10.621094 15.917969 C 10.605469 15.863281 10.515625 15.886719 10.53125 15.941406 C 11.203125 18.308594 12.101562 20.609375 12.726562 22.984375 C 12.742188 23.042969 12.832031 23.019531 12.816406 22.960938 " fill-opacity="1" fill-rule="nonzero"/><path fill="rgb(96.078491%, 53.729248%, 23.919678%)" d="M 12.894531 23.375 C 12.886719 23.316406 12.796875 23.316406 12.800781 23.375 C 12.8125 23.464844 12.839844 23.546875 12.863281 23.632812 C 12.878906 23.6875 12.96875 23.664062 12.953125 23.609375 C 12.929688 23.53125 12.902344 23.457031 12.894531 23.375 " fill-opacity="1" fill-rule="nonzero"/><path fill="rgb(96.078491%, 53.729248%, 23.919678%)" d="M 14.4375 25.082031 C 14.140625 24.9375 13.855469 24.785156 13.609375 24.574219 C 13.386719 24.382812 13.121094 24.105469 13.078125 23.8125 C 13.070312 23.753906 12.980469 23.777344 12.988281 23.835938 C 13.03125 24.113281 13.246094 24.332031 13.433594 24.527344 C 13.699219 24.808594 14.042969 24.988281 14.390625 25.160156 C 14.441406 25.183594 14.488281 25.105469 14.4375 25.082031 " fill-opacity="1" fill-rule="nonzero"/><path fill="rgb(96.078491%, 53.729248%, 23.919678%)" d="M 10.769531 14.136719 C 10.714844 14.113281 10.667969 14.191406 10.722656 14.214844 C 11.832031 14.675781 13.042969 14.742188 14.238281 14.765625 C 15.570312 14.785156 16.960938 14.527344 18.210938 14.078125 C 18.265625 14.058594 18.242188 13.972656 18.1875 13.992188 C 17.042969 14.402344 15.824219 14.617188 14.609375 14.667969 C 13.335938 14.722656 11.945312 14.628906 10.769531 14.136719 " fill-opacity="1" fill-rule="nonzero"/><path fill="rgb(96.078491%, 53.729248%, 23.919678%)" d="M 19.101562 24.617188 C 17.785156 25.183594 16.207031 25.53125 14.777344 25.195312 C 14.71875 25.183594 14.695312 25.269531 14.75 25.28125 C 16.207031 25.621094 17.808594 25.269531 19.148438 24.695312 C 19.203125 24.671875 19.15625 24.59375 19.101562 24.617188 " fill-opacity="1" fill-rule="nonzero"/><path fill="rgb(96.078491%, 53.729248%, 23.919678%)" d="M 19.488281 24.5 C 19.4375 24.519531 19.390625 24.542969 19.339844 24.558594 C 19.28125 24.578125 19.308594 24.664062 19.363281 24.648438 C 19.421875 24.628906 19.476562 24.601562 19.535156 24.574219 C 19.589844 24.550781 19.542969 24.476562 19.488281 24.5 " fill-opacity="1" fill-rule="nonzero"/><path fill="rgb(96.078491%, 53.729248%, 23.919678%)" d="M 19.738281 24.402344 C 19.679688 24.402344 19.679688 24.492188 19.738281 24.492188 C 19.800781 24.492188 19.800781 24.402344 19.738281 24.402344 " fill-opacity="1" fill-rule="nonzero"/><path fill="rgb(94.509888%, 30.198669%, 27.059937%)" d="M 14.832031 13.5 C 14.8125 13.40625 14.777344 13.300781 14.761719 13.210938 C 14.839844 13.234375 14.949219 13.246094 15.074219 13.246094 C 15.425781 13.246094 15.890625 13.160156 16.0625 13 C 16.074219 13.066406 16.070312 13.15625 16.078125 13.230469 C 16.070312 13.164062 16.0625 13.097656 16.054688 13.03125 C 15.886719 13.183594 15.460938 13.265625 15.121094 13.265625 C 14.992188 13.265625 14.875 13.253906 14.789062 13.226562 C 14.804688 13.316406 14.816406 13.410156 14.832031 13.5 " fill-opacity="1" fill-rule="nonzero"/><path fill="rgb(94.898987%, 39.608765%, 23.529053%)" d="M 15.105469 13.542969 C 15.050781 13.542969 14.992188 13.542969 14.9375 13.539062 C 14.914062 13.535156 14.886719 13.535156 14.863281 13.53125 C 14.851562 13.527344 14.84375 13.527344 14.835938 13.527344 C 14.832031 13.515625 14.832031 13.507812 14.832031 13.5 C 14.816406 13.410156 14.804688 13.316406 14.789062 13.226562 C 14.875 13.253906 14.992188 13.265625 15.121094 13.265625 C 15.460938 13.265625 15.886719 13.183594 16.054688 13.03125 C 16.0625 13.097656 16.070312 13.164062 16.078125 13.230469 C 16.078125 13.238281 16.082031 13.246094 16.082031 13.253906 C 15.875 13.394531 15.644531 13.472656 15.398438 13.519531 C 15.324219 13.53125 15.25 13.539062 15.171875 13.542969 C 15.152344 13.542969 15.128906 13.542969 15.105469 13.542969 " fill-opacity="1" fill-rule="nonzero"/><path fill="rgb(94.898987%, 34.509277%, 26.669312%)" d="M 15.101562 13.542969 C 15.046875 13.542969 14.992188 13.542969 14.9375 13.539062 C 14.914062 13.535156 14.886719 13.535156 14.863281 13.53125 C 14.886719 13.535156 14.914062 13.535156 14.9375 13.539062 C 14.992188 13.542969 15.050781 13.542969 15.105469 13.542969 C 15.128906 13.542969 15.152344 13.542969 15.171875 13.542969 C 15.148438 13.542969 15.125 13.542969 15.101562 13.542969 " fill-opacity="1" fill-rule="nonzero"/><path fill="rgb(94.509888%, 30.198669%, 27.059937%)" d="M 14.996094 14.609375 C 14.96875 14.453125 14.917969 14.300781 14.894531 14.144531 C 14.867188 13.976562 14.875 13.808594 14.851562 13.644531 C 14.898438 13.960938 14.945312 14.285156 14.996094 14.609375 M 16.234375 14.46875 C 16.1875 14.101562 16.140625 13.730469 16.09375 13.359375 C 16.113281 13.503906 16.171875 13.609375 16.191406 13.757812 C 16.21875 13.980469 16.210938 14.242188 16.234375 14.46875 " fill-opacity="1" fill-rule="nonzero"/><path fill="rgb(94.898987%, 39.608765%, 23.529053%)" d="M 15 14.644531 C 15 14.632812 14.996094 14.621094 14.996094 14.609375 C 14.945312 14.285156 14.898438 13.960938 14.851562 13.644531 C 14.851562 13.632812 14.851562 13.625 14.847656 13.617188 C 14.933594 13.628906 15.019531 13.636719 15.109375 13.636719 C 15.457031 13.636719 15.808594 13.539062 16.09375 13.355469 C 16.09375 13.355469 16.09375 13.355469 16.09375 13.359375 C 16.140625 13.730469 16.1875 14.101562 16.234375 14.46875 C 16.238281 14.476562 16.238281 14.488281 16.238281 14.5 C 15.828125 14.566406 15.417969 14.617188 15 14.644531 " fill-opacity="1" fill-rule="nonzero"/><path fill="rgb(94.898987%, 34.509277%, 26.669312%)" d="M 15.109375 13.636719 C 15.019531 13.636719 14.933594 13.628906 14.847656 13.617188 C 14.933594 13.628906 15.019531 13.636719 15.109375 13.636719 C 15.457031 13.636719 15.808594 13.535156 16.09375 13.355469 C 15.808594 13.539062 15.457031 13.636719 15.109375 13.636719 " fill-opacity="1" fill-rule="nonzero"/><path fill="rgb(94.509888%, 30.198669%, 27.059937%)" d="M 17.015625 20.738281 C 16.96875 20.328125 16.917969 19.917969 16.867188 19.507812 C 16.886719 19.640625 16.941406 19.78125 16.960938 19.921875 C 16.992188 20.199219 16.988281 20.484375 17.015625 20.738281 M 15.867188 20.226562 C 15.863281 20.226562 15.859375 20.222656 15.855469 20.222656 C 15.839844 20.132812 15.6875 19.953125 15.664062 19.808594 C 15.640625 19.644531 15.757812 19.617188 15.738281 19.488281 C 15.777344 19.738281 15.859375 20.214844 15.867188 20.226562 M 15.464844 17.699219 C 15.398438 17.28125 15.207031 16.828125 15.144531 16.398438 C 15.0625 15.875 15.097656 15.367188 15.027344 14.824219 C 15.175781 15.804688 15.324219 16.78125 15.464844 17.699219 M 16.511719 16.664062 C 16.4375 16.054688 16.351562 15.375 16.261719 14.671875 C 16.320312 15.09375 16.402344 15.492188 16.457031 15.917969 C 16.488281 16.15625 16.484375 16.453125 16.511719 16.664062 " fill-opacity="1" fill-rule="nonzero"/><path fill="rgb(94.898987%, 39.608765%, 23.529053%)" d="M 17.015625 20.738281 L 17.007812 20.734375 C 16.976562 20.71875 16.949219 20.703125 16.917969 20.6875 C 16.871094 20.664062 16.824219 20.640625 16.773438 20.621094 C 16.664062 20.566406 16.554688 20.515625 16.445312 20.46875 C 16.300781 20.402344 16.15625 20.339844 16.007812 20.28125 C 15.960938 20.265625 15.914062 20.246094 15.867188 20.226562 C 15.859375 20.214844 15.777344 19.738281 15.738281 19.488281 C 15.644531 18.878906 15.570312 18.394531 15.464844 17.699219 C 15.324219 16.78125 15.175781 15.804688 15.027344 14.824219 C 15.023438 14.796875 15.019531 14.773438 15.015625 14.746094 C 15.324219 14.726562 15.628906 14.695312 15.9375 14.648438 C 16.042969 14.632812 16.148438 14.617188 16.253906 14.597656 C 16.253906 14.625 16.257812 14.648438 16.261719 14.671875 C 16.351562 15.375 16.4375 16.054688 16.511719 16.664062 C 16.515625 16.683594 16.519531 16.703125 16.519531 16.722656 C 16.53125 16.804688 16.542969 16.886719 16.550781 16.964844 C 16.636719 17.636719 16.707031 18.207031 16.757812 18.613281 C 16.796875 18.910156 16.820312 19.117188 16.832031 19.214844 C 16.839844 19.285156 16.847656 19.332031 16.855469 19.386719 C 16.859375 19.425781 16.863281 19.46875 16.867188 19.507812 C 16.917969 19.917969 16.96875 20.328125 17.015625 20.738281 " fill-opacity="1" fill-rule="nonzero"/><path fill="rgb(94.898987%, 34.509277%, 26.669312%)" d="M 16.867188 19.507812 C 16.863281 19.46875 16.859375 19.425781 16.855469 19.386719 C 16.859375 19.421875 16.863281 19.460938 16.867188 19.507812 M 16.757812 18.613281 C 16.707031 18.207031 16.636719 17.636719 16.550781 16.964844 C 16.636719 17.652344 16.707031 18.214844 16.757812 18.613281 " fill-opacity="1" fill-rule="nonzero"/><path fill="rgb(94.898987%, 34.509277%, 26.669312%)" d="M 16.007812 20.28125 C 15.957031 20.261719 15.90625 20.242188 15.855469 20.222656 C 15.859375 20.222656 15.863281 20.226562 15.867188 20.226562 C 15.914062 20.246094 15.960938 20.265625 16.007812 20.28125 " fill-opacity="1" fill-rule="nonzero"/><path fill="rgb(94.898987%, 34.509277%, 26.669312%)" d="M 17.015625 20.738281 C 17.011719 20.734375 17.011719 20.734375 17.007812 20.734375 L 17.015625 20.738281 M 16.917969 20.6875 C 16.871094 20.664062 16.824219 20.644531 16.773438 20.621094 C 16.824219 20.640625 16.871094 20.664062 16.917969 20.6875 " fill-opacity="1" fill-rule="nonzero"/><path fill="rgb(94.898987%, 34.509277%, 26.669312%)" d="M 15.9375 14.648438 C 16.042969 14.632812 16.148438 14.617188 16.253906 14.597656 C 16.148438 14.617188 16.042969 14.632812 15.9375 14.648438 " fill-opacity="1" fill-rule="nonzero"/><path fill="rgb(25.099182%, 67.449951%, 61.569214%)" d="M 15.996094 12.574219 C 15.980469 12.449219 15.964844 12.324219 15.949219 12.203125 C 15.425781 12.113281 14.9375 11.890625 14.542969 11.527344 C 14.566406 11.699219 14.59375 11.867188 14.617188 12.042969 C 15.027344 12.324219 15.5 12.503906 15.996094 12.574219 " fill-opacity="1" fill-rule="nonzero"/><path fill="rgb(25.099182%, 67.449951%, 61.569214%)" d="M 15.863281 11.53125 C 15.847656 11.398438 15.832031 11.269531 15.816406 11.144531 C 15.308594 10.996094 14.839844 10.773438 14.394531 10.480469 C 14.417969 10.632812 14.4375 10.789062 14.460938 10.945312 C 14.902344 11.203125 15.367188 11.398438 15.863281 11.53125 " fill-opacity="1" fill-rule="nonzero"/><path fill="rgb(25.099182%, 67.449951%, 61.569214%)" d="M 14.230469 9.285156 C 14.253906 9.445312 14.277344 9.613281 14.300781 9.789062 C 14.730469 10.078125 15.210938 10.265625 15.714844 10.367188 C 15.699219 10.234375 15.683594 10.109375 15.667969 9.988281 C 15.144531 9.867188 14.660156 9.640625 14.230469 9.285156 " fill-opacity="1" fill-rule="nonzero"/><path fill="rgb(25.099182%, 67.449951%, 61.569214%)" d="M 13.199219 5.0625 C 13.617188 4.976562 14.011719 4.804688 14.363281 4.5625 C 14.277344 4.480469 14.1875 4.394531 14.09375 4.3125 C 13.726562 4.550781 13.308594 4.707031 12.871094 4.757812 C 12.980469 4.855469 13.09375 4.957031 13.199219 5.0625 " fill-opacity="1" fill-rule="nonzero"/><path fill="rgb(25.099182%, 67.449951%, 61.569214%)" d="M 12.332031 4.328125 C 12.765625 4.226562 13.183594 4.078125 13.582031 3.871094 C 13.476562 3.785156 13.371094 3.703125 13.269531 3.621094 C 12.847656 3.824219 12.40625 3.960938 11.941406 4.042969 C 12.074219 4.136719 12.203125 4.230469 12.332031 4.328125 " fill-opacity="1" fill-rule="nonzero"/><g clip-path="url(#clip-5)"><path fill="rgb(25.099182%, 67.449951%, 61.569214%)" d="M 12.605469 3.121094 C 12.488281 3.035156 12.386719 2.960938 12.3125 2.90625 C 12.304688 2.898438 12.292969 2.890625 12.285156 2.886719 C 11.828125 3.125 11.332031 3.269531 10.789062 3.289062 C 10.96875 3.402344 11.160156 3.5 11.3125 3.597656 C 11.773438 3.515625 12.207031 3.351562 12.605469 3.121094 " fill-opacity="1" fill-rule="nonzero"/></g><path fill="rgb(25.099182%, 67.449951%, 61.569214%)" d="M 16.03125 7.988281 C 16.027344 7.96875 16.023438 7.949219 16.019531 7.929688 L 16.015625 7.917969 C 16.011719 7.898438 16.003906 7.878906 15.992188 7.859375 L 15.988281 7.847656 C 15.976562 7.828125 15.960938 7.804688 15.945312 7.78125 L 15.945312 7.777344 C 15.925781 7.75 15.90625 7.726562 15.882812 7.699219 L 15.871094 7.691406 L 15.867188 7.6875 C 15.707031 7.574219 15.53125 7.550781 15.34375 7.554688 C 15.351562 7.582031 15.355469 7.609375 15.359375 7.636719 C 15.398438 7.640625 15.433594 7.644531 15.464844 7.648438 C 15.480469 7.652344 15.5 7.652344 15.515625 7.65625 C 15.535156 7.660156 15.558594 7.664062 15.582031 7.667969 C 15.597656 7.671875 15.617188 7.675781 15.632812 7.683594 C 15.648438 7.6875 15.664062 7.691406 15.679688 7.699219 C 15.699219 7.703125 15.71875 7.710938 15.734375 7.71875 C 15.742188 7.722656 15.75 7.726562 15.753906 7.730469 C 15.777344 7.742188 15.800781 7.753906 15.816406 7.765625 C 15.90625 7.863281 15.9375 7.949219 15.929688 8.027344 C 15.910156 8.195312 15.683594 8.320312 15.378906 8.40625 C 15.375 8.410156 15.367188 8.410156 15.363281 8.414062 C 15.121094 8.480469 14.835938 8.523438 14.570312 8.550781 C 14.566406 8.550781 14.5625 8.554688 14.554688 8.554688 C 14.53125 8.554688 14.503906 8.558594 14.480469 8.558594 C 14.472656 8.5625 14.464844 8.5625 14.457031 8.5625 C 14.433594 8.5625 14.410156 8.566406 14.386719 8.566406 C 14.378906 8.570312 14.371094 8.570312 14.363281 8.570312 C 14.355469 8.570312 14.351562 8.570312 14.347656 8.570312 C 14.273438 8.535156 14.199219 8.5 14.125 8.457031 C 14.128906 8.496094 14.136719 8.539062 14.140625 8.582031 C 14.125 8.582031 14.105469 8.582031 14.089844 8.582031 C 14.082031 8.582031 14.074219 8.582031 14.066406 8.582031 C 14.054688 8.582031 14.039062 8.582031 14.027344 8.582031 L 14.015625 8.582031 C 14.007812 8.582031 14.003906 8.582031 14 8.582031 C 13.921875 8.585938 13.855469 8.582031 13.804688 8.578125 L 13.796875 8.578125 C 13.773438 8.578125 13.75 8.574219 13.734375 8.570312 L 13.730469 8.570312 C 13.699219 8.566406 13.667969 8.558594 13.640625 8.546875 L 13.628906 8.542969 C 13.605469 8.535156 13.582031 8.523438 13.5625 8.507812 L 13.550781 8.5 C 13.527344 8.488281 13.511719 8.472656 13.496094 8.457031 L 13.484375 8.449219 C 13.46875 8.429688 13.457031 8.410156 13.445312 8.394531 C 13.394531 8.296875 13.40625 8.179688 13.515625 8.070312 C 13.550781 8.039062 13.589844 8.007812 13.628906 7.980469 L 13.640625 7.972656 C 13.675781 7.949219 13.714844 7.925781 13.757812 7.90625 C 13.765625 7.902344 13.773438 7.898438 13.785156 7.894531 C 13.820312 7.878906 13.859375 7.863281 13.898438 7.851562 C 13.902344 7.847656 13.910156 7.847656 13.917969 7.84375 C 13.960938 7.828125 14.003906 7.816406 14.046875 7.804688 C 14.042969 7.769531 14.039062 7.738281 14.039062 7.707031 C 14.019531 7.714844 14 7.722656 13.976562 7.730469 L 13.976562 7.726562 C 13.972656 7.730469 13.96875 7.730469 13.964844 7.734375 C 13.917969 7.75 13.871094 7.769531 13.828125 7.789062 C 13.816406 7.792969 13.808594 7.796875 13.796875 7.800781 C 13.6875 7.851562 13.550781 7.933594 13.445312 8.027344 C 13.4375 8.035156 13.433594 8.039062 13.425781 8.046875 C 13.417969 8.054688 13.40625 8.0625 13.398438 8.074219 C 13.390625 8.082031 13.382812 8.089844 13.375 8.097656 C 13.371094 8.105469 13.363281 8.109375 13.359375 8.117188 C 13.351562 8.128906 13.34375 8.136719 13.335938 8.148438 L 13.328125 8.160156 C 13.320312 8.171875 13.3125 8.1875 13.304688 8.199219 C 13.28125 8.246094 13.269531 8.289062 13.273438 8.335938 L 13.273438 8.339844 C 13.273438 8.351562 13.277344 8.363281 13.277344 8.378906 L 13.28125 8.390625 C 13.285156 8.402344 13.289062 8.414062 13.296875 8.425781 L 13.300781 8.429688 L 13.304688 8.445312 L 13.3125 8.453125 C 13.316406 8.457031 13.320312 8.464844 13.324219 8.472656 L 13.328125 8.476562 C 13.335938 8.484375 13.34375 8.492188 13.351562 8.5 L 13.359375 8.511719 L 13.371094 8.519531 L 13.375 8.523438 C 13.390625 8.539062 13.410156 8.554688 13.433594 8.570312 C 13.449219 8.582031 13.46875 8.59375 13.488281 8.601562 L 13.492188 8.601562 L 13.507812 8.609375 C 13.519531 8.613281 13.535156 8.621094 13.550781 8.625 L 13.554688 8.628906 L 13.5625 8.628906 L 13.574219 8.632812 C 13.589844 8.640625 13.605469 8.644531 13.621094 8.648438 C 13.625 8.648438 13.628906 8.648438 13.636719 8.652344 C 13.644531 8.652344 13.648438 8.652344 13.652344 8.65625 C 13.667969 8.660156 13.683594 8.664062 13.703125 8.664062 C 13.714844 8.667969 13.726562 8.671875 13.738281 8.671875 C 13.753906 8.675781 13.773438 8.679688 13.792969 8.679688 C 13.804688 8.683594 13.816406 8.683594 13.828125 8.6875 C 13.851562 8.6875 13.875 8.691406 13.898438 8.691406 C 13.90625 8.695312 13.917969 8.695312 13.925781 8.695312 C 13.960938 8.699219 13.996094 8.699219 14.027344 8.703125 C 14.039062 8.703125 14.050781 8.703125 14.0625 8.703125 C 14.089844 8.703125 14.113281 8.703125 14.136719 8.707031 C 14.144531 8.707031 14.148438 8.707031 14.15625 8.707031 C 14.164062 8.761719 14.171875 8.820312 14.179688 8.882812 C 14.617188 9.085938 15.089844 9.207031 15.578125 9.273438 C 15.558594 9.144531 15.542969 9.023438 15.53125 8.910156 C 15.21875 8.863281 14.910156 8.789062 14.617188 8.683594 C 14.625 8.683594 14.628906 8.683594 14.636719 8.683594 C 14.789062 8.667969 14.941406 8.644531 15.089844 8.609375 L 15.09375 8.609375 C 15.101562 8.609375 15.109375 8.605469 15.117188 8.605469 C 15.148438 8.597656 15.183594 8.589844 15.214844 8.582031 L 15.226562 8.578125 C 15.238281 8.578125 15.246094 8.574219 15.253906 8.570312 C 15.308594 8.558594 15.359375 8.542969 15.410156 8.527344 C 15.425781 8.519531 15.441406 8.515625 15.453125 8.511719 C 15.460938 8.507812 15.46875 8.507812 15.476562 8.503906 C 15.8125 8.386719 16.042969 8.214844 16.03125 7.996094 L 16.03125 7.988281 " fill-opacity="1" fill-rule="nonzero"/><g clip-path="url(#clip-6)"><path fill="rgb(25.099182%, 67.449951%, 61.569214%)" d="M 21.273438 13.28125 C 20.996094 13.554688 20.6875 13.796875 20.367188 14.027344 C 19.839844 14.402344 19.257812 14.703125 18.664062 14.964844 C 17.359375 15.539062 15.917969 15.835938 14.488281 15.890625 C 13.328125 15.933594 12.136719 15.746094 11.027344 15.417969 C 10.402344 15.230469 9.804688 14.953125 9.324219 14.519531 C 8.941406 14.167969 8.652344 13.585938 8.734375 13.078125 C 8.847656 13.386719 9.207031 13.660156 9.441406 13.84375 C 9.984375 14.265625 10.671875 14.519531 11.328125 14.714844 C 12.515625 15.0625 13.863281 15.050781 15.082031 14.953125 C 16.699219 14.824219 18.242188 14.410156 19.660156 13.640625 C 20.207031 13.34375 20.730469 12.980469 21.171875 12.546875 C 21.257812 12.460938 21.402344 12.328125 21.472656 12.191406 C 21.59375 12.566406 21.546875 13.003906 21.273438 13.28125 Z M 21.183594 21.332031 C 21.171875 21.808594 21.15625 22.285156 21.132812 22.761719 C 21.101562 23.417969 21.128906 24.035156 20.46875 24.414062 C 20.453125 24.421875 20.445312 24.4375 20.445312 24.453125 C 20.453125 25.074219 20.210938 25.378906 19.664062 25.675781 C 19.074219 25.996094 18.445312 26.195312 17.777344 26.300781 C 16.90625 26.441406 13.519531 27.230469 13.707031 25.558594 C 13.710938 25.542969 13.691406 25.519531 13.675781 25.515625 C 12.394531 25.300781 12.09375 23.867188 11.777344 22.847656 C 11.429688 21.722656 11.097656 20.597656 10.765625 19.472656 C 10.285156 17.855469 9.8125 16.234375 9.34375 14.613281 C 9.546875 14.808594 9.773438 14.972656 9.980469 15.089844 C 11.273438 15.808594 13.019531 16.011719 14.488281 15.980469 C 16.234375 15.941406 17.984375 15.457031 19.519531 14.652344 C 20 14.402344 20.726562 14.011719 21.183594 13.558594 C 21.203125 14.992188 21.210938 16.429688 21.214844 17.863281 C 21.214844 19.019531 21.207031 20.175781 21.183594 21.332031 Z M 9.09375 12.480469 C 9.402344 13.53125 10.601562 13.890625 11.566406 14.128906 C 13.054688 14.488281 14.65625 14.441406 16.160156 14.207031 C 17.140625 14.054688 18.042969 13.75 18.933594 13.332031 C 19.71875 12.96875 20.710938 12.460938 21.105469 11.65625 C 21.242188 11.757812 21.347656 11.898438 21.421875 12.058594 C 21.40625 12.261719 21.089844 12.5 20.957031 12.625 C 20.511719 13.042969 19.976562 13.363281 19.4375 13.65625 C 18.148438 14.355469 16.726562 14.691406 15.265625 14.84375 C 14.257812 14.953125 13.277344 14.902344 12.273438 14.8125 C 11.617188 14.753906 10.96875 14.53125 10.375 14.273438 C 9.941406 14.085938 8.765625 13.496094 8.789062 12.886719 C 8.847656 12.738281 8.945312 12.597656 9.09375 12.480469 Z M 21.136719 11.566406 C 20.734375 10.023438 20.136719 8.816406 18.742188 7.921875 C 17.730469 7.273438 16.503906 6.976562 15.292969 6.960938 C 15.285156 6.960938 15.277344 6.960938 15.269531 6.960938 C 15.261719 6.960938 15.257812 6.960938 15.25 6.960938 C 15.234375 6.875 15.222656 6.792969 15.207031 6.707031 C 14.699219 6.574219 14.214844 6.371094 13.789062 6.078125 C 13.832031 6.238281 13.867188 6.40625 13.894531 6.570312 C 14.320312 6.808594 14.789062 6.976562 15.269531 7.089844 C 15.265625 7.074219 15.265625 7.058594 15.261719 7.042969 C 15.273438 7.042969 15.28125 7.042969 15.292969 7.042969 C 16.433594 7.050781 17.570312 7.359375 18.558594 7.917969 C 20.015625 8.742188 20.644531 10.046875 21.042969 11.582031 C 20.699219 12.3125 19.859375 12.761719 19.160156 13.125 C 18.496094 13.464844 17.777344 13.773438 17.046875 13.941406 C 15.625 14.269531 14.160156 14.371094 12.710938 14.226562 C 11.496094 14.109375 9.515625 13.773438 9.164062 12.402344 C 9.207031 11.574219 9.441406 10.804688 9.824219 10.125 L 9.828125 10.113281 C 9.863281 10.050781 9.902344 9.984375 9.941406 9.925781 C 9.945312 9.917969 9.949219 9.910156 9.953125 9.902344 C 9.992188 9.84375 10.027344 9.785156 10.066406 9.730469 C 10.074219 9.71875 10.082031 9.707031 10.089844 9.695312 C 10.125 9.644531 10.160156 9.59375 10.199219 9.542969 C 10.207031 9.527344 10.21875 9.511719 10.230469 9.496094 C 10.265625 9.453125 10.300781 9.40625 10.335938 9.359375 C 10.351562 9.34375 10.367188 9.324219 10.382812 9.304688 C 10.414062 9.265625 10.449219 9.226562 10.484375 9.183594 C 10.503906 9.164062 10.523438 9.144531 10.539062 9.121094 C 10.574219 9.085938 10.605469 9.050781 10.636719 9.015625 C 10.660156 8.992188 10.683594 8.96875 10.707031 8.945312 C 10.734375 8.914062 10.765625 8.882812 10.796875 8.851562 C 10.824219 8.824219 10.851562 8.800781 10.878906 8.777344 C 10.90625 8.75 10.933594 8.722656 10.964844 8.695312 C 10.996094 8.667969 11.027344 8.640625 11.054688 8.613281 C 11.082031 8.589844 11.109375 8.566406 11.136719 8.542969 C 11.171875 8.515625 11.207031 8.484375 11.242188 8.457031 C 11.265625 8.4375 11.289062 8.417969 11.3125 8.398438 C 11.351562 8.367188 11.390625 8.339844 11.433594 8.308594 C 11.453125 8.292969 11.476562 8.277344 11.496094 8.261719 C 11.539062 8.230469 11.582031 8.199219 11.628906 8.167969 C 11.648438 8.15625 11.667969 8.144531 11.683594 8.128906 C 11.734375 8.097656 11.78125 8.066406 11.828125 8.039062 C 11.84375 8.027344 11.863281 8.015625 11.878906 8.007812 C 11.929688 7.972656 11.980469 7.941406 12.035156 7.914062 C 12.046875 7.90625 12.0625 7.898438 12.074219 7.890625 C 12.132812 7.855469 12.1875 7.828125 12.246094 7.796875 C 12.253906 7.789062 12.265625 7.785156 12.277344 7.777344 C 12.335938 7.746094 12.398438 7.71875 12.460938 7.6875 C 12.46875 7.683594 12.476562 7.679688 12.484375 7.675781 C 12.546875 7.644531 12.613281 7.617188 12.679688 7.585938 C 12.683594 7.585938 12.6875 7.582031 12.691406 7.582031 C 12.761719 7.550781 12.832031 7.523438 12.898438 7.496094 L 12.90625 7.492188 C 13.199219 7.378906 13.503906 7.28125 13.8125 7.210938 C 13.871094 7.195312 13.929688 7.183594 13.988281 7.171875 L 13.980469 7.125 C 13.980469 7.105469 13.976562 7.085938 13.972656 7.066406 C 13.910156 7.078125 13.847656 7.09375 13.785156 7.105469 L 13.777344 7.109375 C 13.710938 7.121094 13.648438 7.136719 13.585938 7.15625 C 13.570312 7.160156 13.554688 7.164062 13.539062 7.167969 C 13.476562 7.183594 13.417969 7.199219 13.355469 7.21875 C 13.339844 7.222656 13.320312 7.230469 13.300781 7.234375 C 13.242188 7.253906 13.1875 7.269531 13.128906 7.289062 C 13.109375 7.296875 13.089844 7.304688 13.070312 7.3125 C 13.015625 7.332031 12.960938 7.351562 12.90625 7.371094 C 12.882812 7.378906 12.863281 7.390625 12.839844 7.398438 C 12.789062 7.417969 12.738281 7.441406 12.6875 7.460938 C 12.664062 7.472656 12.636719 7.480469 12.613281 7.492188 C 12.566406 7.515625 12.515625 7.535156 12.46875 7.558594 C 12.445312 7.570312 12.417969 7.582031 12.394531 7.597656 C 12.347656 7.617188 12.300781 7.640625 12.257812 7.664062 C 12.230469 7.679688 12.203125 7.691406 12.175781 7.707031 C 12.132812 7.730469 12.089844 7.753906 12.046875 7.78125 C 12.019531 7.796875 11.992188 7.8125 11.964844 7.828125 C 11.925781 7.851562 11.882812 7.875 11.84375 7.902344 C 11.816406 7.917969 11.785156 7.9375 11.757812 7.957031 C 11.71875 7.980469 11.683594 8.003906 11.644531 8.03125 C 11.613281 8.050781 11.585938 8.070312 11.558594 8.089844 C 11.519531 8.117188 11.484375 8.140625 11.449219 8.167969 C 11.417969 8.191406 11.390625 8.210938 11.359375 8.234375 C 11.328125 8.261719 11.292969 8.285156 11.261719 8.3125 C 11.230469 8.335938 11.199219 8.359375 11.171875 8.382812 C 11.140625 8.410156 11.109375 8.4375 11.078125 8.464844 C 11.046875 8.488281 11.015625 8.515625 10.988281 8.542969 C 10.957031 8.570312 10.929688 8.59375 10.898438 8.621094 C 10.867188 8.648438 10.839844 8.679688 10.808594 8.707031 C 10.78125 8.734375 10.753906 8.761719 10.726562 8.785156 C 10.699219 8.816406 10.667969 8.847656 10.640625 8.878906 C 10.613281 8.90625 10.589844 8.929688 10.5625 8.957031 C 10.535156 8.992188 10.503906 9.023438 10.476562 9.058594 C 10.453125 9.082031 10.429688 9.109375 10.40625 9.136719 C 10.375 9.171875 10.347656 9.207031 10.320312 9.242188 C 10.296875 9.265625 10.277344 9.292969 10.257812 9.320312 C 10.226562 9.355469 10.199219 9.394531 10.167969 9.433594 C 10.152344 9.457031 10.132812 9.484375 10.113281 9.507812 C 10.085938 9.546875 10.054688 9.589844 10.027344 9.628906 C 10.011719 9.652344 9.996094 9.679688 9.976562 9.703125 C 9.949219 9.746094 9.921875 9.789062 9.894531 9.832031 C 9.878906 9.855469 9.867188 9.878906 9.851562 9.902344 C 9.824219 9.949219 9.796875 9.996094 9.769531 10.042969 C 9.757812 10.066406 9.746094 10.085938 9.734375 10.105469 C 9.707031 10.15625 9.679688 10.210938 9.652344 10.261719 C 9.644531 10.28125 9.632812 10.296875 9.625 10.316406 C 9.59375 10.375 9.570312 10.429688 9.542969 10.488281 C 9.535156 10.503906 9.527344 10.515625 9.523438 10.53125 C 9.496094 10.59375 9.46875 10.660156 9.441406 10.726562 C 9.4375 10.734375 9.433594 10.742188 9.429688 10.75 C 9.230469 11.265625 9.105469 11.8125 9.074219 12.382812 C 8.242188 12.996094 8.628906 13.882812 9.242188 14.515625 C 9.230469 14.523438 9.222656 14.539062 9.230469 14.558594 C 10.128906 17.667969 10.992188 20.800781 12.011719 23.878906 C 12.140625 24.277344 12.3125 24.621094 12.574219 24.953125 C 12.710938 25.125 12.878906 25.261719 13.058594 25.390625 C 13.40625 25.632812 13.5625 25.53125 13.613281 26.003906 C 13.734375 27.164062 16.460938 26.597656 17.136719 26.496094 C 17.914062 26.378906 18.636719 26.242188 19.355469 25.925781 C 19.859375 25.699219 20.421875 25.4375 20.542969 24.867188 C 20.609375 24.558594 20.488281 24.53125 20.796875 24.308594 C 20.90625 24.230469 21.027344 24.125 21.074219 23.996094 C 21.199219 23.628906 21.203125 23.238281 21.222656 22.855469 C 21.394531 19.734375 21.320312 16.589844 21.273438 13.464844 C 21.347656 13.382812 21.410156 13.300781 21.460938 13.21875 C 21.78125 12.683594 21.640625 11.917969 21.136719 11.566406 " fill-opacity="1" fill-rule="nonzero"/></g><path fill="rgb(25.099182%, 67.449951%, 61.569214%)" d="M 20.199219 24.59375 C 18.9375 25.28125 17.601562 25.511719 16.171875 25.601562 C 15.410156 25.652344 14.59375 25.664062 13.839844 25.515625 C 13.78125 25.503906 13.753906 25.59375 13.8125 25.601562 C 14.65625 25.765625 15.550781 25.730469 16.402344 25.679688 C 17.757812 25.59375 19.054688 25.320312 20.246094 24.671875 C 20.300781 24.644531 20.253906 24.566406 20.199219 24.59375 " fill-opacity="1" fill-rule="nonzero"/><path fill="rgb(25.099182%, 67.449951%, 61.569214%)" d="M 9.078125 13.789062 C 9.085938 13.949219 9.15625 14.097656 9.183594 14.25 C 9.195312 14.308594 9.285156 14.285156 9.273438 14.226562 C 9.246094 14.082031 9.179688 13.941406 9.171875 13.789062 C 9.167969 13.734375 9.074219 13.734375 9.078125 13.789062 " fill-opacity="1" fill-rule="nonzero"/><path fill="rgb(25.099182%, 67.449951%, 61.569214%)" d="M 9.671875 14.140625 C 9.667969 14.082031 9.574219 14.082031 9.578125 14.140625 C 9.585938 14.3125 9.65625 14.472656 9.691406 14.644531 C 9.703125 14.699219 9.792969 14.675781 9.78125 14.621094 C 9.746094 14.457031 9.679688 14.304688 9.671875 14.140625 " fill-opacity="1" fill-rule="nonzero"/><path fill="rgb(25.099182%, 67.449951%, 61.569214%)" d="M 10.324219 14.519531 C 10.320312 14.675781 10.371094 14.824219 10.398438 14.972656 C 10.410156 15.03125 10.5 15.007812 10.488281 14.949219 C 10.460938 14.808594 10.414062 14.667969 10.414062 14.519531 C 10.414062 14.460938 10.324219 14.460938 10.324219 14.519531 " fill-opacity="1" fill-rule="nonzero"/><path fill="rgb(25.099182%, 67.449951%, 61.569214%)" d="M 11.066406 14.828125 C 11.070312 14.980469 11.09375 15.128906 11.101562 15.277344 C 11.109375 15.335938 11.199219 15.335938 11.195312 15.277344 C 11.183594 15.128906 11.164062 14.980469 11.15625 14.828125 C 11.15625 14.769531 11.0625 14.769531 11.066406 14.828125 " fill-opacity="1" fill-rule="nonzero"/><path fill="rgb(25.099182%, 67.449951%, 61.569214%)" d="M 12.355469 15.089844 C 12.367188 15.035156 12.28125 15.011719 12.265625 15.066406 C 12.230469 15.203125 12.25 15.347656 12.289062 15.484375 C 12.304688 15.539062 12.390625 15.515625 12.378906 15.460938 C 12.34375 15.339844 12.324219 15.214844 12.355469 15.089844 " fill-opacity="1" fill-rule="nonzero"/><path fill="rgb(25.099182%, 67.449951%, 61.569214%)" d="M 12.839844 15.125 C 12.855469 15.257812 12.863281 15.390625 12.886719 15.523438 C 12.894531 15.582031 12.984375 15.554688 12.976562 15.5 C 12.953125 15.375 12.949219 15.25 12.933594 15.125 C 12.925781 15.070312 12.832031 15.066406 12.839844 15.125 " fill-opacity="1" fill-rule="nonzero"/><path fill="rgb(25.099182%, 67.449951%, 61.569214%)" d="M 13.71875 15.210938 C 13.722656 15.351562 13.738281 15.496094 13.757812 15.636719 C 13.761719 15.695312 13.855469 15.695312 13.847656 15.636719 C 13.832031 15.496094 13.816406 15.351562 13.8125 15.210938 C 13.808594 15.152344 13.714844 15.152344 13.71875 15.210938 " fill-opacity="1" fill-rule="nonzero"/><path fill="rgb(25.099182%, 67.449951%, 61.569214%)" d="M 14.492188 15.171875 C 14.523438 15.324219 14.523438 15.480469 14.546875 15.636719 C 14.554688 15.695312 14.644531 15.667969 14.636719 15.613281 C 14.613281 15.457031 14.613281 15.300781 14.582031 15.148438 C 14.570312 15.089844 14.480469 15.117188 14.492188 15.171875 " fill-opacity="1" fill-rule="nonzero"/><path fill="rgb(25.099182%, 67.449951%, 61.569214%)" d="M 16.15625 15.015625 C 16.164062 14.960938 16.070312 14.960938 16.066406 15.015625 C 16.054688 15.117188 16.082031 15.210938 16.085938 15.308594 C 16.085938 15.367188 16.179688 15.367188 16.179688 15.308594 C 16.175781 15.210938 16.148438 15.117188 16.15625 15.015625 " fill-opacity="1" fill-rule="nonzero"/><path fill="rgb(25.099182%, 67.449951%, 61.569214%)" d="M 15.308594 15.136719 C 15.304688 15.257812 15.335938 15.375 15.355469 15.492188 C 15.363281 15.550781 15.453125 15.527344 15.441406 15.46875 C 15.425781 15.359375 15.398438 15.25 15.402344 15.136719 C 15.402344 15.078125 15.308594 15.082031 15.308594 15.136719 " fill-opacity="1" fill-rule="nonzero"/><path fill="rgb(25.099182%, 67.449951%, 61.569214%)" d="M 17.078125 14.871094 C 17.085938 14.949219 17.089844 15.03125 17.089844 15.113281 C 17.09375 15.171875 17.183594 15.171875 17.183594 15.113281 C 17.183594 15.03125 17.179688 14.949219 17.171875 14.871094 C 17.164062 14.8125 17.074219 14.8125 17.078125 14.871094 " fill-opacity="1" fill-rule="nonzero"/><path fill="rgb(25.099182%, 67.449951%, 61.569214%)" d="M 18 14.539062 C 18.003906 14.652344 18.011719 14.765625 18.015625 14.882812 C 18.015625 14.9375 18.109375 14.9375 18.109375 14.882812 C 18.105469 14.765625 18.097656 14.652344 18.09375 14.539062 C 18.09375 14.480469 18 14.480469 18 14.539062 " fill-opacity="1" fill-rule="nonzero"/><path fill="rgb(25.099182%, 67.449951%, 61.569214%)" d="M 18.820312 14.285156 C 18.824219 14.371094 18.824219 14.453125 18.828125 14.539062 C 18.828125 14.59375 18.921875 14.59375 18.917969 14.539062 C 18.917969 14.453125 18.914062 14.371094 18.914062 14.285156 C 18.914062 14.230469 18.820312 14.230469 18.820312 14.285156 " fill-opacity="1" fill-rule="nonzero"/><path fill="rgb(25.099182%, 67.449951%, 61.569214%)" d="M 19.691406 13.878906 C 19.667969 13.976562 19.683594 14.078125 19.675781 14.179688 C 19.667969 14.234375 19.761719 14.234375 19.765625 14.179688 C 19.777344 14.085938 19.757812 13.992188 19.78125 13.902344 C 19.796875 13.847656 19.707031 13.824219 19.691406 13.878906 " fill-opacity="1" fill-rule="nonzero"/><path fill="rgb(25.099182%, 67.449951%, 61.569214%)" d="M 20.308594 13.464844 C 20.3125 13.558594 20.320312 13.65625 20.320312 13.75 C 20.324219 13.808594 20.414062 13.808594 20.414062 13.75 C 20.410156 13.65625 20.402344 13.558594 20.402344 13.464844 C 20.398438 13.40625 20.308594 13.40625 20.308594 13.464844 " fill-opacity="1" fill-rule="nonzero"/><g clip-path="url(#clip-7)"><path fill="rgb(25.099182%, 67.449951%, 61.569214%)" d="M 21.171875 12.914062 C 21.175781 12.855469 21.085938 12.855469 21.078125 12.914062 C 21.070312 13.023438 21.082031 13.132812 21.085938 13.242188 C 21.085938 13.300781 21.179688 13.300781 21.179688 13.242188 C 21.175781 13.132812 21.160156 13.023438 21.171875 12.914062 " fill-opacity="1" fill-rule="nonzero"/></g><path fill="rgb(25.099182%, 67.449951%, 61.569214%)" d="M 11.757812 15.042969 C 11.75 14.984375 11.660156 15.007812 11.667969 15.066406 C 11.683594 15.171875 11.703125 15.277344 11.726562 15.378906 C 11.738281 15.4375 11.828125 15.414062 11.816406 15.355469 C 11.792969 15.25 11.773438 15.148438 11.757812 15.042969 " fill-opacity="1" fill-rule="nonzero"/><path fill="rgb(25.099182%, 67.449951%, 61.569214%)" d="M 14.007812 7.351562 C 14.011719 7.421875 14.019531 7.503906 14.027344 7.597656 C 14.46875 7.855469 14.941406 8.050781 15.433594 8.164062 C 15.414062 7.992188 15.394531 7.863281 15.382812 7.789062 C 14.886719 7.65625 14.414062 7.429688 13.984375 7.148438 L 14.007812 7.351562 " fill-opacity="1" fill-rule="nonzero"/><g clip-path="url(#clip-8)"><path fill="rgb(25.099182%, 67.449951%, 61.569214%)" d="M 14.371094 25.914062 C 14.371094 26.023438 14.375 26.128906 14.378906 26.238281 C 14.378906 26.296875 14.46875 26.296875 14.46875 26.238281 C 14.46875 26.128906 14.464844 26.023438 14.464844 25.914062 C 14.460938 25.855469 14.371094 25.855469 14.371094 25.914062 " fill-opacity="1" fill-rule="nonzero"/></g><g clip-path="url(#clip-9)"><path fill="rgb(25.099182%, 67.449951%, 61.569214%)" d="M 15.203125 25.921875 C 15.210938 26.050781 15.222656 26.183594 15.222656 26.3125 C 15.222656 26.371094 15.316406 26.371094 15.316406 26.3125 C 15.316406 26.183594 15.304688 26.050781 15.296875 25.921875 C 15.292969 25.863281 15.199219 25.863281 15.203125 25.921875 " fill-opacity="1" fill-rule="nonzero"/></g><g clip-path="url(#clip-10)"><path fill="rgb(25.099182%, 67.449951%, 61.569214%)" d="M 16.183594 25.847656 C 16.179688 25.96875 16.214844 26.089844 16.21875 26.214844 C 16.21875 26.273438 16.308594 26.273438 16.308594 26.214844 C 16.304688 26.089844 16.273438 25.96875 16.277344 25.847656 C 16.277344 25.789062 16.1875 25.789062 16.183594 25.847656 " fill-opacity="1" fill-rule="nonzero"/></g><g clip-path="url(#clip-11)"><path fill="rgb(25.099182%, 67.449951%, 61.569214%)" d="M 17.503906 25.75 C 17.519531 25.875 17.542969 26 17.566406 26.128906 C 17.574219 26.183594 17.664062 26.160156 17.652344 26.105469 C 17.636719 25.984375 17.609375 25.867188 17.597656 25.75 C 17.589844 25.691406 17.5 25.691406 17.503906 25.75 " fill-opacity="1" fill-rule="nonzero"/></g><path fill="rgb(25.099182%, 67.449951%, 61.569214%)" d="M 18.753906 25.429688 C 18.757812 25.570312 18.789062 25.707031 18.808594 25.847656 C 18.816406 25.90625 18.90625 25.878906 18.898438 25.824219 C 18.878906 25.691406 18.851562 25.5625 18.847656 25.429688 C 18.847656 25.371094 18.753906 25.371094 18.753906 25.429688 " fill-opacity="1" fill-rule="nonzero"/><path fill="rgb(25.099182%, 67.449951%, 61.569214%)" d="M 19.640625 25.09375 C 19.640625 25.214844 19.65625 25.335938 19.660156 25.457031 C 19.660156 25.511719 19.753906 25.511719 19.75 25.457031 C 19.75 25.335938 19.734375 25.214844 19.730469 25.09375 C 19.730469 25.035156 19.640625 25.035156 19.640625 25.09375 " fill-opacity="1" fill-rule="nonzero"/><path fill="rgb(25.099182%, 67.449951%, 61.569214%)" d="M 13.417969 5.300781 C 13.515625 5.421875 13.597656 5.554688 13.660156 5.703125 C 14.113281 5.761719 14.578125 5.753906 15.03125 5.683594 C 15.015625 5.59375 15 5.503906 14.980469 5.414062 C 14.976562 5.390625 14.96875 5.359375 14.957031 5.332031 C 14.445312 5.410156 13.921875 5.402344 13.417969 5.300781 " fill-opacity="1" fill-rule="nonzero"/></svg>