<?xml version="1.0" encoding="UTF-8"?><svg xmlns="http://www.w3.org/2000/svg" xmlns:xlink="http://www.w3.org/1999/xlink" contentScriptType="text/ecmascript" width="30" zoomAndPan="magnify" contentStyleType="text/css" viewBox="0 0 30 30.000001" height="30.000001" preserveAspectRatio="xMidYMid meet" version="1.0"><defs><clipPath id="clip-0"><path d="M 9 4.683594 L 17 4.683594 L 17 6 L 9 6 Z M 9 4.683594 " clip-rule="nonzero"/></clipPath><clipPath id="clip-1"><path d="M 10 4.683594 L 15 4.683594 L 15 6 L 10 6 Z M 10 4.683594 " clip-rule="nonzero"/></clipPath><clipPath id="clip-2"><path d="M 24 12 L 28.398438 12 L 28.398438 17 L 24 17 Z M 24 12 " clip-rule="nonzero"/></clipPath><clipPath id="clip-3"><path d="M 25 12 L 28.398438 12 L 28.398438 14 L 25 14 Z M 25 12 " clip-rule="nonzero"/></clipPath><clipPath id="clip-4"><path d="M 1.542969 16 L 27 16 L 27 21.378906 L 1.542969 21.378906 Z M 1.542969 16 " clip-rule="nonzero"/></clipPath><clipPath id="clip-5"><path d="M 1.542969 16 L 27 16 L 27 21 L 1.542969 21 Z M 1.542969 16 " clip-rule="nonzero"/></clipPath></defs><path fill="rgb(68.238831%, 59.21936%, 44.709778%)" d="M 16.296875 9.871094 C 16.296875 10.160156 14.765625 10.390625 12.875 10.390625 C 10.988281 10.390625 9.457031 10.160156 9.457031 9.871094 C 9.457031 9.585938 10.988281 9.351562 12.875 9.351562 C 14.765625 9.351562 16.296875 9.585938 16.296875 9.871094 " fill-opacity="1" fill-rule="nonzero"/><path fill="rgb(89.019775%, 57.649231%, 44.309998%)" d="M 16.476562 6.453125 L 9.199219 6.453125 L 10.5 16.738281 L 10.5 16.757812 L 10.503906 16.757812 C 10.546875 17.078125 11.59375 17.335938 12.882812 17.335938 C 14.199219 17.335938 15.265625 17.066406 15.265625 16.738281 L 15.265625 16.730469 L 16.476562 6.453125 " fill-opacity="1" fill-rule="nonzero"/><path fill="rgb(89.7995%, 69.799805%, 56.469727%)" d="M 12.355469 16.25 C 12.238281 15.585938 12.125 14.921875 12.015625 14.257812 C 11.644531 11.972656 11.230469 9.683594 10.957031 7.382812 L 9.824219 7.445312 L 10.765625 15.816406 C 11.195312 16.132812 11.792969 16.316406 12.355469 16.25 " fill-opacity="1" fill-rule="nonzero"/><path fill="rgb(78.039551%, 50.588989%, 38.42926%)" d="M 9.945312 12.351562 L 10.113281 13.703125 C 11.097656 14.125 12.222656 14.140625 13.277344 14.097656 C 13.878906 14.074219 14.539062 14.066406 15.117188 13.882812 C 15.304688 13.820312 15.46875 13.726562 15.632812 13.625 L 15.78125 12.351562 L 9.945312 12.351562 " fill-opacity="1" fill-rule="nonzero"/><path fill="rgb(79.60968%, 51.368713%, 39.608765%)" d="M 15.871094 11.578125 C 15.78125 12 15.667969 12.417969 15.527344 12.832031 C 15.15625 13.925781 14.589844 15.128906 13.695312 15.886719 C 12.65625 16.757812 11.617188 16.851562 10.464844 16.480469 L 10.5 16.738281 L 10.5 16.757812 L 10.503906 16.757812 C 10.546875 17.078125 11.59375 17.335938 12.882812 17.335938 C 14.199219 17.335938 15.265625 17.066406 15.265625 16.738281 L 15.265625 16.730469 L 15.871094 11.578125 " fill-opacity="1" fill-rule="nonzero"/><path fill="rgb(98.429871%, 86.268616%, 65.489197%)" d="M 16.296875 9.871094 C 15.636719 10.167969 14.367188 10.371094 12.910156 10.371094 C 11.398438 10.371094 10.089844 10.152344 9.457031 9.835938 L 9.882812 13.195312 L 9.882812 13.21875 L 9.886719 13.21875 C 9.941406 13.625 11.265625 13.949219 12.894531 13.949219 C 14.558594 13.949219 15.90625 13.613281 15.90625 13.195312 L 15.90625 13.1875 L 16.296875 9.871094 " fill-opacity="1" fill-rule="nonzero"/><path fill="rgb(32.548523%, 15.689087%, 9.799194%)" d="M 17.03125 6.902344 L 16.136719 5.128906 L 9.703125 5.128906 L 8.671875 6.878906 C 8.601562 6.9375 8.566406 6.996094 8.566406 7.058594 C 8.566406 7.511719 10.476562 7.878906 12.835938 7.878906 C 15.195312 7.878906 17.109375 7.511719 17.109375 7.058594 C 17.109375 7.007812 17.082031 6.953125 17.03125 6.902344 " fill-opacity="1" fill-rule="nonzero"/><path fill="rgb(25.099182%, 11.369324%, 6.669617%)" d="M 17.023438 6.886719 C 16.621094 7.257812 14.898438 7.539062 12.835938 7.539062 C 10.785156 7.539062 9.070312 7.261719 8.660156 6.890625 C 8.597656 6.945312 8.566406 7.003906 8.566406 7.058594 C 8.566406 7.511719 10.476562 7.878906 12.835938 7.878906 C 15.195312 7.878906 17.109375 7.511719 17.109375 7.058594 C 17.109375 7.007812 17.082031 6.953125 17.03125 6.902344 L 17.023438 6.886719 " fill-opacity="1" fill-rule="nonzero"/><g clip-path="url(#clip-0)"><path fill="rgb(42.749023%, 20.779419%, 13.328552%)" d="M 16.15625 5.167969 C 16.15625 5.433594 14.707031 5.652344 12.925781 5.652344 C 11.140625 5.652344 9.695312 5.433594 9.695312 5.167969 C 9.695312 4.902344 11.140625 4.683594 12.925781 4.683594 C 14.707031 4.683594 16.15625 4.902344 16.15625 5.167969 " fill-opacity="1" fill-rule="nonzero"/></g><g clip-path="url(#clip-1)"><path fill="rgb(58.81958%, 29.40979%, 19.60907%)" d="M 12.171875 5.128906 C 12.171875 4.996094 12.699219 4.882812 13.472656 4.820312 C 13.296875 4.816406 13.113281 4.8125 12.925781 4.8125 C 11.5 4.8125 10.34375 4.972656 10.34375 5.167969 C 10.34375 5.363281 11.5 5.523438 12.925781 5.523438 C 13.390625 5.523438 13.828125 5.507812 14.207031 5.476562 C 13.042969 5.441406 12.171875 5.300781 12.171875 5.128906 " fill-opacity="1" fill-rule="nonzero"/></g><path fill="rgb(25.099182%, 11.369324%, 6.669617%)" d="M 9.179688 6.875 L 9.730469 5.839844 " fill-opacity="1" fill-rule="nonzero"/><path fill="rgb(25.099182%, 11.369324%, 6.669617%)" d="M 9.238281 6.90625 L 9.789062 5.871094 C 9.804688 5.839844 9.792969 5.800781 9.761719 5.78125 C 9.730469 5.765625 9.691406 5.777344 9.675781 5.808594 L 9.125 6.84375 C 9.109375 6.875 9.121094 6.914062 9.152344 6.929688 C 9.183594 6.949219 9.222656 6.9375 9.238281 6.90625 " fill-opacity="1" fill-rule="nonzero"/><path fill="rgb(25.099182%, 11.369324%, 6.669617%)" d="M 10.085938 7.027344 L 10.449219 5.960938 " fill-opacity="1" fill-rule="nonzero"/><path fill="rgb(25.099182%, 11.369324%, 6.669617%)" d="M 10.144531 7.046875 L 10.507812 5.980469 C 10.519531 5.945312 10.503906 5.910156 10.46875 5.898438 C 10.433594 5.886719 10.398438 5.90625 10.386719 5.9375 L 10.023438 7.007812 C 10.011719 7.039062 10.03125 7.078125 10.066406 7.089844 C 10.097656 7.097656 10.132812 7.082031 10.144531 7.046875 " fill-opacity="1" fill-rule="nonzero"/><path fill="rgb(25.099182%, 11.369324%, 6.669617%)" d="M 11.089844 7.171875 L 11.265625 6.0625 " fill-opacity="1" fill-rule="nonzero"/><path fill="rgb(25.099182%, 11.369324%, 6.669617%)" d="M 11.152344 7.179688 L 11.328125 6.070312 C 11.335938 6.035156 11.3125 6.003906 11.277344 6 C 11.242188 5.992188 11.207031 6.015625 11.203125 6.050781 L 11.027344 7.160156 C 11.023438 7.195312 11.046875 7.226562 11.082031 7.234375 C 11.117188 7.238281 11.148438 7.214844 11.152344 7.179688 " fill-opacity="1" fill-rule="nonzero"/><path fill="rgb(25.099182%, 11.369324%, 6.669617%)" d="M 12.121094 7.226562 L 12.171875 6.117188 " fill-opacity="1" fill-rule="nonzero"/><path fill="rgb(25.099182%, 11.369324%, 6.669617%)" d="M 12.183594 7.230469 L 12.238281 6.121094 C 12.238281 6.085938 12.210938 6.054688 12.175781 6.054688 C 12.140625 6.050781 12.109375 6.078125 12.109375 6.113281 L 12.054688 7.226562 C 12.054688 7.261719 12.082031 7.289062 12.117188 7.292969 C 12.152344 7.292969 12.183594 7.265625 12.183594 7.230469 " fill-opacity="1" fill-rule="nonzero"/><path fill="rgb(25.099182%, 11.369324%, 6.669617%)" d="M 16.476562 6.875 L 15.925781 5.839844 " fill-opacity="1" fill-rule="nonzero"/><path fill="rgb(25.099182%, 11.369324%, 6.669617%)" d="M 16.535156 6.84375 L 15.980469 5.808594 C 15.964844 5.777344 15.925781 5.765625 15.894531 5.78125 C 15.863281 5.800781 15.851562 5.839844 15.867188 5.871094 L 16.417969 6.90625 C 16.4375 6.9375 16.476562 6.949219 16.507812 6.929688 C 16.539062 6.914062 16.550781 6.875 16.535156 6.84375 " fill-opacity="1" fill-rule="nonzero"/><path fill="rgb(25.099182%, 11.369324%, 6.669617%)" d="M 15.503906 7.027344 L 15.140625 5.960938 " fill-opacity="1" fill-rule="nonzero"/><path fill="rgb(25.099182%, 11.369324%, 6.669617%)" d="M 15.566406 7.007812 L 15.203125 5.9375 C 15.191406 5.90625 15.15625 5.886719 15.121094 5.898438 C 15.085938 5.910156 15.070312 5.945312 15.082031 5.980469 L 15.445312 7.046875 C 15.457031 7.082031 15.492188 7.097656 15.527344 7.089844 C 15.558594 7.078125 15.578125 7.039062 15.566406 7.007812 " fill-opacity="1" fill-rule="nonzero"/><path fill="rgb(25.099182%, 11.369324%, 6.669617%)" d="M 14.625 7.171875 L 14.324219 6.0625 " fill-opacity="1" fill-rule="nonzero"/><path fill="rgb(25.099182%, 11.369324%, 6.669617%)" d="M 14.6875 7.152344 L 14.386719 6.046875 C 14.375 6.011719 14.339844 5.992188 14.308594 6 C 14.273438 6.007812 14.253906 6.042969 14.261719 6.078125 L 14.5625 7.1875 C 14.570312 7.222656 14.605469 7.242188 14.640625 7.230469 C 14.675781 7.222656 14.695312 7.1875 14.6875 7.152344 " fill-opacity="1" fill-rule="nonzero"/><path fill="rgb(25.099182%, 11.369324%, 6.669617%)" d="M 13.449219 7.226562 L 13.328125 6.117188 " fill-opacity="1" fill-rule="nonzero"/><path fill="rgb(25.099182%, 11.369324%, 6.669617%)" d="M 13.511719 7.222656 L 13.394531 6.109375 C 13.390625 6.074219 13.359375 6.050781 13.324219 6.054688 C 13.289062 6.058594 13.261719 6.089844 13.265625 6.125 L 13.382812 7.234375 C 13.386719 7.269531 13.417969 7.296875 13.453125 7.292969 C 13.488281 7.289062 13.515625 7.257812 13.511719 7.222656 " fill-opacity="1" fill-rule="nonzero"/><path fill="rgb(25.099182%, 11.369324%, 6.669617%)" d="M 12.644531 12.113281 C 12.957031 11.96875 13.238281 11.8125 13.371094 11.476562 C 13.394531 11.421875 13.410156 11.363281 13.425781 11.304688 C 13.167969 11.285156 12.824219 11.402344 12.511719 11.640625 C 12.101562 11.949219 11.878906 12.367188 11.949219 12.644531 C 12.074219 12.378906 12.34375 12.25 12.644531 12.113281 " fill-opacity="1" fill-rule="nonzero"/><path fill="rgb(25.099182%, 11.369324%, 6.669617%)" d="M 13.355469 11.859375 C 13.011719 12.257812 12.214844 12.304688 12.078125 12.835938 C 12.316406 13.011719 12.804688 12.914062 13.238281 12.585938 C 13.71875 12.222656 13.945312 11.71875 13.742188 11.457031 C 13.707031 11.410156 13.660156 11.371094 13.601562 11.347656 C 13.554688 11.535156 13.484375 11.710938 13.355469 11.859375 " fill-opacity="1" fill-rule="nonzero"/><g clip-path="url(#clip-2)"><path fill="rgb(87.838745%, 70.588684%, 65.098572%)" d="M 25.851562 13.554688 C 26.457031 12.945312 28.09375 12.429688 28.269531 13.695312 C 28.371094 14.417969 27.800781 15.042969 27.203125 15.363281 C 26.839844 15.554688 26.453125 15.640625 26.050781 15.695312 C 25.609375 15.753906 24.882812 15.675781 24.546875 16 C 24.347656 16.191406 24.042969 15.886719 24.242188 15.695312 C 24.613281 15.335938 24.917969 15.429688 25.402344 15.378906 C 26.097656 15.304688 26.789062 15.179688 27.28125 14.636719 C 27.664062 14.203125 27.757812 13.335938 26.976562 13.40625 C 26.585938 13.441406 26.171875 13.648438 25.898438 13.925781 C 25.703125 14.125 25.65625 13.753906 25.851562 13.554688 " fill-opacity="1" fill-rule="nonzero"/></g><path fill="rgb(74.119568%, 59.21936%, 54.899597%)" d="M 27.28125 14.636719 C 27.429688 14.46875 27.535156 14.230469 27.5625 14.011719 C 27.601562 14.277344 27.480469 14.617188 27.28125 14.839844 C 26.789062 15.382812 26.097656 15.507812 25.402344 15.582031 C 24.917969 15.632812 24.613281 15.542969 24.242188 15.898438 C 24.226562 15.914062 24.21875 15.925781 24.207031 15.941406 C 24.164062 15.867188 24.160156 15.773438 24.242188 15.695312 C 24.613281 15.335938 24.917969 15.429688 25.402344 15.378906 C 26.097656 15.304688 26.789062 15.179688 27.28125 14.636719 " fill-opacity="1" fill-rule="nonzero"/><g clip-path="url(#clip-3)"><path fill="rgb(74.119568%, 59.21936%, 54.899597%)" d="M 28.269531 13.898438 C 28.09375 12.632812 26.457031 13.148438 25.851562 13.757812 C 25.800781 13.8125 25.765625 13.878906 25.746094 13.945312 C 25.703125 13.863281 25.730469 13.675781 25.851562 13.554688 C 26.457031 12.945312 28.09375 12.429688 28.269531 13.695312 C 28.285156 13.789062 28.285156 13.882812 28.277344 13.972656 C 28.273438 13.945312 28.273438 13.921875 28.269531 13.898438 " fill-opacity="1" fill-rule="nonzero"/></g><path fill="rgb(87.838745%, 70.588684%, 65.098572%)" d="M 26.507812 12.484375 C 26.511719 12.53125 26.515625 12.582031 26.515625 12.628906 C 26.515625 14.023438 24.855469 17.023438 21.777344 17.023438 C 18.808594 17.023438 17.042969 14.023438 17.042969 12.628906 C 17.042969 12.582031 17.046875 12.53125 17.050781 12.484375 L 26.507812 12.484375 " fill-opacity="1" fill-rule="nonzero"/><path fill="rgb(99.609375%, 94.898987%, 93.728638%)" d="M 23.402344 15.585938 C 23.144531 15.453125 23.230469 15.078125 23.273438 14.84375 C 23.429688 13.996094 23.84375 13.210938 24.304688 12.484375 L 26.230469 12.484375 C 26.183594 12.960938 26.066406 13.425781 25.84375 13.859375 C 25.535156 14.460938 25.011719 15.234375 24.371094 15.515625 C 24.121094 15.625 23.664062 15.71875 23.402344 15.585938 " fill-opacity="1" fill-rule="nonzero"/><path fill="rgb(99.609375%, 94.898987%, 93.728638%)" d="M 21.171875 16.308594 C 20.835938 16.5625 20.382812 16.429688 20.042969 16.257812 C 18.675781 15.582031 17.886719 13.953125 17.535156 12.484375 L 20.574219 12.484375 C 20.710938 12.835938 20.835938 13.195312 20.976562 13.546875 C 21.175781 14.046875 21.410156 14.554688 21.492188 15.089844 C 21.554688 15.496094 21.53125 16.035156 21.171875 16.308594 " fill-opacity="1" fill-rule="nonzero"/><path fill="rgb(100%, 100%, 100%)" d="M 17.042969 12.527344 C 17.042969 12.828125 18.765625 13.628906 21.777344 13.628906 C 24.605469 13.628906 26.515625 12.785156 26.515625 12.527344 C 26.515625 12.273438 24.394531 11.628906 21.777344 11.628906 C 19.164062 11.628906 17.042969 12.1875 17.042969 12.527344 " fill-opacity="1" fill-rule="nonzero"/><path fill="rgb(98.039246%, 73.728943%, 66.668701%)" d="M 25.402344 12.785156 C 24.734375 12.546875 23.363281 12.273438 21.777344 12.273438 C 20.140625 12.273438 18.734375 12.527344 18.089844 12.777344 C 17.851562 12.6875 17.71875 12.597656 17.71875 12.527344 C 17.71875 12.234375 19.539062 11.757812 21.777344 11.757812 C 24.019531 11.757812 25.839844 12.308594 25.839844 12.527344 C 25.839844 12.59375 25.679688 12.6875 25.402344 12.785156 " fill-opacity="1" fill-rule="nonzero"/><path fill="rgb(43.528748%, 26.269531%, 13.729858%)" d="M 21.777344 12.273438 C 23.363281 12.273438 24.734375 12.546875 25.402344 12.785156 C 24.734375 13.023438 23.363281 13.300781 21.777344 13.300781 C 20.140625 13.300781 18.734375 13.027344 18.089844 12.777344 C 18.734375 12.527344 20.140625 12.273438 21.777344 12.273438 " fill-opacity="1" fill-rule="nonzero"/><path fill="rgb(58.81958%, 36.079407%, 19.60907%)" d="M 20.542969 12.320312 C 21.292969 12.320312 22.058594 12.332031 22.785156 12.546875 C 23.015625 12.613281 23.25 12.710938 23.449219 12.84375 C 23.644531 12.976562 23.71875 13.070312 23.664062 13.171875 C 23.101562 13.25 22.460938 13.300781 21.777344 13.300781 C 20.140625 13.300781 18.734375 13.027344 18.089844 12.777344 C 18.5625 12.59375 19.453125 12.40625 20.542969 12.320312 " fill-opacity="1" fill-rule="nonzero"/><path fill="rgb(44.709778%, 10.5896%, 9.799194%)" d="M 25.746094 14.761719 C 25.71875 14.800781 25.695312 14.839844 25.667969 14.878906 C 25.105469 15.058594 23.597656 15.472656 21.691406 15.472656 C 20.539062 15.472656 19.242188 15.320312 17.917969 14.871094 C 17.890625 14.832031 17.863281 14.792969 17.835938 14.75 C 21.515625 16.050781 25.035156 15 25.746094 14.761719 " fill-opacity="1" fill-rule="nonzero"/><path fill="rgb(97.648621%, 97.24884%, 58.81958%)" d="M 21.300781 12.164062 C 21.058594 11.769531 20.800781 11.113281 21.007812 10.664062 C 21.179688 10.296875 21.609375 10.140625 21.984375 9.984375 C 22.273438 9.867188 22.5625 9.726562 22.839844 9.578125 C 23.023438 9.472656 23.203125 9.339844 23.296875 9.148438 C 23.507812 8.726562 23.316406 8.144531 23.066406 7.78125 C 22.824219 7.433594 22.488281 7.21875 22.144531 6.980469 C 23.25 7.351562 24.515625 8.355469 24.765625 9.546875 C 24.832031 9.847656 24.792969 10.183594 24.597656 10.421875 C 24.394531 10.675781 24.058594 10.785156 23.738281 10.828125 C 23.0625 10.917969 22.089844 10.886719 21.761719 11.632812 C 21.554688 12.101562 21.785156 12.59375 21.976562 13.023438 C 21.710938 12.777344 21.488281 12.472656 21.300781 12.164062 " fill-opacity="1" fill-rule="nonzero"/><g clip-path="url(#clip-4)"><path fill="rgb(76.858521%, 67.449951%, 61.959839%)" d="M 13.929688 16.320312 C 7.394531 16.359375 1.863281 16.878906 1.734375 17.503906 C 1.578125 18.183594 6.917969 21.375 13.929688 21.378906 C 20.941406 21.375 26.277344 18.183594 26.125 17.503906 C 25.992188 16.878906 20.464844 16.359375 13.929688 16.320312 " fill-opacity="1" fill-rule="nonzero"/></g><g clip-path="url(#clip-5)"><path fill="rgb(98.81897%, 83.139038%, 74.508667%)" d="M 13.929688 16.230469 C 7.394531 16.265625 1.863281 16.789062 1.734375 17.414062 C 1.578125 18.09375 6.917969 20.5 13.929688 20.507812 C 20.941406 20.5 26.277344 18.09375 26.125 17.414062 C 25.992188 16.789062 20.464844 16.265625 13.929688 16.230469 " fill-opacity="1" fill-rule="nonzero"/></g><path fill="rgb(76.078796%, 74.899292%, 73.329163%)" d="M 20.613281 17.769531 C 21.59375 18.230469 22.613281 18.597656 23.652344 18.894531 C 25.269531 18.300781 26.191406 17.703125 26.125 17.414062 C 26.023438 16.925781 22.660156 16.503906 18.097656 16.324219 C 18.902344 16.859375 19.734375 17.355469 20.613281 17.769531 " fill-opacity="1" fill-rule="nonzero"/><path fill="rgb(76.078796%, 74.899292%, 73.329163%)" d="M 19.386719 18.691406 C 18.070312 18.019531 16.824219 17.164062 15.65625 16.25 C 15.089844 16.242188 14.515625 16.234375 13.929688 16.230469 C 12.601562 16.238281 11.316406 16.265625 10.105469 16.308594 C 10.324219 16.46875 10.546875 16.625 10.769531 16.777344 C 12.304688 17.835938 13.921875 18.804688 15.65625 19.496094 C 16.417969 19.800781 17.191406 20.042969 17.972656 20.238281 C 19.226562 20.074219 20.382812 19.84375 21.402344 19.582031 C 20.714844 19.324219 20.042969 19.027344 19.386719 18.691406 " fill-opacity="1" fill-rule="nonzero"/><path fill="rgb(76.078796%, 74.899292%, 73.329163%)" d="M 9.429688 17.507812 C 8.929688 17.152344 8.441406 16.785156 7.953125 16.410156 C 6.515625 16.496094 5.246094 16.605469 4.242188 16.730469 C 4.75 17.234375 5.28125 17.714844 5.839844 18.164062 C 6.773438 18.914062 7.789062 19.542969 8.851562 20.085938 C 10.386719 20.339844 12.097656 20.503906 13.929688 20.507812 C 14.132812 20.507812 14.335938 20.503906 14.539062 20.5 C 12.726562 19.703125 11.035156 18.660156 9.429688 17.507812 " fill-opacity="1" fill-rule="nonzero"/><path fill="rgb(77.249146%, 66.268921%, 62.348938%)" d="M 13.929688 16.804688 C 9.148438 16.832031 5.101562 17.210938 5.007812 17.667969 C 4.894531 18.167969 8.796875 19.929688 13.929688 19.933594 C 19.058594 19.929688 22.964844 18.167969 22.851562 17.667969 C 22.753906 17.210938 18.710938 16.832031 13.929688 16.804688 " fill-opacity="1" fill-rule="nonzero"/><path fill="rgb(65.489197%, 56.858826%, 54.119873%)" d="M 13.929688 17.035156 C 9.855469 17.058594 6.410156 17.382812 6.328125 17.773438 C 6.234375 18.199219 9.558594 19.699219 13.929688 19.703125 C 18.300781 19.699219 21.625 18.199219 21.53125 17.773438 C 21.449219 17.382812 18.003906 17.058594 13.929688 17.035156 " fill-opacity="1" fill-rule="nonzero"/><path fill="rgb(70.588684%, 27.449036%, 19.60907%)" d="M 15.1875 16.527344 L 14.574219 16.6875 L 14.527344 16.867188 L 9.78125 15.355469 C 9.398438 15.226562 8.988281 15.226562 8.605469 15.355469 L 3.839844 16.851562 L 3.816406 16.691406 L 3.199219 16.527344 C 3.199219 16.527344 3.242188 17.453125 3.636719 17.59375 L 8.53125 19.472656 C 8.960938 19.640625 9.429688 19.640625 9.859375 19.472656 L 14.75 17.59375 C 14.769531 17.585938 14.785156 17.574219 14.800781 17.5625 L 14.816406 17.554688 C 14.824219 17.546875 14.832031 17.542969 14.839844 17.535156 C 15.160156 17.300781 15.1875 16.527344 15.1875 16.527344 " fill-opacity="1" fill-rule="nonzero"/><path fill="rgb(81.17981%, 32.159424%, 23.139954%)" d="M 14.800781 17.5625 L 14.816406 17.554688 C 14.824219 17.546875 14.832031 17.542969 14.839844 17.535156 C 15.058594 17.375 15.140625 16.964844 15.171875 16.722656 C 14.863281 16.871094 14.523438 16.984375 14.226562 17.113281 C 13.699219 17.339844 13.15625 17.542969 12.613281 17.726562 C 12.289062 17.835938 11.960938 17.925781 11.636719 18.039062 C 11.4375 18.109375 11.003906 18.199219 10.960938 18.464844 C 10.941406 18.5625 10.984375 18.664062 11.042969 18.746094 C 11.261719 19.058594 11.691406 18.769531 11.976562 18.660156 C 12.367188 18.507812 12.757812 18.359375 13.148438 18.207031 C 13.683594 18.003906 14.21875 17.796875 14.75 17.59375 C 14.769531 17.585938 14.785156 17.574219 14.800781 17.5625 " fill-opacity="1" fill-rule="nonzero"/><path fill="rgb(82.749939%, 32.548523%, 23.529053%)" d="M 14.621094 16.765625 C 14.808594 16.683594 15.003906 16.621094 15.1875 16.535156 L 15.1875 16.527344 L 14.574219 16.6875 L 14.546875 16.800781 C 14.570312 16.789062 14.597656 16.777344 14.621094 16.765625 " fill-opacity="1" fill-rule="nonzero"/><path fill="rgb(59.21936%, 22.749329%, 16.079712%)" d="M 9.230469 15.261719 C 9.019531 15.257812 8.808594 15.289062 8.605469 15.355469 L 3.839844 16.851562 L 3.816406 16.691406 L 3.199219 16.527344 C 3.199219 16.527344 3.242188 17.453125 3.636719 17.59375 L 8.53125 19.472656 C 8.757812 19.5625 8.992188 19.601562 9.230469 19.597656 L 9.230469 15.261719 " fill-opacity="1" fill-rule="nonzero"/><path fill="rgb(69.018555%, 27.059937%, 19.219971%)" d="M 5.75 18.132812 C 5.59375 17.808594 5.25 17.621094 4.933594 17.480469 C 4.367188 17.226562 3.648438 17.09375 3.207031 16.621094 C 3.230469 16.859375 3.320312 17.480469 3.636719 17.59375 L 5.824219 18.433594 C 5.824219 18.347656 5.804688 18.25 5.75 18.132812 " fill-opacity="1" fill-rule="nonzero"/><path fill="rgb(96.078491%, 85.879517%, 49.409485%)" d="M 15 16.777344 L 9.886719 18.542969 C 9.4375 18.699219 8.949219 18.699219 8.5 18.542969 L 3.390625 16.777344 C 3.132812 16.6875 3.140625 16.320312 3.402344 16.242188 L 8.578125 14.671875 C 8.980469 14.550781 9.410156 14.550781 9.808594 14.671875 L 14.988281 16.242188 C 15.25 16.320312 15.257812 16.6875 15 16.777344 " fill-opacity="1" fill-rule="nonzero"/><path fill="rgb(88.238525%, 78.039551%, 57.649231%)" d="M 5.597656 15.574219 C 5.796875 15.519531 5.996094 15.464844 6.175781 15.402344 L 5.597656 15.574219 " fill-opacity="1" fill-rule="nonzero"/><path fill="rgb(95.689392%, 78.42865%, 49.01886%)" d="M 14.988281 16.242188 L 9.808594 14.671875 C 9.410156 14.550781 8.980469 14.550781 8.578125 14.671875 L 8.449219 14.714844 C 9.109375 15.164062 9.878906 15.625 9.945312 16.480469 C 10.042969 17.757812 8.417969 17.925781 7.484375 17.898438 C 7.082031 17.890625 6.675781 17.84375 6.273438 17.773438 L 8.5 18.542969 C 8.949219 18.699219 9.4375 18.699219 9.886719 18.542969 L 15 16.777344 C 15.257812 16.6875 15.25 16.320312 14.988281 16.242188 " fill-opacity="1" fill-rule="nonzero"/><path fill="rgb(88.238525%, 72.158813%, 45.098877%)" d="M 14.988281 16.242188 L 11.792969 15.273438 C 11.871094 15.359375 11.945312 15.449219 12.011719 15.542969 C 13.121094 17.136719 10.339844 18.199219 9.238281 18.5625 C 9.144531 18.59375 9.046875 18.617188 8.953125 18.644531 C 9.265625 18.683594 9.585938 18.648438 9.886719 18.542969 L 15 16.777344 C 15.257812 16.6875 15.25 16.320312 14.988281 16.242188 " fill-opacity="1" fill-rule="nonzero"/><path fill="rgb(94.898987%, 70.979309%, 46.669006%)" d="M 4.589844 16.121094 L 4.574219 16.121094 C 4.496094 16.121094 4.496094 16.242188 4.574219 16.242188 L 4.589844 16.242188 C 4.671875 16.242188 4.671875 16.121094 4.589844 16.121094 " fill-opacity="1" fill-rule="nonzero"/><path fill="rgb(94.898987%, 70.979309%, 46.669006%)" d="M 7.816406 17.65625 L 7.800781 17.65625 C 7.722656 17.65625 7.722656 17.777344 7.800781 17.777344 L 7.816406 17.777344 C 7.898438 17.777344 7.898438 17.65625 7.816406 17.65625 " fill-opacity="1" fill-rule="nonzero"/><path fill="rgb(94.898987%, 70.979309%, 46.669006%)" d="M 8.429688 17.71875 L 8.414062 17.71875 C 8.335938 17.71875 8.335938 17.839844 8.414062 17.839844 L 8.429688 17.839844 C 8.511719 17.839844 8.511719 17.71875 8.429688 17.71875 " fill-opacity="1" fill-rule="nonzero"/><path fill="rgb(94.898987%, 70.979309%, 46.669006%)" d="M 4.378906 16.847656 C 4.457031 16.847656 4.457031 16.722656 4.378906 16.722656 C 4.296875 16.722656 4.296875 16.847656 4.378906 16.847656 " fill-opacity="1" fill-rule="nonzero"/><path fill="rgb(94.898987%, 70.979309%, 46.669006%)" d="M 3.832031 16.566406 C 3.910156 16.566406 3.910156 16.445312 3.832031 16.445312 C 3.753906 16.445312 3.753906 16.566406 3.832031 16.566406 " fill-opacity="1" fill-rule="nonzero"/><path fill="rgb(94.898987%, 70.979309%, 46.669006%)" d="M 5.195312 16.503906 C 5.273438 16.503906 5.273438 16.382812 5.195312 16.382812 C 5.113281 16.382812 5.113281 16.503906 5.195312 16.503906 " fill-opacity="1" fill-rule="nonzero"/><path fill="rgb(94.898987%, 70.979309%, 46.669006%)" d="M 5.675781 16.847656 C 5.753906 16.847656 5.753906 16.722656 5.675781 16.722656 C 5.597656 16.722656 5.597656 16.847656 5.675781 16.847656 " fill-opacity="1" fill-rule="nonzero"/><path fill="rgb(94.898987%, 70.979309%, 46.669006%)" d="M 5.675781 17.355469 C 5.753906 17.355469 5.753906 17.230469 5.675781 17.230469 C 5.597656 17.230469 5.597656 17.355469 5.675781 17.355469 " fill-opacity="1" fill-rule="nonzero"/><path fill="rgb(94.898987%, 70.979309%, 46.669006%)" d="M 5.074219 17.101562 C 5.152344 17.101562 5.152344 16.976562 5.074219 16.976562 C 4.996094 16.976562 4.996094 17.101562 5.074219 17.101562 " fill-opacity="1" fill-rule="nonzero"/><path fill="rgb(94.898987%, 70.979309%, 46.669006%)" d="M 6.191406 16.609375 L 6.175781 16.625 C 6.117188 16.683594 6.203125 16.769531 6.261719 16.714844 L 6.277344 16.695312 C 6.335938 16.640625 6.246094 16.554688 6.191406 16.609375 " fill-opacity="1" fill-rule="nonzero"/><path fill="rgb(94.898987%, 70.979309%, 46.669006%)" d="M 5.699219 16.191406 L 5.683594 16.207031 C 5.625 16.265625 5.714844 16.351562 5.769531 16.296875 L 5.785156 16.277344 C 5.84375 16.222656 5.757812 16.136719 5.699219 16.191406 " fill-opacity="1" fill-rule="nonzero"/><path fill="rgb(94.898987%, 70.979309%, 46.669006%)" d="M 5.21875 15.84375 L 5.203125 15.859375 C 5.144531 15.917969 5.230469 16.003906 5.289062 15.945312 L 5.304688 15.929688 C 5.363281 15.875 5.273438 15.789062 5.21875 15.84375 " fill-opacity="1" fill-rule="nonzero"/><path fill="rgb(94.898987%, 70.979309%, 46.669006%)" d="M 6.121094 17.242188 L 6.105469 17.257812 C 6.046875 17.3125 6.136719 17.402344 6.191406 17.34375 L 6.207031 17.328125 C 6.265625 17.273438 6.175781 17.183594 6.121094 17.242188 " fill-opacity="1" fill-rule="nonzero"/><path fill="rgb(94.898987%, 70.979309%, 46.669006%)" d="M 6.722656 17.039062 C 6.800781 17.039062 6.800781 16.914062 6.722656 16.914062 C 6.644531 16.914062 6.644531 17.039062 6.722656 17.039062 " fill-opacity="1" fill-rule="nonzero"/><path fill="rgb(94.898987%, 70.979309%, 46.669006%)" d="M 6.78125 17.425781 C 6.863281 17.425781 6.863281 17.300781 6.78125 17.300781 C 6.703125 17.300781 6.703125 17.425781 6.78125 17.425781 " fill-opacity="1" fill-rule="nonzero"/><path fill="rgb(94.898987%, 70.979309%, 46.669006%)" d="M 6.664062 17.777344 C 6.742188 17.777344 6.742188 17.65625 6.664062 17.65625 C 6.582031 17.65625 6.582031 17.777344 6.664062 17.777344 " fill-opacity="1" fill-rule="nonzero"/><path fill="rgb(94.898987%, 70.979309%, 46.669006%)" d="M 7.265625 17.71875 C 7.34375 17.71875 7.34375 17.59375 7.265625 17.59375 C 7.183594 17.59375 7.183594 17.71875 7.265625 17.71875 " fill-opacity="1" fill-rule="nonzero"/><path fill="rgb(70.588684%, 27.449036%, 19.60907%)" d="M 16.949219 15.402344 L 16.335938 15.5625 L 16.289062 15.742188 L 11.542969 14.230469 C 11.160156 14.101562 10.75 14.101562 10.367188 14.230469 L 5.601562 15.726562 L 5.574219 15.566406 L 4.960938 15.402344 C 4.960938 15.402344 5.003906 16.328125 5.398438 16.46875 L 10.292969 18.347656 C 10.722656 18.515625 11.1875 18.515625 11.621094 18.347656 L 16.511719 16.46875 C 16.53125 16.460938 16.546875 16.449219 16.5625 16.4375 L 16.578125 16.429688 C 16.585938 16.421875 16.59375 16.417969 16.601562 16.410156 C 16.917969 16.175781 16.949219 15.402344 16.949219 15.402344 " fill-opacity="1" fill-rule="nonzero"/><path fill="rgb(81.17981%, 32.159424%, 23.139954%)" d="M 16.5625 16.4375 L 16.578125 16.429688 C 16.585938 16.421875 16.59375 16.417969 16.601562 16.410156 C 16.816406 16.25 16.902344 15.839844 16.929688 15.597656 C 16.621094 15.746094 16.285156 15.859375 15.984375 15.988281 C 15.457031 16.214844 14.917969 16.417969 14.375 16.601562 C 14.050781 16.710938 13.722656 16.800781 13.398438 16.914062 C 13.199219 16.984375 12.761719 17.074219 12.71875 17.339844 C 12.703125 17.4375 12.742188 17.539062 12.800781 17.621094 C 13.023438 17.933594 13.453125 17.644531 13.734375 17.535156 C 14.128906 17.382812 14.519531 17.234375 14.910156 17.082031 C 15.445312 16.878906 15.976562 16.671875 16.511719 16.46875 C 16.53125 16.460938 16.546875 16.449219 16.5625 16.4375 " fill-opacity="1" fill-rule="nonzero"/><path fill="rgb(82.749939%, 32.548523%, 23.529053%)" d="M 16.382812 15.640625 C 16.570312 15.558594 16.765625 15.496094 16.949219 15.410156 L 16.949219 15.402344 L 16.335938 15.5625 L 16.308594 15.675781 C 16.332031 15.664062 16.359375 15.652344 16.382812 15.640625 " fill-opacity="1" fill-rule="nonzero"/><path fill="rgb(59.21936%, 22.749329%, 16.079712%)" d="M 10.992188 14.136719 C 10.78125 14.132812 10.570312 14.164062 10.367188 14.230469 L 5.601562 15.726562 L 5.574219 15.566406 L 4.960938 15.402344 C 4.960938 15.402344 5.003906 16.328125 5.398438 16.46875 L 10.292969 18.347656 C 10.515625 18.4375 10.753906 18.476562 10.992188 18.472656 L 10.992188 14.136719 " fill-opacity="1" fill-rule="nonzero"/><path fill="rgb(69.018555%, 27.059937%, 19.219971%)" d="M 7.507812 17.007812 C 7.355469 16.683594 7.011719 16.496094 6.695312 16.355469 C 6.128906 16.101562 5.410156 15.96875 4.96875 15.496094 C 4.992188 15.734375 5.082031 16.355469 5.398438 16.46875 L 7.582031 17.308594 C 7.585938 17.222656 7.5625 17.125 7.507812 17.007812 " fill-opacity="1" fill-rule="nonzero"/><path fill="rgb(88.238525%, 87.449646%, 53.729248%)" d="M 16.757812 15.652344 L 11.648438 17.417969 C 11.199219 17.574219 10.710938 17.574219 10.261719 17.417969 L 5.152344 15.652344 C 4.894531 15.5625 4.898438 15.195312 5.164062 15.117188 L 10.339844 13.546875 C 10.742188 13.425781 11.167969 13.425781 11.570312 13.546875 L 16.75 15.117188 C 17.011719 15.195312 17.019531 15.5625 16.757812 15.652344 " fill-opacity="1" fill-rule="nonzero"/><path fill="rgb(88.238525%, 78.039551%, 57.649231%)" d="M 7.359375 14.449219 C 7.558594 14.394531 7.757812 14.34375 7.9375 14.277344 L 7.359375 14.449219 " fill-opacity="1" fill-rule="nonzero"/><path fill="rgb(96.078491%, 87.059021%, 59.609985%)" d="M 16.75 15.117188 L 11.570312 13.546875 C 11.167969 13.425781 10.742188 13.425781 10.339844 13.546875 L 10.210938 13.589844 C 10.871094 14.039062 11.640625 14.5 11.707031 15.355469 C 11.800781 16.632812 10.175781 16.800781 9.246094 16.773438 C 8.839844 16.765625 8.433594 16.71875 8.035156 16.648438 L 10.261719 17.417969 C 10.710938 17.574219 11.199219 17.574219 11.648438 17.417969 L 16.757812 15.652344 C 17.019531 15.5625 17.011719 15.195312 16.75 15.117188 " fill-opacity="1" fill-rule="nonzero"/><path fill="rgb(88.238525%, 72.158813%, 45.098877%)" d="M 16.75 15.117188 L 13.550781 14.148438 C 13.632812 14.234375 13.707031 14.324219 13.773438 14.417969 C 14.878906 16.011719 12.097656 17.074219 11 17.4375 C 10.90625 17.46875 10.808594 17.492188 10.710938 17.519531 C 11.027344 17.558594 11.347656 17.523438 11.648438 17.417969 L 16.757812 15.652344 C 17.019531 15.5625 17.011719 15.195312 16.75 15.117188 " fill-opacity="1" fill-rule="nonzero"/><path fill="rgb(94.898987%, 70.979309%, 46.669006%)" d="M 6.351562 14.996094 L 6.335938 14.996094 C 6.257812 14.996094 6.257812 15.117188 6.335938 15.117188 L 6.351562 15.117188 C 6.433594 15.117188 6.433594 14.996094 6.351562 14.996094 " fill-opacity="1" fill-rule="nonzero"/><path fill="rgb(94.898987%, 70.979309%, 46.669006%)" d="M 9.578125 16.53125 L 9.5625 16.53125 C 9.480469 16.53125 9.480469 16.652344 9.5625 16.652344 L 9.578125 16.652344 C 9.65625 16.652344 9.65625 16.53125 9.578125 16.53125 " fill-opacity="1" fill-rule="nonzero"/><path fill="rgb(94.898987%, 70.979309%, 46.669006%)" d="M 10.191406 16.59375 L 10.175781 16.59375 C 10.097656 16.59375 10.097656 16.714844 10.175781 16.714844 L 10.191406 16.714844 C 10.273438 16.714844 10.273438 16.59375 10.191406 16.59375 " fill-opacity="1" fill-rule="nonzero"/><path fill="rgb(94.898987%, 70.979309%, 46.669006%)" d="M 6.136719 15.722656 C 6.21875 15.722656 6.21875 15.597656 6.136719 15.597656 C 6.058594 15.597656 6.058594 15.722656 6.136719 15.722656 " fill-opacity="1" fill-rule="nonzero"/><path fill="rgb(94.898987%, 70.979309%, 46.669006%)" d="M 5.59375 15.441406 C 5.671875 15.441406 5.671875 15.320312 5.59375 15.320312 C 5.511719 15.320312 5.511719 15.441406 5.59375 15.441406 " fill-opacity="1" fill-rule="nonzero"/><path fill="rgb(94.898987%, 70.979309%, 46.669006%)" d="M 6.953125 15.378906 C 7.035156 15.378906 7.035156 15.257812 6.953125 15.257812 C 6.875 15.257812 6.875 15.378906 6.953125 15.378906 " fill-opacity="1" fill-rule="nonzero"/><path fill="rgb(94.898987%, 70.979309%, 46.669006%)" d="M 7.4375 15.722656 C 7.515625 15.722656 7.515625 15.597656 7.4375 15.597656 C 7.355469 15.597656 7.355469 15.722656 7.4375 15.722656 " fill-opacity="1" fill-rule="nonzero"/><path fill="rgb(94.898987%, 70.979309%, 46.669006%)" d="M 7.4375 16.230469 C 7.515625 16.230469 7.515625 16.105469 7.4375 16.105469 C 7.355469 16.105469 7.355469 16.230469 7.4375 16.230469 " fill-opacity="1" fill-rule="nonzero"/><path fill="rgb(94.898987%, 70.979309%, 46.669006%)" d="M 6.835938 15.976562 C 6.914062 15.976562 6.914062 15.851562 6.835938 15.851562 C 6.753906 15.851562 6.753906 15.976562 6.835938 15.976562 " fill-opacity="1" fill-rule="nonzero"/><path fill="rgb(94.898987%, 70.979309%, 46.669006%)" d="M 7.953125 15.484375 L 7.933594 15.5 C 7.878906 15.558594 7.964844 15.644531 8.023438 15.589844 L 8.039062 15.570312 C 8.09375 15.515625 8.007812 15.429688 7.953125 15.484375 " fill-opacity="1" fill-rule="nonzero"/><path fill="rgb(94.898987%, 70.979309%, 46.669006%)" d="M 7.460938 15.066406 L 7.445312 15.082031 C 7.386719 15.140625 7.476562 15.226562 7.53125 15.171875 L 7.546875 15.152344 C 7.605469 15.097656 7.515625 15.011719 7.460938 15.066406 " fill-opacity="1" fill-rule="nonzero"/><path fill="rgb(94.898987%, 70.979309%, 46.669006%)" d="M 6.976562 14.71875 L 6.960938 14.734375 C 6.90625 14.792969 6.992188 14.878906 7.050781 14.820312 L 7.066406 14.804688 C 7.121094 14.75 7.035156 14.664062 6.976562 14.71875 " fill-opacity="1" fill-rule="nonzero"/><path fill="rgb(94.898987%, 70.979309%, 46.669006%)" d="M 7.882812 16.117188 L 7.863281 16.132812 C 7.808594 16.1875 7.894531 16.277344 7.953125 16.21875 L 7.96875 16.203125 C 8.023438 16.148438 7.9375 16.058594 7.882812 16.117188 " fill-opacity="1" fill-rule="nonzero"/><path fill="rgb(94.898987%, 70.979309%, 46.669006%)" d="M 8.484375 15.914062 C 8.5625 15.914062 8.5625 15.789062 8.484375 15.789062 C 8.402344 15.789062 8.402344 15.914062 8.484375 15.914062 " fill-opacity="1" fill-rule="nonzero"/><path fill="rgb(94.898987%, 70.979309%, 46.669006%)" d="M 8.542969 16.300781 C 8.621094 16.300781 8.621094 16.175781 8.542969 16.175781 C 8.464844 16.175781 8.464844 16.300781 8.542969 16.300781 " fill-opacity="1" fill-rule="nonzero"/><path fill="rgb(94.898987%, 70.979309%, 46.669006%)" d="M 8.421875 16.652344 C 8.503906 16.652344 8.503906 16.53125 8.421875 16.53125 C 8.34375 16.53125 8.34375 16.652344 8.421875 16.652344 " fill-opacity="1" fill-rule="nonzero"/><path fill="rgb(94.898987%, 70.979309%, 46.669006%)" d="M 9.023438 16.59375 C 9.105469 16.59375 9.105469 16.46875 9.023438 16.46875 C 8.945312 16.46875 8.945312 16.59375 9.023438 16.59375 " fill-opacity="1" fill-rule="nonzero"/><path fill="rgb(96.078491%, 96.859741%, 89.7995%)" d="M 11.460938 17.175781 C 11.234375 17.367188 11.011719 17.566406 10.71875 17.652344 C 10.382812 17.753906 9.972656 17.679688 9.707031 17.910156 C 9.421875 18.160156 9.472656 18.644531 9.71875 18.929688 C 9.960938 19.21875 10.332031 19.363281 10.6875 19.492188 C 11.546875 19.808594 12.417969 20.132812 13.328125 20.277344 C 13.933594 20.371094 14.851562 20.570312 15.460938 20.488281 C 15.890625 20.429688 16.246094 20.09375 16.644531 19.953125 C 17.039062 19.816406 17.449219 19.785156 17.863281 19.78125 C 18.742188 19.777344 19.632812 19.964844 20.503906 19.75 C 21.09375 19.605469 21.699219 19.171875 21.710938 18.566406 C 21.71875 17.945312 21.109375 17.496094 20.519531 17.289062 C 20.175781 17.167969 19.816406 17.046875 19.488281 16.886719 C 19.296875 16.792969 19.132812 16.644531 18.929688 16.570312 C 18.269531 16.320312 17.386719 16.34375 16.6875 16.265625 C 14.953125 16.074219 12.890625 15.964844 11.460938 17.175781 " fill-opacity="1" fill-rule="nonzero"/><path fill="rgb(74.899292%, 74.899292%, 73.728943%)" d="M 18.414062 18.242188 C 18.8125 18.046875 19.058594 17.625 19.453125 17.371094 C 19.726562 17.195312 20.167969 17.148438 20.457031 17.3125 C 20.6875 17.445312 20.882812 17.835938 20.761719 18.101562 C 20.71875 18.191406 20.640625 18.257812 20.5625 18.316406 C 20.230469 18.558594 19.832031 18.691406 19.4375 18.808594 C 19.085938 18.910156 18.730469 19.003906 18.371094 19.085938 C 19.1875 19.171875 20.035156 18.976562 20.730469 18.539062 C 20.820312 18.484375 20.910156 18.421875 20.980469 18.34375 C 21.453125 17.824219 21.011719 17.464844 20.519531 17.289062 C 20.175781 17.167969 19.816406 17.046875 19.488281 16.886719 C 19.296875 16.792969 19.132812 16.644531 18.929688 16.570312 C 18.921875 16.566406 18.914062 16.5625 18.910156 16.5625 C 19.105469 17.132812 18.886719 17.855469 18.414062 18.242188 " fill-opacity="1" fill-rule="nonzero"/><path fill="rgb(67.059326%, 67.83905%, 66.268921%)" d="M 13.082031 16.382812 C 12.625 16.542969 12.132812 16.730469 11.742188 16.972656 C 12.03125 17.683594 12.746094 18.332031 13.40625 18.332031 C 12.640625 17.863281 12.398438 17.660156 12.269531 17.144531 C 12.132812 16.597656 12.933594 16.539062 13.082031 16.382812 " fill-opacity="1" fill-rule="nonzero"/><path fill="rgb(76.078796%, 76.078796%, 74.508667%)" d="M 21.675781 18.3125 C 21.699219 18.632812 21.609375 18.933594 21.285156 19.117188 C 20.824219 19.378906 20.207031 19.351562 19.695312 19.34375 C 19.214844 19.339844 18.742188 19.335938 18.265625 19.339844 L 18.304688 19.324219 C 18.265625 19.328125 18.230469 19.335938 18.191406 19.339844 C 17.882812 19.34375 17.578125 19.347656 17.265625 19.355469 C 17.128906 19.359375 16.984375 19.363281 16.847656 19.394531 C 16.808594 19.402344 16.769531 19.417969 16.730469 19.429688 C 16.039062 19.347656 15.449219 20.011719 14.757812 20.117188 C 13.789062 20.269531 12.910156 19.65625 12.027344 19.367188 C 11.496094 19.191406 9.621094 18.601562 9.878906 17.808594 C 9.816406 17.832031 9.757812 17.867188 9.707031 17.910156 C 9.421875 18.160156 9.472656 18.644531 9.71875 18.929688 C 9.960938 19.21875 10.332031 19.363281 10.6875 19.492188 C 11.546875 19.808594 12.417969 20.132812 13.328125 20.277344 C 13.933594 20.371094 14.851562 20.570312 15.460938 20.488281 C 15.890625 20.429688 16.246094 20.09375 16.644531 19.953125 C 16.824219 19.890625 17.007812 19.851562 17.191406 19.824219 C 17.226562 19.820312 17.257812 19.816406 17.292969 19.8125 C 17.328125 19.808594 17.363281 19.804688 17.398438 19.800781 C 17.550781 19.789062 17.707031 19.78125 17.863281 19.78125 C 18.742188 19.777344 19.632812 19.964844 20.503906 19.75 C 21.09375 19.605469 21.699219 19.171875 21.710938 18.566406 C 21.710938 18.480469 21.699219 18.394531 21.675781 18.3125 " fill-opacity="1" fill-rule="nonzero"/><path fill="rgb(96.859741%, 58.039856%, 6.269836%)" d="M 17.804688 17.953125 C 17.804688 18.433594 16.929688 18.828125 15.847656 18.828125 C 14.769531 18.828125 13.894531 18.410156 13.894531 17.953125 C 13.894531 17.285156 14.769531 16.507812 15.847656 16.507812 C 16.929688 16.507812 17.804688 17.285156 17.804688 17.953125 " fill-opacity="1" fill-rule="nonzero"/><path fill="rgb(98.039246%, 69.799805%, 4.309082%)" d="M 15.269531 17.652344 C 15.511719 17.601562 15.800781 17.496094 15.9375 17.273438 C 16.101562 17.007812 15.941406 16.726562 15.757812 16.511719 C 14.960938 16.542969 14.289062 16.996094 14.019531 17.496094 C 14.386719 17.707031 14.875 17.734375 15.269531 17.652344 " fill-opacity="1" fill-rule="nonzero"/><path fill="rgb(96.469116%, 52.159119%, 7.058716%)" d="M 16.476562 16.597656 C 16.484375 16.609375 16.488281 16.617188 16.496094 16.628906 C 16.636719 16.96875 16.558594 17.359375 16.335938 17.644531 C 15.828125 18.289062 14.601562 18.367188 13.898438 17.910156 C 13.898438 17.921875 13.894531 17.9375 13.894531 17.953125 C 13.894531 18.410156 14.769531 18.828125 15.847656 18.828125 C 16.929688 18.828125 17.804688 18.433594 17.804688 17.953125 C 17.804688 17.421875 17.25 16.820312 16.476562 16.597656 " fill-opacity="1" fill-rule="nonzero"/><path fill="rgb(69.018555%, 69.799805%, 69.018555%)" d="M 12.28125 18.289062 L 12.265625 18.289062 C 12.191406 18.289062 12.191406 18.402344 12.265625 18.402344 L 12.28125 18.402344 C 12.355469 18.402344 12.355469 18.289062 12.28125 18.289062 " fill-opacity="1" fill-rule="nonzero"/><path fill="rgb(69.018555%, 69.799805%, 69.018555%)" d="M 13.054688 18.636719 L 13.042969 18.636719 C 12.96875 18.636719 12.96875 18.75 13.042969 18.75 L 13.054688 18.75 C 13.128906 18.75 13.128906 18.636719 13.054688 18.636719 " fill-opacity="1" fill-rule="nonzero"/><path fill="rgb(69.018555%, 69.799805%, 69.018555%)" d="M 11.5625 18.230469 L 11.546875 18.230469 C 11.472656 18.230469 11.472656 18.34375 11.546875 18.34375 L 11.5625 18.34375 C 11.632812 18.34375 11.632812 18.230469 11.5625 18.230469 " fill-opacity="1" fill-rule="nonzero"/><path fill="rgb(69.018555%, 69.799805%, 69.018555%)" d="M 13.527344 18.582031 C 13.601562 18.582031 13.601562 18.46875 13.527344 18.46875 C 13.453125 18.46875 13.453125 18.582031 13.527344 18.582031 " fill-opacity="1" fill-rule="nonzero"/><path fill="rgb(69.018555%, 69.799805%, 69.018555%)" d="M 14 19.082031 C 14.070312 19.082031 14.070312 18.96875 14 18.96875 C 13.925781 18.96875 13.925781 19.082031 14 19.082031 " fill-opacity="1" fill-rule="nonzero"/><path fill="rgb(69.018555%, 69.799805%, 69.018555%)" d="M 13.222656 19.292969 C 13.296875 19.292969 13.296875 19.179688 13.222656 19.179688 C 13.148438 19.179688 13.148438 19.292969 13.222656 19.292969 " fill-opacity="1" fill-rule="nonzero"/><path fill="rgb(69.018555%, 69.799805%, 69.018555%)" d="M 12.210938 18.886719 C 12.285156 18.886719 12.285156 18.769531 12.210938 18.769531 C 12.136719 18.769531 12.136719 18.886719 12.210938 18.886719 " fill-opacity="1" fill-rule="nonzero"/><path fill="rgb(69.018555%, 69.799805%, 69.018555%)" d="M 11.261719 18.628906 C 11.335938 18.628906 11.335938 18.515625 11.261719 18.515625 C 11.191406 18.515625 11.191406 18.628906 11.261719 18.628906 " fill-opacity="1" fill-rule="nonzero"/><path fill="rgb(69.018555%, 69.799805%, 69.018555%)" d="M 11.386719 17.472656 L 11.371094 17.472656 C 11.296875 17.472656 11.296875 17.585938 11.371094 17.585938 L 11.386719 17.585938 C 11.460938 17.585938 11.460938 17.472656 11.386719 17.472656 " fill-opacity="1" fill-rule="nonzero"/><path fill="rgb(69.018555%, 69.799805%, 69.018555%)" d="M 10.976562 17.910156 L 10.960938 17.910156 C 10.886719 17.910156 10.886719 18.023438 10.960938 18.023438 L 10.976562 18.023438 C 11.050781 18.023438 11.050781 17.910156 10.976562 17.910156 " fill-opacity="1" fill-rule="nonzero"/><path fill="rgb(69.018555%, 69.799805%, 69.018555%)" d="M 10.5 18.023438 C 10.574219 18.023438 10.574219 17.910156 10.5 17.910156 C 10.425781 17.910156 10.425781 18.023438 10.5 18.023438 " fill-opacity="1" fill-rule="nonzero"/><path fill="rgb(80.389404%, 61.569214%, 17.248535%)" d="M 10.910156 16.074219 L 10.90625 16.441406 L 13.03125 15.40625 L 13.03125 15.117188 L 10.910156 16.074219 " fill-opacity="1" fill-rule="nonzero"/><path fill="rgb(72.938538%, 55.688477%, 16.468811%)" d="M 8.667969 15.132812 L 8.667969 15.414062 L 10.90625 16.441406 L 10.90625 16.09375 L 8.667969 15.132812 " fill-opacity="1" fill-rule="nonzero"/><path fill="rgb(98.429871%, 75.689697%, 18.429565%)" d="M 8.667969 15.132812 L 10.710938 14.421875 L 13.03125 15.117188 L 10.902344 16.105469 L 8.667969 15.132812 " fill-opacity="1" fill-rule="nonzero"/><path fill="rgb(82.348633%, 30.198669%, 12.159729%)" d="M 19.058594 18.988281 C 20.679688 18.976562 22.25 18.222656 23.242188 16.945312 C 23.589844 16.5 22.949219 15.894531 22.597656 16.34375 C 21.738281 17.445312 20.445312 18.097656 19.039062 18.109375 C 18.46875 18.113281 18.488281 18.992188 19.058594 18.988281 " fill-opacity="1" fill-rule="nonzero"/><path fill="rgb(89.7995%, 34.118652%, 17.649841%)" d="M 18.859375 18.210938 C 18.917969 18.191406 18.976562 18.179688 19.039062 18.179688 C 19.269531 18.175781 19.46875 18.273438 19.703125 18.21875 C 19.949219 18.164062 20.1875 18.101562 20.433594 18.054688 C 20.703125 18.003906 20.933594 17.902344 21.167969 17.765625 C 21.625 17.5 22.050781 17.164062 22.386719 16.757812 C 22.53125 16.582031 22.679688 16.402344 22.785156 16.203125 C 22.71875 16.226562 22.65625 16.269531 22.597656 16.34375 C 21.738281 17.445312 20.445312 18.097656 19.039062 18.109375 C 18.882812 18.109375 18.769531 18.175781 18.703125 18.273438 C 18.765625 18.257812 18.839844 18.21875 18.859375 18.210938 " fill-opacity="1" fill-rule="nonzero"/><path fill="rgb(52.549744%, 18.429565%, 7.058716%)" d="M 19.292969 18.464844 C 19.335938 18.421875 19.351562 18.355469 19.355469 18.296875 C 19.363281 18.234375 19.355469 18.160156 19.339844 18.09375 C 19.296875 18.097656 19.257812 18.097656 19.214844 18.101562 C 19.21875 18.136719 19.21875 18.167969 19.214844 18.203125 C 19.207031 18.273438 19.160156 18.402344 19.183594 18.46875 C 19.203125 18.523438 19.253906 18.503906 19.292969 18.464844 " fill-opacity="1" fill-rule="nonzero"/><path fill="rgb(52.549744%, 18.429565%, 7.058716%)" d="M 20.777344 18.003906 C 20.808594 18.054688 20.847656 18.089844 20.90625 18.085938 C 20.941406 18.085938 20.96875 18.078125 20.976562 18.042969 C 20.984375 17.980469 20.921875 17.894531 20.890625 17.84375 C 20.863281 17.808594 20.835938 17.769531 20.804688 17.734375 C 20.761719 17.753906 20.71875 17.773438 20.675781 17.789062 C 20.710938 17.859375 20.734375 17.9375 20.777344 18.003906 " fill-opacity="1" fill-rule="nonzero"/><path fill="rgb(52.549744%, 18.429565%, 7.058716%)" d="M 21.429688 17.636719 C 21.46875 17.671875 21.515625 17.722656 21.570312 17.722656 C 21.625 17.722656 21.648438 17.695312 21.636719 17.644531 C 21.609375 17.550781 21.515625 17.476562 21.445312 17.390625 C 21.402344 17.421875 21.355469 17.449219 21.3125 17.476562 C 21.347656 17.53125 21.386719 17.585938 21.429688 17.636719 " fill-opacity="1" fill-rule="nonzero"/><path fill="rgb(52.549744%, 18.429565%, 7.058716%)" d="M 22.050781 17.191406 C 22.105469 17.226562 22.328125 17.339844 22.328125 17.191406 C 22.328125 17.097656 22.148438 17.003906 22.085938 16.960938 C 22.074219 16.953125 22.058594 16.941406 22.046875 16.933594 C 21.996094 16.980469 21.945312 17.023438 21.890625 17.066406 C 21.941406 17.113281 21.992188 17.15625 22.050781 17.191406 " fill-opacity="1" fill-rule="nonzero"/><path fill="rgb(52.549744%, 18.429565%, 7.058716%)" d="M 22.746094 16.640625 C 22.792969 16.652344 22.890625 16.683594 22.9375 16.652344 C 23.011719 16.605469 22.925781 16.554688 22.882812 16.523438 C 22.796875 16.46875 22.683594 16.421875 22.578125 16.363281 C 22.539062 16.414062 22.5 16.464844 22.460938 16.511719 C 22.527344 16.578125 22.667969 16.621094 22.746094 16.640625 " fill-opacity="1" fill-rule="nonzero"/><path fill="rgb(52.549744%, 18.429565%, 7.058716%)" d="M 19.992188 18.371094 C 20.042969 18.367188 20.085938 18.316406 20.097656 18.273438 C 20.117188 18.1875 20.085938 18.082031 20.035156 17.988281 C 19.972656 18 19.914062 18.015625 19.851562 18.027344 C 19.886719 18.085938 19.914062 18.152344 19.917969 18.230469 C 19.925781 18.285156 19.902344 18.371094 19.992188 18.371094 " fill-opacity="1" fill-rule="nonzero"/><path fill="rgb(65.489197%, 19.999695%, 9.799194%)" d="M 22.574219 17.277344 C 22.097656 17.695312 21.574219 18.046875 20.996094 18.316406 C 20.277344 18.648438 19.339844 18.941406 18.621094 18.511719 C 18.609375 18.742188 18.757812 18.992188 19.058594 18.988281 C 20.679688 18.976562 22.25 18.222656 23.242188 16.945312 C 23.351562 16.804688 23.363281 16.648438 23.316406 16.515625 C 23.105469 16.796875 22.839844 17.042969 22.574219 17.277344 " fill-opacity="1" fill-rule="nonzero"/><path fill="rgb(82.348633%, 30.198669%, 12.159729%)" d="M 19.519531 19.167969 C 21.117188 19.449219 22.796875 18.992188 24.011719 17.921875 C 24.429688 17.546875 23.910156 16.832031 23.484375 17.210938 C 22.4375 18.136719 21.046875 18.542969 19.664062 18.296875 C 19.101562 18.199219 18.957031 19.066406 19.519531 19.167969 " fill-opacity="1" fill-rule="nonzero"/><path fill="rgb(89.7995%, 34.118652%, 17.649841%)" d="M 19.46875 18.367188 C 19.527344 18.359375 19.585938 18.355469 19.648438 18.367188 C 19.875 18.40625 20.050781 18.539062 20.292969 18.527344 C 20.546875 18.515625 20.789062 18.5 21.042969 18.5 C 21.316406 18.5 21.5625 18.441406 21.820312 18.351562 C 22.316406 18.171875 22.796875 17.917969 23.203125 17.578125 C 23.375 17.433594 23.554688 17.285156 23.695312 17.105469 C 23.625 17.117188 23.554688 17.148438 23.484375 17.210938 C 22.4375 18.136719 21.046875 18.542969 19.664062 18.296875 C 19.507812 18.269531 19.386719 18.316406 19.300781 18.402344 C 19.363281 18.398438 19.449219 18.371094 19.46875 18.367188 " fill-opacity="1" fill-rule="nonzero"/><path fill="rgb(52.549744%, 18.429565%, 7.058716%)" d="M 19.847656 18.691406 C 19.898438 18.660156 19.921875 18.597656 19.9375 18.542969 C 19.957031 18.480469 19.964844 18.410156 19.960938 18.339844 C 19.917969 18.335938 19.878906 18.328125 19.839844 18.324219 C 19.832031 18.355469 19.824219 18.390625 19.816406 18.421875 C 19.796875 18.488281 19.726562 18.605469 19.738281 18.679688 C 19.746094 18.734375 19.800781 18.722656 19.847656 18.691406 " fill-opacity="1" fill-rule="nonzero"/><path fill="rgb(52.549744%, 18.429565%, 7.058716%)" d="M 21.390625 18.511719 C 21.410156 18.566406 21.441406 18.609375 21.5 18.617188 C 21.535156 18.621094 21.5625 18.621094 21.578125 18.585938 C 21.597656 18.527344 21.550781 18.429688 21.527344 18.375 C 21.511719 18.332031 21.488281 18.292969 21.464844 18.253906 C 21.421875 18.261719 21.375 18.273438 21.328125 18.28125 C 21.347656 18.359375 21.359375 18.4375 21.390625 18.511719 " fill-opacity="1" fill-rule="nonzero"/><path fill="rgb(52.549744%, 18.429565%, 7.058716%)" d="M 22.101562 18.269531 C 22.128906 18.3125 22.167969 18.371094 22.222656 18.378906 C 22.277344 18.390625 22.304688 18.363281 22.300781 18.316406 C 22.292969 18.21875 22.214844 18.125 22.160156 18.03125 C 22.113281 18.050781 22.0625 18.070312 22.011719 18.089844 C 22.039062 18.152344 22.066406 18.210938 22.101562 18.269531 " fill-opacity="1" fill-rule="nonzero"/><path fill="rgb(52.549744%, 18.429565%, 7.058716%)" d="M 22.789062 17.945312 C 22.839844 17.992188 23.039062 18.140625 23.066406 17.996094 C 23.082031 17.90625 22.921875 17.78125 22.867188 17.722656 C 22.855469 17.710938 22.847656 17.703125 22.835938 17.691406 C 22.777344 17.726562 22.71875 17.761719 22.65625 17.792969 C 22.695312 17.847656 22.742188 17.898438 22.789062 17.945312 " fill-opacity="1" fill-rule="nonzero"/><path fill="rgb(52.549744%, 18.429565%, 7.058716%)" d="M 23.578125 17.53125 C 23.621094 17.550781 23.710938 17.597656 23.761719 17.578125 C 23.84375 17.542969 23.769531 17.476562 23.730469 17.441406 C 23.660156 17.367188 23.554688 17.304688 23.464844 17.226562 C 23.417969 17.269531 23.367188 17.308594 23.316406 17.351562 C 23.371094 17.429688 23.503906 17.496094 23.578125 17.53125 " fill-opacity="1" fill-rule="nonzero"/><path fill="rgb(52.549744%, 18.429565%, 7.058716%)" d="M 20.550781 18.730469 C 20.601562 18.738281 20.652344 18.695312 20.671875 18.652344 C 20.707031 18.570312 20.695312 18.460938 20.664062 18.359375 C 20.601562 18.363281 20.539062 18.363281 20.476562 18.367188 C 20.5 18.433594 20.511719 18.5 20.503906 18.578125 C 20.5 18.632812 20.464844 18.714844 20.550781 18.730469 " fill-opacity="1" fill-rule="nonzero"/><path fill="rgb(65.489197%, 19.999695%, 9.799194%)" d="M 23.292969 18.125 C 22.746094 18.449219 22.164062 18.699219 21.546875 18.859375 C 20.78125 19.054688 19.804688 19.171875 19.179688 18.617188 C 19.121094 18.84375 19.222656 19.113281 19.519531 19.167969 C 21.117188 19.449219 22.796875 18.992188 24.011719 17.921875 C 24.144531 17.800781 24.183594 17.652344 24.160156 17.511719 C 23.902344 17.75 23.59375 17.941406 23.292969 18.125 " fill-opacity="1" fill-rule="nonzero"/></svg>