<?xml version="1.0" encoding="UTF-8"?><svg xmlns="http://www.w3.org/2000/svg" xmlns:xlink="http://www.w3.org/1999/xlink" contentScriptType="text/ecmascript" width="30" zoomAndPan="magnify" contentStyleType="text/css" viewBox="0 0 30 30.000001" height="30.000001" preserveAspectRatio="xMidYMid meet" version="1.0"><defs><clipPath id="clip-0"><path d="M 3 24 L 28.066406 24 L 28.066406 26.128906 L 3 26.128906 Z M 3 24 " clip-rule="nonzero"/></clipPath><clipPath id="clip-1"><path d="M 1.933594 12 L 8 12 L 8 18 L 1.933594 18 Z M 1.933594 12 " clip-rule="nonzero"/></clipPath></defs><g clip-path="url(#clip-0)"><path fill="rgb(81.568909%, 81.568909%, 81.568909%)" d="M 15.9375 26.125 C 9.25 26.125 3.832031 25.726562 3.832031 25.238281 C 3.832031 24.960938 5.542969 24.714844 8.230469 24.554688 C 8.726562 25.066406 9.414062 25.382812 10.179688 25.382812 C 11.019531 25.382812 11.769531 24.996094 12.269531 24.390625 C 13.425781 24.363281 14.660156 24.351562 15.9375 24.351562 C 22.621094 24.351562 28.042969 24.746094 28.042969 25.238281 C 28.042969 25.726562 22.621094 26.125 15.9375 26.125 " fill-opacity="1" fill-rule="nonzero"/></g><path fill="rgb(99.21875%, 86.669922%, 6.269836%)" d="M 6.539062 20.140625 L 6.792969 20.140625 L 6.792969 22.148438 L 6.539062 22.148438 C 6.3125 22.148438 6.132812 21.964844 6.132812 21.738281 L 6.132812 20.550781 C 6.132812 20.324219 6.3125 20.140625 6.539062 20.140625 " fill-opacity="1" fill-rule="nonzero"/><path fill="rgb(77.249146%, 63.139343%, 63.919067%)" d="M 6.539062 22.148438 C 6.539062 22.148438 6.539062 22.148438 6.535156 22.148438 C 6.539062 22.148438 6.539062 22.148438 6.539062 22.148438 M 6.535156 22.148438 L 6.535156 22.148438 M 6.535156 22.148438 L 6.535156 22.148438 M 6.535156 20.140625 L 6.535156 20.140625 M 6.535156 20.140625 L 6.535156 20.140625 M 6.535156 20.140625 C 6.539062 20.140625 6.539062 20.140625 6.539062 20.140625 C 6.539062 20.140625 6.539062 20.140625 6.535156 20.140625 " fill-opacity="1" fill-rule="nonzero"/><path fill="rgb(77.249146%, 56.858826%, 5.879211%)" d="M 6.539062 22.148438 C 6.539062 22.148438 6.539062 22.148438 6.535156 22.148438 C 6.445312 22.148438 6.367188 22.117188 6.300781 22.070312 L 6.300781 20.21875 C 6.367188 20.171875 6.445312 20.140625 6.535156 20.140625 C 6.539062 20.140625 6.539062 20.140625 6.539062 20.140625 L 6.574219 20.140625 C 6.535156 20.648438 6.527344 21.125 6.527344 21.488281 C 6.527344 21.875 6.539062 22.128906 6.539062 22.148438 " fill-opacity="1" fill-rule="nonzero"/><path fill="rgb(94.119263%, 25.878906%, 11.759949%)" d="M 14.152344 17.179688 C 12.859375 17.179688 9.480469 17.179688 7.890625 17.179688 C 6.304688 17.179688 6.539062 22.148438 6.539062 22.148438 C 6.539062 22.148438 6.738281 22.5625 7.007812 22.734375 C 7.007812 22.703125 7.007812 22.667969 7.007812 22.632812 C 7.007812 20.863281 8.425781 19.429688 10.179688 19.429688 C 11.929688 19.429688 13.351562 20.863281 13.351562 22.632812 C 13.351562 22.695312 13.347656 22.753906 13.34375 22.8125 C 14.980469 22.8125 16.367188 22.8125 16.707031 22.8125 C 18.734375 22.8125 15.449219 17.179688 14.152344 17.179688 " fill-opacity="1" fill-rule="nonzero"/><path fill="rgb(81.17981%, 22.349548%, 9.799194%)" d="M 15.304688 22.632812 L 14.027344 22.632812 C 13.707031 22.242188 13.441406 21.796875 13.179688 21.335938 C 12.914062 20.851562 12.613281 20.394531 12.136719 20.113281 C 11.613281 19.699219 10.964844 19.445312 10.253906 19.429688 C 10.25 19.429688 10.25 19.429688 10.25 19.429688 C 10.246094 19.429688 10.246094 19.429688 10.242188 19.429688 C 10.242188 19.429688 10.242188 19.429688 10.238281 19.429688 C 10.238281 19.429688 10.234375 19.429688 10.234375 19.429688 C 10.230469 19.429688 10.230469 19.429688 10.230469 19.429688 C 10.226562 19.429688 10.226562 19.429688 10.222656 19.429688 C 10.222656 19.429688 10.21875 19.429688 10.21875 19.429688 C 10.214844 19.429688 10.214844 19.429688 10.214844 19.429688 C 10.210938 19.429688 10.210938 19.429688 10.207031 19.429688 C 10.207031 19.429688 10.207031 19.429688 10.203125 19.429688 C 10.203125 19.429688 10.199219 19.429688 10.199219 19.429688 C 10.195312 19.429688 10.195312 19.429688 10.195312 19.429688 C 10.191406 19.429688 10.191406 19.429688 10.1875 19.429688 C 10.1875 19.429688 10.183594 19.429688 10.183594 19.429688 C 10.179688 19.429688 10.179688 19.429688 10.179688 19.429688 C 10.175781 19.429688 10.175781 19.429688 10.171875 19.429688 C 10.171875 19.429688 10.171875 19.429688 10.167969 19.429688 C 10.167969 19.429688 10.164062 19.429688 10.164062 19.429688 C 10.160156 19.429688 10.160156 19.429688 10.160156 19.429688 C 10.160156 19.429688 10.15625 19.429688 10.15625 19.429688 C 10.15625 19.429688 10.15625 19.429688 10.152344 19.429688 C 10.152344 19.429688 10.148438 19.429688 10.148438 19.429688 C 10.148438 19.429688 10.144531 19.429688 10.144531 19.429688 C 10.140625 19.429688 10.140625 19.429688 10.136719 19.429688 C 10.136719 19.429688 10.136719 19.429688 10.132812 19.429688 C 10.132812 19.429688 10.128906 19.429688 10.128906 19.429688 C 10.125 19.429688 10.125 19.429688 10.125 19.429688 C 10.125 19.429688 10.121094 19.429688 10.121094 19.429688 C 10.121094 19.429688 10.121094 19.429688 10.117188 19.429688 C 10.117188 19.429688 10.113281 19.429688 10.113281 19.429688 C 10.113281 19.429688 10.109375 19.429688 10.109375 19.429688 C 10.105469 19.429688 10.105469 19.429688 10.101562 19.429688 C 10.101562 19.429688 10.101562 19.429688 10.097656 19.429688 C 10.097656 19.429688 10.09375 19.429688 10.09375 19.429688 C 10.089844 19.429688 10.089844 19.429688 10.089844 19.429688 C 10.085938 19.429688 10.085938 19.429688 10.082031 19.429688 C 10.011719 19.433594 9.941406 19.4375 9.871094 19.445312 C 8.742188 19.246094 7.453125 18.980469 7 17.976562 C 6.414062 19.367188 6.535156 22.089844 6.539062 22.148438 C 6.539062 22.128906 6.527344 21.875 6.527344 21.488281 C 6.527344 20.511719 6.597656 18.703125 7.101562 17.769531 L 7.902344 17.769531 C 8.03125 18.070312 8.304688 18.222656 8.605469 18.292969 C 8.773438 18.402344 8.976562 18.476562 9.1875 18.5 C 9.296875 18.511719 9.40625 18.515625 9.515625 18.515625 C 9.683594 18.515625 9.851562 18.507812 10.019531 18.496094 C 10.183594 18.484375 10.351562 18.472656 10.519531 18.472656 C 10.609375 18.472656 10.699219 18.476562 10.789062 18.484375 C 11.578125 18.554688 12.382812 18.894531 12.957031 19.449219 C 13.5625 20.035156 13.835938 20.933594 14.316406 21.617188 C 14.574219 21.988281 14.914062 22.351562 15.304688 22.632812 M 13.351562 22.632812 C 13.351562 22.632812 13.351562 22.628906 13.351562 22.628906 C 13.351562 22.628906 13.351562 22.632812 13.351562 22.632812 M 7.007812 22.628906 L 7.007812 22.628906 M 13.351562 22.628906 L 13.351562 22.628906 M 13.351562 22.625 L 13.351562 22.625 M 7.007812 22.625 L 7.007812 22.625 M 13.351562 22.621094 L 13.351562 22.621094 M 7.007812 22.621094 L 7.007812 22.621094 M 13.351562 22.621094 L 13.351562 22.621094 M 7.007812 22.613281 L 7.007812 22.613281 M 13.351562 22.609375 L 13.351562 22.609375 M 7.007812 22.609375 L 7.007812 22.609375 M 13.351562 22.609375 C 13.351562 22.609375 13.351562 22.605469 13.351562 22.605469 C 13.351562 22.605469 13.351562 22.609375 13.351562 22.609375 M 7.007812 22.605469 L 7.007812 22.605469 M 13.351562 22.605469 L 13.351562 22.605469 M 7.007812 22.601562 L 7.007812 22.601562 M 7.007812 22.585938 L 7.007812 22.585938 M 7.007812 22.582031 L 7.007812 22.582031 M 7.007812 22.578125 C 7.007812 22.574219 7.007812 22.574219 7.007812 22.574219 C 7.007812 22.574219 7.007812 22.578125 7.007812 22.578125 M 7.007812 22.570312 L 7.007812 22.570312 M 7.007812 22.566406 L 7.007812 22.566406 M 7.007812 22.5625 L 7.007812 22.5625 M 7.007812 22.546875 L 7.007812 22.546875 M 7.007812 22.542969 L 7.007812 22.542969 M 7.007812 22.539062 C 7.007812 22.535156 7.007812 22.535156 7.007812 22.535156 C 7.007812 22.535156 7.007812 22.535156 7.007812 22.539062 M 7.007812 22.53125 L 7.007812 22.53125 M 7.007812 22.527344 L 7.007812 22.527344 M 7.007812 22.523438 L 7.007812 22.523438 M 7.007812 22.519531 L 7.007812 22.519531 M 7.007812 22.503906 L 7.007812 22.503906 M 7.007812 22.5 L 7.007812 22.5 M 7.007812 22.492188 L 7.007812 22.492188 M 7.011719 22.488281 L 7.011719 22.488281 M 7.011719 22.484375 L 7.011719 22.484375 M 7.011719 22.460938 L 7.011719 22.460938 M 7.011719 22.457031 L 7.011719 22.453125 L 7.011719 22.457031 M 7.011719 22.449219 L 7.011719 22.449219 M 7.011719 22.445312 L 7.011719 22.445312 M 7.015625 22.40625 L 7.015625 22.40625 M 6.539062 22.148438 L 6.539062 22.148438 M 7.84375 17.351562 L 7.425781 17.351562 C 7.558594 17.242188 7.714844 17.179688 7.890625 17.179688 C 7.882812 17.179688 7.871094 17.183594 7.859375 17.183594 C 7.851562 17.238281 7.84375 17.296875 7.84375 17.351562 " fill-opacity="1" fill-rule="nonzero"/><path fill="rgb(81.17981%, 22.349548%, 9.799194%)" d="M 8.609375 18.292969 C 8.605469 18.292969 8.605469 18.292969 8.605469 18.292969 C 8.3125 18.09375 8.132812 17.765625 8.238281 17.347656 C 8.25 17.289062 8.269531 17.234375 8.289062 17.179688 C 8.269531 17.234375 8.25 17.289062 8.238281 17.347656 C 8.132812 17.765625 8.3125 18.09375 8.609375 18.292969 " fill-opacity="1" fill-rule="nonzero"/><path fill="rgb(70.199585%, 18.818665%, 8.239746%)" d="M 8.605469 18.292969 C 8.304688 18.222656 8.03125 18.070312 7.902344 17.769531 L 7.976562 17.769531 C 8.089844 17.769531 8.183594 17.675781 8.183594 17.5625 C 8.183594 17.445312 8.089844 17.351562 7.976562 17.351562 L 7.84375 17.351562 C 7.84375 17.296875 7.851562 17.238281 7.859375 17.183594 C 7.871094 17.183594 7.882812 17.179688 7.890625 17.179688 L 8.289062 17.179688 C 8.269531 17.234375 8.25 17.289062 8.238281 17.347656 C 8.132812 17.765625 8.3125 18.09375 8.605469 18.292969 " fill-opacity="1" fill-rule="nonzero"/><path fill="rgb(85.099792%, 84.709167%, 84.709167%)" d="M 7.007812 22.632812 C 7.007812 22.632812 7.007812 22.632812 7.007812 22.628906 C 7.007812 22.632812 7.007812 22.632812 7.007812 22.632812 M 7.007812 22.628906 C 7.007812 22.628906 7.007812 22.625 7.007812 22.625 C 7.007812 22.625 7.007812 22.628906 7.007812 22.628906 M 7.007812 22.625 C 7.007812 22.625 7.007812 22.621094 7.007812 22.621094 C 7.007812 22.621094 7.007812 22.625 7.007812 22.625 M 7.007812 22.621094 C 7.007812 22.617188 7.007812 22.617188 7.007812 22.613281 C 7.007812 22.617188 7.007812 22.617188 7.007812 22.621094 M 7.007812 22.613281 C 7.007812 22.613281 7.007812 22.613281 7.007812 22.609375 C 7.007812 22.613281 7.007812 22.613281 7.007812 22.613281 M 7.007812 22.609375 C 7.007812 22.609375 7.007812 22.605469 7.007812 22.605469 C 7.007812 22.605469 7.007812 22.609375 7.007812 22.609375 M 7.007812 22.605469 C 7.007812 22.601562 7.007812 22.601562 7.007812 22.601562 C 7.007812 22.601562 7.007812 22.601562 7.007812 22.605469 M 7.007812 22.601562 C 7.007812 22.597656 7.007812 22.597656 7.007812 22.59375 C 7.007812 22.597656 7.007812 22.597656 7.007812 22.601562 M 7.007812 22.59375 C 7.007812 22.59375 7.007812 22.59375 7.007812 22.589844 C 7.007812 22.59375 7.007812 22.59375 7.007812 22.59375 M 7.007812 22.589844 C 7.007812 22.589844 7.007812 22.585938 7.007812 22.585938 C 7.007812 22.585938 7.007812 22.589844 7.007812 22.589844 M 7.007812 22.585938 C 7.007812 22.582031 7.007812 22.582031 7.007812 22.582031 C 7.007812 22.582031 7.007812 22.582031 7.007812 22.585938 M 7.007812 22.582031 C 7.007812 22.578125 7.007812 22.578125 7.007812 22.578125 C 7.007812 22.578125 7.007812 22.578125 7.007812 22.582031 M 7.007812 22.574219 C 7.007812 22.574219 7.007812 22.574219 7.007812 22.570312 C 7.007812 22.574219 7.007812 22.574219 7.007812 22.574219 M 7.007812 22.570312 C 7.007812 22.570312 7.007812 22.566406 7.007812 22.566406 C 7.007812 22.566406 7.007812 22.570312 7.007812 22.570312 M 7.007812 22.566406 C 7.007812 22.566406 7.007812 22.5625 7.007812 22.5625 C 7.007812 22.5625 7.007812 22.566406 7.007812 22.566406 M 7.007812 22.5625 C 7.007812 22.558594 7.007812 22.558594 7.007812 22.554688 C 7.007812 22.558594 7.007812 22.558594 7.007812 22.5625 M 7.007812 22.554688 C 7.007812 22.554688 7.007812 22.554688 7.007812 22.550781 C 7.007812 22.554688 7.007812 22.554688 7.007812 22.554688 M 7.007812 22.550781 C 7.007812 22.550781 7.007812 22.546875 7.007812 22.546875 C 7.007812 22.546875 7.007812 22.550781 7.007812 22.550781 M 7.007812 22.546875 C 7.007812 22.546875 7.007812 22.542969 7.007812 22.542969 C 7.007812 22.542969 7.007812 22.546875 7.007812 22.546875 M 7.007812 22.542969 C 7.007812 22.539062 7.007812 22.539062 7.007812 22.539062 C 7.007812 22.539062 7.007812 22.539062 7.007812 22.542969 M 7.007812 22.535156 C 7.007812 22.535156 7.007812 22.535156 7.007812 22.53125 C 7.007812 22.535156 7.007812 22.535156 7.007812 22.535156 M 7.007812 22.53125 C 7.007812 22.53125 7.007812 22.527344 7.007812 22.527344 C 7.007812 22.527344 7.007812 22.53125 7.007812 22.53125 M 7.007812 22.527344 C 7.007812 22.527344 7.007812 22.523438 7.007812 22.523438 C 7.007812 22.523438 7.007812 22.527344 7.007812 22.527344 M 7.007812 22.523438 C 7.007812 22.519531 7.007812 22.519531 7.007812 22.519531 C 7.007812 22.519531 7.007812 22.519531 7.007812 22.523438 M 7.007812 22.519531 C 7.007812 22.515625 7.007812 22.515625 7.007812 22.511719 C 7.007812 22.515625 7.007812 22.515625 7.007812 22.519531 M 7.007812 22.511719 C 7.007812 22.511719 7.007812 22.511719 7.007812 22.507812 C 7.007812 22.511719 7.007812 22.511719 7.007812 22.511719 M 7.007812 22.507812 C 7.007812 22.507812 7.007812 22.503906 7.007812 22.503906 C 7.007812 22.503906 7.007812 22.507812 7.007812 22.507812 M 7.007812 22.503906 C 7.007812 22.5 7.007812 22.5 7.007812 22.5 C 7.007812 22.5 7.007812 22.5 7.007812 22.503906 M 7.007812 22.5 C 7.007812 22.496094 7.007812 22.496094 7.007812 22.492188 C 7.007812 22.496094 7.007812 22.496094 7.007812 22.5 M 7.007812 22.492188 C 7.007812 22.492188 7.007812 22.492188 7.011719 22.488281 C 7.007812 22.492188 7.007812 22.492188 7.007812 22.492188 M 7.011719 22.488281 C 7.011719 22.488281 7.011719 22.484375 7.011719 22.484375 C 7.011719 22.484375 7.011719 22.488281 7.011719 22.488281 M 7.011719 22.484375 C 7.011719 22.480469 7.011719 22.480469 7.011719 22.480469 C 7.011719 22.480469 7.011719 22.480469 7.011719 22.484375 M 7.011719 22.480469 C 7.011719 22.476562 7.011719 22.476562 7.011719 22.472656 C 7.011719 22.476562 7.011719 22.476562 7.011719 22.480469 M 7.011719 22.472656 C 7.011719 22.472656 7.011719 22.46875 7.011719 22.464844 C 7.011719 22.46875 7.011719 22.472656 7.011719 22.472656 M 7.011719 22.464844 C 7.011719 22.464844 7.011719 22.460938 7.011719 22.460938 C 7.011719 22.460938 7.011719 22.464844 7.011719 22.464844 M 7.011719 22.460938 C 7.011719 22.457031 7.011719 22.457031 7.011719 22.457031 C 7.011719 22.457031 7.011719 22.457031 7.011719 22.460938 M 7.011719 22.453125 C 7.011719 22.453125 7.011719 22.453125 7.011719 22.449219 C 7.011719 22.453125 7.011719 22.453125 7.011719 22.453125 M 7.011719 22.449219 C 7.011719 22.449219 7.011719 22.445312 7.011719 22.445312 C 7.011719 22.445312 7.011719 22.449219 7.011719 22.449219 M 7.011719 22.445312 C 7.011719 22.445312 7.011719 22.441406 7.011719 22.441406 C 7.011719 22.441406 7.011719 22.445312 7.011719 22.445312 M 7.011719 22.441406 C 7.011719 22.429688 7.011719 22.421875 7.015625 22.410156 C 7.011719 22.421875 7.011719 22.429688 7.011719 22.441406 M 7.015625 22.410156 C 7.015625 22.410156 7.015625 22.410156 7.015625 22.40625 C 7.015625 22.410156 7.015625 22.410156 7.015625 22.410156 M 7.015625 22.40625 C 7.121094 20.847656 8.335938 19.59375 9.871094 19.445312 C 9.277344 19.503906 8.734375 19.722656 8.285156 20.0625 C 7.566406 20.605469 7.082031 21.449219 7.015625 22.40625 " fill-opacity="1" fill-rule="nonzero"/><path fill="rgb(70.199585%, 18.818665%, 8.239746%)" d="M 7.007812 22.734375 C 6.738281 22.5625 6.539062 22.148438 6.539062 22.148438 C 6.535156 22.089844 6.414062 19.367188 7 17.976562 C 7.453125 18.980469 8.742188 19.246094 9.871094 19.445312 C 8.335938 19.59375 7.121094 20.847656 7.015625 22.40625 C 7.015625 22.410156 7.015625 22.410156 7.015625 22.410156 C 7.011719 22.421875 7.011719 22.429688 7.011719 22.441406 C 7.011719 22.441406 7.011719 22.445312 7.011719 22.445312 C 7.011719 22.445312 7.011719 22.449219 7.011719 22.449219 C 7.011719 22.453125 7.011719 22.453125 7.011719 22.453125 L 7.011719 22.457031 C 7.011719 22.457031 7.011719 22.457031 7.011719 22.460938 C 7.011719 22.460938 7.011719 22.464844 7.011719 22.464844 C 7.011719 22.46875 7.011719 22.472656 7.011719 22.472656 C 7.011719 22.476562 7.011719 22.476562 7.011719 22.480469 C 7.011719 22.480469 7.011719 22.480469 7.011719 22.484375 C 7.011719 22.484375 7.011719 22.488281 7.011719 22.488281 C 7.007812 22.492188 7.007812 22.492188 7.007812 22.492188 C 7.007812 22.496094 7.007812 22.496094 7.007812 22.5 C 7.007812 22.5 7.007812 22.5 7.007812 22.503906 C 7.007812 22.503906 7.007812 22.507812 7.007812 22.507812 C 7.007812 22.511719 7.007812 22.511719 7.007812 22.511719 C 7.007812 22.515625 7.007812 22.515625 7.007812 22.519531 C 7.007812 22.519531 7.007812 22.519531 7.007812 22.523438 C 7.007812 22.523438 7.007812 22.527344 7.007812 22.527344 C 7.007812 22.527344 7.007812 22.53125 7.007812 22.53125 C 7.007812 22.535156 7.007812 22.535156 7.007812 22.535156 C 7.007812 22.535156 7.007812 22.535156 7.007812 22.539062 C 7.007812 22.539062 7.007812 22.539062 7.007812 22.542969 C 7.007812 22.542969 7.007812 22.546875 7.007812 22.546875 C 7.007812 22.546875 7.007812 22.550781 7.007812 22.550781 C 7.007812 22.554688 7.007812 22.554688 7.007812 22.554688 C 7.007812 22.558594 7.007812 22.558594 7.007812 22.5625 C 7.007812 22.5625 7.007812 22.566406 7.007812 22.566406 C 7.007812 22.566406 7.007812 22.570312 7.007812 22.570312 C 7.007812 22.574219 7.007812 22.574219 7.007812 22.574219 C 7.007812 22.574219 7.007812 22.574219 7.007812 22.578125 C 7.007812 22.578125 7.007812 22.578125 7.007812 22.582031 C 7.007812 22.582031 7.007812 22.582031 7.007812 22.585938 C 7.007812 22.585938 7.007812 22.589844 7.007812 22.589844 C 7.007812 22.59375 7.007812 22.59375 7.007812 22.59375 C 7.007812 22.597656 7.007812 22.597656 7.007812 22.601562 C 7.007812 22.601562 7.007812 22.601562 7.007812 22.605469 C 7.007812 22.605469 7.007812 22.609375 7.007812 22.609375 C 7.007812 22.613281 7.007812 22.613281 7.007812 22.613281 C 7.007812 22.617188 7.007812 22.617188 7.007812 22.621094 C 7.007812 22.621094 7.007812 22.625 7.007812 22.625 C 7.007812 22.625 7.007812 22.628906 7.007812 22.628906 C 7.007812 22.632812 7.007812 22.632812 7.007812 22.632812 C 7.007812 22.667969 7.007812 22.703125 7.007812 22.734375 " fill-opacity="1" fill-rule="nonzero"/><path fill="rgb(85.099792%, 84.709167%, 84.709167%)" d="M 13.351562 22.632812 L 13.351562 22.632812 M 13.351562 22.628906 L 13.351562 22.628906 M 13.351562 22.628906 C 13.351562 22.628906 13.351562 22.625 13.351562 22.625 C 13.351562 22.625 13.351562 22.628906 13.351562 22.628906 M 13.351562 22.625 C 13.351562 22.625 13.351562 22.625 13.351562 22.621094 C 13.351562 22.625 13.351562 22.625 13.351562 22.625 M 13.351562 22.621094 L 13.351562 22.621094 M 13.351562 22.621094 C 13.351562 22.617188 13.351562 22.613281 13.351562 22.609375 C 13.351562 22.613281 13.351562 22.617188 13.351562 22.621094 M 13.351562 22.609375 L 13.351562 22.609375 M 13.351562 22.605469 L 13.351562 22.605469 M 13.351562 22.605469 C 13.34375 21.941406 13.140625 21.328125 12.792969 20.820312 C 12.609375 20.550781 12.386719 20.3125 12.132812 20.109375 C 12.132812 20.109375 12.132812 20.113281 12.136719 20.113281 C 12.867188 20.691406 13.339844 21.59375 13.351562 22.605469 " fill-opacity="1" fill-rule="nonzero"/><path fill="rgb(70.199585%, 18.818665%, 8.239746%)" d="M 13.378906 22.8125 C 13.367188 22.8125 13.355469 22.8125 13.34375 22.8125 C 13.347656 22.753906 13.351562 22.695312 13.351562 22.632812 C 13.351562 22.632812 13.351562 22.628906 13.351562 22.628906 C 13.351562 22.628906 13.351562 22.625 13.351562 22.625 C 13.351562 22.625 13.351562 22.625 13.351562 22.621094 C 13.351562 22.617188 13.351562 22.613281 13.351562 22.609375 C 13.351562 22.609375 13.351562 22.605469 13.351562 22.605469 C 13.339844 21.59375 12.867188 20.691406 12.136719 20.113281 C 12.613281 20.394531 12.914062 20.851562 13.179688 21.335938 C 13.441406 21.796875 13.707031 22.242188 14.027344 22.632812 L 13.359375 22.632812 C 13.359375 22.632812 13.359375 22.707031 13.378906 22.8125 " fill-opacity="1" fill-rule="nonzero"/><path fill="rgb(98.81897%, 98.81897%, 98.81897%)" d="M 16.03125 18.910156 C 15.414062 18 14.714844 17.269531 14.238281 17.1875 C 14.714844 17.269531 15.414062 18 16.03125 18.910156 M 14.238281 17.1875 C 14.238281 17.1875 14.234375 17.1875 14.234375 17.1875 C 14.234375 17.1875 14.238281 17.1875 14.238281 17.1875 M 14.234375 17.1875 C 14.230469 17.1875 14.230469 17.1875 14.230469 17.1875 C 14.230469 17.1875 14.230469 17.1875 14.234375 17.1875 M 14.230469 17.1875 C 14.230469 17.1875 14.226562 17.1875 14.226562 17.1875 C 14.226562 17.1875 14.230469 17.1875 14.230469 17.1875 M 14.226562 17.1875 C 14.226562 17.1875 14.226562 17.1875 14.222656 17.1875 C 14.226562 17.1875 14.226562 17.1875 14.226562 17.1875 M 14.222656 17.1875 C 14.222656 17.1875 14.222656 17.183594 14.21875 17.183594 C 14.222656 17.183594 14.222656 17.1875 14.222656 17.1875 M 14.21875 17.183594 L 14.21875 17.183594 M 14.21875 17.183594 C 14.21875 17.183594 14.214844 17.183594 14.214844 17.183594 C 14.214844 17.183594 14.21875 17.183594 14.21875 17.183594 M 14.214844 17.183594 C 14.214844 17.183594 14.214844 17.183594 14.210938 17.183594 C 14.214844 17.183594 14.214844 17.183594 14.214844 17.183594 M 14.210938 17.183594 L 14.210938 17.183594 M 14.210938 17.183594 C 14.210938 17.183594 14.210938 17.183594 14.207031 17.183594 C 14.210938 17.183594 14.210938 17.183594 14.210938 17.183594 M 14.207031 17.183594 L 14.207031 17.183594 M 14.207031 17.183594 C 14.207031 17.183594 14.207031 17.183594 14.203125 17.183594 C 14.207031 17.183594 14.207031 17.183594 14.207031 17.183594 M 14.203125 17.183594 L 14.203125 17.183594 M 14.203125 17.183594 C 14.203125 17.183594 14.203125 17.183594 14.199219 17.183594 C 14.203125 17.183594 14.203125 17.183594 14.203125 17.183594 M 14.199219 17.183594 L 14.199219 17.183594 M 14.199219 17.183594 C 14.199219 17.183594 14.195312 17.183594 14.195312 17.183594 C 14.195312 17.183594 14.199219 17.183594 14.199219 17.183594 M 14.195312 17.183594 C 14.195312 17.183594 14.195312 17.183594 14.191406 17.183594 C 14.195312 17.183594 14.195312 17.183594 14.195312 17.183594 M 14.191406 17.183594 C 14.191406 17.183594 14.191406 17.183594 14.1875 17.183594 C 14.191406 17.183594 14.191406 17.183594 14.191406 17.183594 M 14.1875 17.183594 L 14.1875 17.183594 M 14.1875 17.183594 C 14.1875 17.183594 14.183594 17.183594 14.183594 17.179688 C 14.183594 17.183594 14.1875 17.183594 14.1875 17.183594 M 14.183594 17.179688 L 14.183594 17.179688 M 14.183594 17.179688 C 14.183594 17.179688 14.183594 17.179688 14.179688 17.179688 C 14.183594 17.179688 14.183594 17.179688 14.183594 17.179688 M 14.179688 17.179688 L 14.179688 17.179688 M 14.179688 17.179688 C 14.179688 17.179688 14.179688 17.179688 14.175781 17.179688 C 14.179688 17.179688 14.179688 17.179688 14.179688 17.179688 M 14.175781 17.179688 L 14.175781 17.179688 M 14.175781 17.179688 C 14.175781 17.179688 14.175781 17.179688 14.171875 17.179688 C 14.175781 17.179688 14.175781 17.179688 14.175781 17.179688 M 14.171875 17.179688 L 14.171875 17.179688 M 14.171875 17.179688 C 14.171875 17.179688 14.171875 17.179688 14.167969 17.179688 C 14.171875 17.179688 14.171875 17.179688 14.171875 17.179688 M 14.167969 17.179688 L 14.167969 17.179688 M 14.167969 17.179688 C 14.167969 17.179688 14.167969 17.179688 14.164062 17.179688 C 14.167969 17.179688 14.167969 17.179688 14.167969 17.179688 M 14.164062 17.179688 L 14.164062 17.179688 M 14.164062 17.179688 L 14.164062 17.179688 M 14.160156 17.179688 L 14.160156 17.179688 M 14.160156 17.179688 L 14.160156 17.179688 M 14.15625 17.179688 L 14.15625 17.179688 M 14.15625 17.179688 C 14.15625 17.179688 14.15625 17.179688 14.152344 17.179688 C 14.15625 17.179688 14.15625 17.179688 14.15625 17.179688 " fill-opacity="1" fill-rule="nonzero"/><path fill="rgb(94.898987%, 34.509277%, 10.198975%)" d="M 16.335938 20.714844 C 16.078125 20.144531 15.890625 19.539062 15.746094 19.226562 C 15.339844 18.355469 14.601562 17.664062 13.644531 17.515625 C 13.046875 17.425781 12.351562 17.5 11.859375 17.179688 L 14.152344 17.179688 C 14.15625 17.179688 14.15625 17.179688 14.15625 17.179688 C 14.15625 17.179688 14.15625 17.179688 14.160156 17.179688 C 14.160156 17.179688 14.160156 17.179688 14.164062 17.179688 C 14.167969 17.179688 14.167969 17.179688 14.167969 17.179688 C 14.171875 17.179688 14.171875 17.179688 14.171875 17.179688 C 14.175781 17.179688 14.175781 17.179688 14.175781 17.179688 C 14.179688 17.179688 14.179688 17.179688 14.179688 17.179688 C 14.183594 17.179688 14.183594 17.179688 14.183594 17.179688 C 14.183594 17.183594 14.1875 17.183594 14.1875 17.183594 C 14.191406 17.183594 14.191406 17.183594 14.191406 17.183594 C 14.195312 17.183594 14.195312 17.183594 14.195312 17.183594 C 14.195312 17.183594 14.199219 17.183594 14.199219 17.183594 C 14.203125 17.183594 14.203125 17.183594 14.203125 17.183594 C 14.207031 17.183594 14.207031 17.183594 14.207031 17.183594 C 14.210938 17.183594 14.210938 17.183594 14.210938 17.183594 C 14.214844 17.183594 14.214844 17.183594 14.214844 17.183594 C 14.214844 17.183594 14.21875 17.183594 14.21875 17.183594 C 14.222656 17.183594 14.222656 17.1875 14.222656 17.1875 C 14.226562 17.1875 14.226562 17.1875 14.226562 17.1875 C 14.226562 17.1875 14.230469 17.1875 14.230469 17.1875 C 14.230469 17.1875 14.230469 17.1875 14.234375 17.1875 C 14.234375 17.1875 14.238281 17.1875 14.238281 17.1875 C 14.714844 17.269531 15.414062 18 16.03125 18.910156 C 16.136719 19.542969 16.25 20.222656 16.335938 20.714844 " fill-opacity="1" fill-rule="nonzero"/><path fill="rgb(29.019165%, 3.919983%, 4.708862%)" d="M 13.347656 22.535156 C 13.296875 20.808594 11.898438 19.429688 10.179688 19.429688 C 8.460938 19.429688 7.0625 20.808594 7.007812 22.535156 L 13.347656 22.535156 " fill-opacity="1" fill-rule="nonzero"/><path fill="rgb(99.21875%, 86.669922%, 6.269836%)" d="M 23.382812 12.113281 C 23.480469 12.523438 23.6875 12.828125 23.839844 12.789062 C 23.996094 12.75 24.042969 12.386719 23.945312 11.976562 C 23.847656 11.570312 23.640625 11.265625 23.488281 11.304688 C 23.332031 11.34375 23.285156 11.703125 23.382812 12.113281 " fill-opacity="1" fill-rule="nonzero"/><path fill="rgb(77.249146%, 56.858826%, 5.879211%)" d="M 23.949219 12.671875 L 23.863281 12.3125 C 23.90625 12.34375 23.949219 12.367188 23.996094 12.382812 C 23.996094 12.5 23.980469 12.601562 23.949219 12.671875 " fill-opacity="1" fill-rule="nonzero"/><path fill="rgb(77.648926%, 77.249146%, 77.249146%)" d="M 23.589844 11.160156 L 24 12.878906 C 23.550781 12.957031 22.625 12.785156 22.515625 12.332031 C 22.40625 11.875 23.152344 11.300781 23.589844 11.160156 " fill-opacity="1" fill-rule="nonzero"/><path fill="rgb(88.238525%, 87.838745%, 87.838745%)" d="M 22.753906 11.835938 L 22.742188 11.78125 C 22.957031 11.523438 23.300781 11.300781 23.542969 11.222656 L 23.601562 11.394531 C 23.269531 11.441406 22.960938 11.683594 22.753906 11.835938 " fill-opacity="1" fill-rule="nonzero"/><path fill="rgb(85.099792%, 84.709167%, 84.709167%)" d="M 23.765625 12.898438 C 23.765625 12.898438 23.761719 12.898438 23.761719 12.898438 C 23.761719 12.898438 23.765625 12.898438 23.765625 12.898438 M 23.765625 12.898438 C 23.851562 12.898438 23.929688 12.890625 24 12.878906 C 23.929688 12.890625 23.851562 12.898438 23.765625 12.898438 " fill-opacity="1" fill-rule="nonzero"/><path fill="rgb(67.449951%, 67.059326%, 67.059326%)" d="M 23.765625 12.898438 C 23.765625 12.898438 23.761719 12.898438 23.761719 12.898438 C 23.503906 12.898438 23.195312 12.84375 22.945312 12.738281 C 23.195312 12.847656 23.507812 12.898438 23.765625 12.898438 C 23.851562 12.898438 23.929688 12.890625 24 12.878906 C 23.929688 12.890625 23.851562 12.898438 23.765625 12.898438 M 24 12.878906 L 23.941406 12.628906 C 23.808594 12.691406 23.664062 12.722656 23.5 12.722656 C 23.476562 12.722656 23.453125 12.722656 23.425781 12.722656 C 23.273438 12.710938 23.09375 12.675781 22.921875 12.613281 L 22.890625 12.472656 C 23.019531 12.527344 23.164062 12.554688 23.300781 12.554688 C 23.519531 12.554688 23.726562 12.488281 23.875 12.355469 L 24 12.878906 " fill-opacity="1" fill-rule="nonzero"/><path fill="rgb(58.81958%, 58.039856%, 58.039856%)" d="M 23.765625 12.898438 C 23.507812 12.898438 23.195312 12.847656 22.945312 12.738281 L 22.921875 12.613281 C 23.09375 12.675781 23.273438 12.710938 23.425781 12.722656 C 23.453125 12.722656 23.476562 12.722656 23.5 12.722656 C 23.664062 12.722656 23.808594 12.691406 23.941406 12.628906 L 24 12.878906 C 23.929688 12.890625 23.851562 12.898438 23.765625 12.898438 " fill-opacity="1" fill-rule="nonzero"/><path fill="rgb(94.509888%, 31.759644%, 10.5896%)" d="M 22.738281 11.746094 C 22.71875 11.664062 22.640625 11.613281 22.558594 11.628906 L 22.273438 11.691406 L 22.558594 13.144531 L 22.863281 13.078125 C 22.945312 13.0625 22.996094 12.980469 22.980469 12.898438 L 22.738281 11.746094 " fill-opacity="1" fill-rule="nonzero"/><path fill="rgb(29.019165%, 3.919983%, 4.708862%)" d="M 20.664062 23.5625 C 20.664062 23.5625 18.953125 20.71875 21.191406 19.183594 C 24.941406 17.007812 26.546875 20.828125 26.546875 20.828125 L 20.664062 23.5625 " fill-opacity="1" fill-rule="nonzero"/><path fill="rgb(7.449341%, 5.879211%, 6.669617%)" d="M 21.085938 22.632812 C 21.085938 24.152344 22.304688 25.382812 23.804688 25.382812 C 25.308594 25.382812 26.527344 24.152344 26.527344 22.632812 C 26.527344 21.117188 25.308594 19.886719 23.804688 19.886719 C 22.304688 19.886719 21.085938 21.117188 21.085938 22.632812 " fill-opacity="1" fill-rule="nonzero"/><path fill="rgb(65.489197%, 64.709473%, 65.098572%)" d="M 22.105469 22.632812 C 22.105469 23.582031 22.867188 24.351562 23.804688 24.351562 C 24.742188 24.351562 25.503906 23.582031 25.503906 22.632812 C 25.503906 21.6875 24.742188 20.917969 23.804688 20.917969 C 22.867188 20.917969 22.105469 21.6875 22.105469 22.632812 " fill-opacity="1" fill-rule="nonzero"/><path fill="rgb(82.749939%, 82.348633%, 82.348633%)" d="M 23.335938 22.632812 C 23.335938 22.894531 23.546875 23.109375 23.804688 23.109375 C 24.066406 23.109375 24.273438 22.894531 24.273438 22.632812 C 24.273438 22.371094 24.066406 22.160156 23.804688 22.160156 C 23.546875 22.160156 23.335938 22.371094 23.335938 22.632812 " fill-opacity="1" fill-rule="nonzero"/><path fill="rgb(7.449341%, 5.879211%, 6.669617%)" d="M 7.457031 22.632812 C 7.457031 24.152344 8.675781 25.382812 10.179688 25.382812 C 11.679688 25.382812 12.898438 24.152344 12.898438 22.632812 C 12.898438 21.117188 11.679688 19.886719 10.179688 19.886719 C 8.675781 19.886719 7.457031 21.117188 7.457031 22.632812 " fill-opacity="1" fill-rule="nonzero"/><path fill="rgb(65.489197%, 64.709473%, 65.098572%)" d="M 8.480469 22.632812 C 8.480469 23.582031 9.238281 24.351562 10.179688 24.351562 C 11.117188 24.351562 11.875 23.582031 11.875 22.632812 C 11.875 21.6875 11.117188 20.917969 10.179688 20.917969 C 9.238281 20.917969 8.480469 21.6875 8.480469 22.632812 " fill-opacity="1" fill-rule="nonzero"/><path fill="rgb(6.669617%, 5.488586%, 5.879211%)" d="M 10.179688 24.351562 C 9.238281 24.351562 8.480469 23.582031 8.480469 22.632812 C 8.480469 23.582031 9.238281 24.351562 10.179688 24.351562 M 10.179688 24.351562 C 10.183594 24.351562 10.183594 24.351562 10.183594 24.351562 C 10.183594 24.351562 10.183594 24.351562 10.179688 24.351562 M 10.183594 24.351562 C 10.183594 24.351562 10.183594 24.351562 10.1875 24.351562 C 10.183594 24.351562 10.183594 24.351562 10.183594 24.351562 M 10.1875 24.351562 L 10.1875 24.351562 M 10.191406 24.351562 L 10.191406 24.351562 M 10.191406 24.351562 C 10.191406 24.351562 10.195312 24.351562 10.195312 24.351562 C 10.195312 24.351562 10.191406 24.351562 10.191406 24.351562 M 10.195312 24.351562 L 10.195312 24.351562 M 10.199219 24.351562 L 10.199219 24.351562 M 10.199219 24.351562 C 10.203125 24.351562 10.203125 24.351562 10.203125 24.351562 C 10.203125 24.351562 10.203125 24.351562 10.199219 24.351562 M 10.203125 24.351562 C 10.203125 24.351562 10.203125 24.351562 10.207031 24.351562 C 10.203125 24.351562 10.203125 24.351562 10.203125 24.351562 M 10.207031 24.351562 L 10.207031 24.351562 M 10.210938 24.351562 L 10.210938 24.351562 M 10.210938 24.351562 C 10.210938 24.351562 10.214844 24.351562 10.214844 24.351562 C 10.214844 24.351562 10.210938 24.351562 10.210938 24.351562 M 10.214844 24.351562 L 10.214844 24.351562 M 10.21875 24.351562 L 10.21875 24.351562 M 10.21875 24.351562 C 10.21875 24.351562 10.222656 24.351562 10.222656 24.351562 C 10.222656 24.351562 10.21875 24.351562 10.21875 24.351562 M 10.222656 24.351562 L 10.222656 24.351562 M 10.226562 24.351562 L 10.226562 24.351562 M 10.230469 24.351562 L 10.230469 24.351562 M 10.230469 24.351562 C 10.230469 24.351562 10.230469 24.351562 10.234375 24.347656 C 10.230469 24.351562 10.230469 24.351562 10.230469 24.351562 M 10.234375 24.347656 L 10.234375 24.347656 M 10.234375 24.347656 C 10.238281 24.347656 10.238281 24.347656 10.238281 24.347656 C 10.238281 24.347656 10.238281 24.347656 10.234375 24.347656 M 10.238281 24.347656 C 10.238281 24.347656 10.238281 24.347656 10.242188 24.347656 C 10.238281 24.347656 10.238281 24.347656 10.238281 24.347656 M 10.246094 24.347656 L 10.246094 24.347656 M 8.480469 22.632812 C 8.480469 22.632812 8.480469 22.628906 8.480469 22.628906 C 8.480469 22.628906 8.480469 22.632812 8.480469 22.632812 M 8.480469 22.628906 L 8.480469 22.628906 M 8.480469 22.625 L 8.480469 22.625 M 8.480469 22.621094 L 8.480469 22.621094 M 8.480469 22.621094 C 8.480469 22.621094 8.480469 22.617188 8.480469 22.617188 C 8.480469 22.617188 8.480469 22.621094 8.480469 22.621094 M 8.480469 22.617188 L 8.480469 22.617188 M 8.480469 22.613281 L 8.480469 22.613281 " fill-opacity="1" fill-rule="nonzero"/><path fill="rgb(56.858826%, 56.079102%, 56.469727%)" d="M 10.179688 24.351562 C 9.238281 24.351562 8.480469 23.582031 8.480469 22.632812 C 8.480469 22.632812 8.480469 22.628906 8.480469 22.628906 C 8.480469 22.625 8.480469 22.625 8.480469 22.625 C 8.480469 22.625 8.480469 22.625 8.480469 22.621094 C 8.480469 22.621094 8.480469 22.617188 8.480469 22.617188 C 8.480469 22.613281 8.480469 22.613281 8.480469 22.613281 C 8.480469 22.613281 8.480469 22.609375 8.480469 22.609375 C 8.488281 22.097656 8.714844 21.640625 9.074219 21.332031 C 8.9375 21.578125 8.863281 21.859375 8.863281 22.160156 C 8.863281 23.109375 9.621094 23.875 10.5625 23.875 C 10.984375 23.875 11.367188 23.71875 11.667969 23.460938 C 11.386719 23.972656 10.859375 24.324219 10.246094 24.347656 C 10.242188 24.347656 10.242188 24.347656 10.242188 24.347656 C 10.238281 24.347656 10.238281 24.347656 10.238281 24.347656 C 10.238281 24.347656 10.238281 24.347656 10.234375 24.347656 C 10.230469 24.351562 10.230469 24.351562 10.230469 24.351562 C 10.226562 24.351562 10.226562 24.351562 10.226562 24.351562 C 10.226562 24.351562 10.226562 24.351562 10.222656 24.351562 C 10.222656 24.351562 10.21875 24.351562 10.21875 24.351562 C 10.21875 24.351562 10.214844 24.351562 10.214844 24.351562 C 10.214844 24.351562 10.210938 24.351562 10.210938 24.351562 C 10.207031 24.351562 10.207031 24.351562 10.207031 24.351562 C 10.203125 24.351562 10.203125 24.351562 10.203125 24.351562 C 10.203125 24.351562 10.203125 24.351562 10.199219 24.351562 C 10.199219 24.351562 10.199219 24.351562 10.195312 24.351562 C 10.195312 24.351562 10.191406 24.351562 10.191406 24.351562 C 10.1875 24.351562 10.1875 24.351562 10.1875 24.351562 C 10.183594 24.351562 10.183594 24.351562 10.183594 24.351562 C 10.183594 24.351562 10.183594 24.351562 10.179688 24.351562 " fill-opacity="1" fill-rule="nonzero"/><path fill="rgb(82.749939%, 82.348633%, 82.348633%)" d="M 9.710938 22.632812 C 9.710938 22.894531 9.917969 23.109375 10.179688 23.109375 C 10.4375 23.109375 10.648438 22.894531 10.648438 22.632812 C 10.648438 22.371094 10.4375 22.160156 10.179688 22.160156 C 9.917969 22.160156 9.710938 22.371094 9.710938 22.632812 " fill-opacity="1" fill-rule="nonzero"/><path fill="rgb(94.119263%, 25.878906%, 11.759949%)" d="M 21.09375 13.808594 L 22.113281 13.15625 C 22.113281 13.15625 22.8125 13.921875 23.339844 15.472656 C 23.886719 17.085938 24.023438 19.148438 24.023438 19.335938 C 23.953125 19.328125 23.878906 19.328125 23.804688 19.328125 C 22.003906 19.328125 20.542969 20.808594 20.542969 22.632812 C 20.542969 22.894531 20.574219 23.144531 20.628906 23.386719 C 20.628906 23.386719 18.097656 22.632812 19.042969 22.632812 C 19.984375 22.632812 21.09375 13.808594 21.09375 13.808594 " fill-opacity="1" fill-rule="nonzero"/><path fill="rgb(94.509888%, 31.759644%, 10.5896%)" d="M 23.832031 17.578125 C 23.726562 16.914062 23.566406 16.152344 23.335938 15.472656 C 22.808594 13.921875 22.105469 13.15625 22.105469 13.15625 L 21.417969 13.644531 C 21.417969 13.644531 22.796875 16.117188 22.800781 19.484375 C 23.050781 19.402344 23.3125 19.351562 23.585938 19.335938 C 23.660156 19.328125 23.730469 19.328125 23.804688 19.328125 C 23.863281 19.328125 23.921875 19.328125 23.976562 19.332031 C 23.992188 19.332031 24.007812 19.332031 24.023438 19.335938 C 25.082031 19.40625 26 19.980469 26.546875 20.828125 L 26.546875 20.265625 C 26.378906 19.734375 25.109375 17.902344 23.832031 17.578125 " fill-opacity="1" fill-rule="nonzero"/><path fill="rgb(94.119263%, 25.878906%, 11.759949%)" d="M 20.402344 22.632812 L 20.5625 23.066406 C 20.582031 23.234375 20.617188 23.402344 20.664062 23.5625 C 20.664062 23.5625 14.785156 23.5625 14.089844 23.5625 C 13.390625 23.5625 13.359375 22.632812 13.359375 22.632812 L 20.402344 22.632812 " fill-opacity="1" fill-rule="nonzero"/><path fill="rgb(94.898987%, 34.509277%, 10.198975%)" d="M 18.394531 22.882812 C 18.253906 22.882812 18.113281 22.878906 17.980469 22.875 C 17.46875 22.863281 16.957031 22.8125 16.445312 22.757812 C 16.230469 22.734375 15.980469 22.695312 15.730469 22.632812 L 17.359375 22.632812 C 17.449219 22.664062 17.539062 22.683594 17.617188 22.6875 C 17.738281 22.699219 17.910156 22.703125 18.082031 22.703125 C 18.378906 22.703125 18.667969 22.691406 18.667969 22.691406 C 18.667969 22.691406 18.671875 22.671875 18.671875 22.632812 L 19.648438 22.632812 C 19.621094 22.652344 19.589844 22.667969 19.558594 22.683594 C 19.214844 22.851562 18.792969 22.882812 18.394531 22.882812 " fill-opacity="1" fill-rule="nonzero"/><path fill="rgb(81.17981%, 22.349548%, 9.799194%)" d="M 16.683594 23.5625 C 15.464844 23.5625 14.367188 23.5625 14.089844 23.5625 C 13.390625 23.5625 13.359375 22.632812 13.359375 22.632812 L 14 22.632812 C 14.566406 23.125 15.367188 23.351562 16.082031 23.476562 C 16.28125 23.511719 16.480469 23.542969 16.683594 23.5625 " fill-opacity="1" fill-rule="nonzero"/><path fill="rgb(81.17981%, 22.349548%, 9.799194%)" d="M 20.664062 23.5625 C 20.664062 23.5625 20.105469 23.5625 19.3125 23.5625 C 19.609375 23.503906 19.894531 23.398438 20.148438 23.238281 C 20.292969 23.140625 20.410156 23.03125 20.503906 22.90625 L 20.5625 23.066406 C 20.582031 23.234375 20.617188 23.402344 20.664062 23.5625 " fill-opacity="1" fill-rule="nonzero"/><path fill="rgb(74.119568%, 73.728943%, 73.728943%)" d="M 22.351562 11.324219 C 22.320312 11.183594 22.183594 11.09375 22.046875 11.125 L 20.703125 12.371094 C 20.5625 12.402344 20.472656 12.539062 20.503906 12.679688 L 20.765625 13.726562 C 20.796875 13.867188 20.933594 13.957031 21.070312 13.929688 L 22.570312 13.605469 C 22.710938 13.574219 22.796875 13.433594 22.769531 13.296875 L 22.351562 11.324219 " fill-opacity="1" fill-rule="nonzero"/><path fill="rgb(85.099792%, 84.709167%, 84.709167%)" d="M 22.769531 13.296875 L 22.730469 13.109375 L 22.769531 13.296875 " fill-opacity="1" fill-rule="nonzero"/><path fill="rgb(81.568909%, 27.449036%, 9.01947%)" d="M 22.730469 13.109375 L 22.609375 12.550781 L 22.492188 11.988281 L 22.730469 13.109375 " fill-opacity="1" fill-rule="nonzero"/><path fill="rgb(64.309692%, 63.919067%, 63.919067%)" d="M 21.015625 13.933594 C 20.898438 13.933594 20.792969 13.851562 20.765625 13.726562 L 20.742188 13.636719 C 21.347656 13.574219 21.949219 13.238281 22.246094 12.703125 C 22.371094 12.484375 22.449219 12.242188 22.492188 11.988281 L 22.609375 12.550781 C 22.554688 12.867188 22.417969 13.171875 22.199219 13.410156 C 22.027344 13.59375 21.832031 13.722656 21.621094 13.808594 L 22.570312 13.605469 L 22.457031 13.628906 L 21.515625 13.832031 L 21.082031 13.925781 L 21.070312 13.929688 C 21.054688 13.933594 21.035156 13.933594 21.015625 13.933594 " fill-opacity="1" fill-rule="nonzero"/><path fill="rgb(73.728943%, 73.329163%, 73.329163%)" d="M 22.769531 13.296875 L 22.730469 13.109375 L 22.769531 13.296875 " fill-opacity="1" fill-rule="nonzero"/><path fill="rgb(70.588684%, 23.529053%, 7.449341%)" d="M 22.730469 13.109375 L 22.609375 12.550781 L 22.730469 13.109375 " fill-opacity="1" fill-rule="nonzero"/><path fill="rgb(56.469727%, 55.688477%, 55.688477%)" d="M 21.621094 13.808594 C 21.832031 13.722656 22.027344 13.59375 22.199219 13.410156 C 22.417969 13.171875 22.554688 12.867188 22.609375 12.550781 L 22.730469 13.109375 L 22.769531 13.296875 C 22.773438 13.3125 22.773438 13.332031 22.773438 13.351562 C 22.773438 13.46875 22.691406 13.578125 22.570312 13.605469 L 21.621094 13.808594 " fill-opacity="1" fill-rule="nonzero"/><path fill="rgb(65.489197%, 64.709473%, 65.098572%)" d="M 19.738281 12.664062 C 19.769531 12.832031 19.929688 12.9375 20.09375 12.90625 L 21.542969 12.617188 C 21.707031 12.585938 21.8125 12.421875 21.78125 12.257812 C 21.75 12.089844 21.589844 11.984375 21.425781 12.015625 L 19.976562 12.304688 C 19.8125 12.339844 19.707031 12.5 19.738281 12.664062 " fill-opacity="1" fill-rule="nonzero"/><path fill="rgb(56.858826%, 56.079102%, 56.469727%)" d="M 20.175781 12.890625 C 20.175781 12.890625 20.175781 12.886719 20.175781 12.886719 C 20.175781 12.859375 20.171875 12.832031 20.164062 12.800781 C 20.234375 12.808594 20.304688 12.8125 20.375 12.8125 C 20.457031 12.8125 20.539062 12.808594 20.617188 12.789062 C 20.910156 12.730469 21.160156 12.570312 21.390625 12.386719 C 21.511719 12.289062 21.601562 12.183594 21.664062 12.070312 C 21.722656 12.117188 21.765625 12.179688 21.78125 12.257812 C 21.785156 12.277344 21.789062 12.296875 21.789062 12.316406 C 21.789062 12.460938 21.6875 12.589844 21.542969 12.617188 L 20.539062 12.816406 L 20.175781 12.890625 " fill-opacity="1" fill-rule="nonzero"/><path fill="rgb(16.079712%, 14.118958%, 17.248535%)" d="M 18.460938 12.914062 C 18.507812 13.132812 18.628906 13.324219 18.910156 13.269531 L 19.976562 13.054688 C 20.253906 13 20.171875 12.863281 20.128906 12.644531 C 20.128906 12.644531 20.097656 12.199219 19.820312 12.253906 L 18.753906 12.46875 C 18.472656 12.523438 18.460938 12.914062 18.460938 12.914062 " fill-opacity="1" fill-rule="nonzero"/><path fill="rgb(12.159729%, 10.5896%, 12.548828%)" d="M 18.816406 13.277344 C 18.644531 13.277344 18.542969 13.167969 18.492188 13.023438 C 18.542969 13.027344 18.597656 13.03125 18.648438 13.03125 C 19.167969 13.03125 19.730469 12.773438 20.050781 12.371094 C 20.117188 12.484375 20.128906 12.644531 20.128906 12.644531 C 20.148438 12.738281 20.175781 12.820312 20.175781 12.886719 C 20.175781 12.96875 20.132812 13.023438 19.976562 13.054688 L 18.910156 13.269531 C 18.875 13.273438 18.84375 13.277344 18.816406 13.277344 " fill-opacity="1" fill-rule="nonzero"/><path fill="rgb(16.079712%, 14.118958%, 17.248535%)" d="M 7.1875 16.632812 C 7.1875 16.9375 7.40625 17.179688 7.679688 17.179688 L 14.535156 17.179688 C 14.804688 17.179688 14.792969 16.496094 14.523438 16.496094 L 8.011719 15.789062 C 7.742188 15.789062 7.1875 16.332031 7.1875 16.632812 " fill-opacity="1" fill-rule="nonzero"/><path fill="rgb(74.899292%, 74.508667%, 74.899292%)" d="M 14.535156 17.179688 L 14.535156 17.179688 M 7.675781 17.179688 L 7.675781 17.179688 M 14.535156 17.179688 L 14.535156 17.179688 M 7.675781 17.179688 C 7.675781 17.179688 7.675781 17.179688 7.671875 17.179688 C 7.675781 17.179688 7.675781 17.179688 7.675781 17.179688 M 14.535156 17.179688 L 14.535156 17.179688 M 7.671875 17.179688 L 7.671875 17.179688 M 14.539062 17.179688 L 14.539062 17.179688 M 7.671875 17.179688 L 7.671875 17.179688 M 14.539062 17.179688 L 14.539062 17.179688 M 7.667969 17.179688 L 7.667969 17.179688 M 14.539062 17.179688 L 14.539062 17.179688 M 7.667969 17.179688 L 7.667969 17.179688 M 14.539062 17.179688 C 14.539062 17.179688 14.539062 17.179688 14.542969 17.179688 C 14.539062 17.179688 14.539062 17.179688 14.539062 17.179688 M 7.667969 17.179688 C 7.667969 17.179688 7.667969 17.179688 7.664062 17.179688 C 7.667969 17.179688 7.667969 17.179688 7.667969 17.179688 M 7.664062 17.179688 L 7.664062 17.179688 M 14.542969 17.179688 L 14.542969 17.179688 M 7.664062 17.179688 L 7.664062 17.179688 M 14.542969 17.179688 L 14.542969 17.179688 M 7.664062 17.179688 C 7.660156 17.179688 7.660156 17.179688 7.660156 17.179688 C 7.660156 17.179688 7.660156 17.179688 7.664062 17.179688 M 14.542969 17.179688 C 14.578125 17.179688 14.609375 17.164062 14.636719 17.140625 C 14.609375 17.164062 14.578125 17.179688 14.542969 17.179688 M 7.660156 17.179688 L 7.660156 17.179688 M 7.660156 17.179688 C 7.660156 17.179688 7.660156 17.179688 7.65625 17.179688 C 7.660156 17.179688 7.660156 17.179688 7.660156 17.179688 M 7.65625 17.179688 L 7.65625 17.179688 M 7.65625 17.179688 L 7.65625 17.179688 M 7.652344 17.179688 L 7.652344 17.179688 M 7.652344 17.179688 L 7.652344 17.179688 M 7.652344 17.179688 C 7.652344 17.179688 7.652344 17.179688 7.648438 17.179688 C 7.652344 17.179688 7.652344 17.179688 7.652344 17.179688 M 7.648438 17.179688 L 7.648438 17.179688 M 7.648438 17.179688 L 7.648438 17.179688 M 7.644531 17.179688 L 7.644531 17.179688 M 7.644531 17.179688 L 7.644531 17.179688 M 7.644531 17.179688 L 7.644531 17.179688 M 7.640625 17.179688 L 7.640625 17.179688 M 7.640625 17.179688 L 7.640625 17.179688 M 7.640625 17.179688 C 7.636719 17.179688 7.636719 17.179688 7.636719 17.179688 C 7.636719 17.179688 7.636719 17.179688 7.640625 17.179688 M 7.636719 17.179688 L 7.636719 17.179688 M 7.636719 17.179688 C 7.636719 17.179688 7.632812 17.179688 7.632812 17.179688 C 7.632812 17.179688 7.636719 17.179688 7.636719 17.179688 M 7.632812 17.179688 L 7.632812 17.179688 M 7.632812 17.179688 L 7.632812 17.179688 M 7.628906 17.179688 L 7.628906 17.179688 M 7.628906 17.179688 L 7.628906 17.179688 M 7.628906 17.179688 L 7.628906 17.179688 M 7.625 17.179688 C 7.625 17.179688 7.625 17.175781 7.625 17.175781 C 7.625 17.175781 7.625 17.179688 7.625 17.179688 M 7.625 17.175781 L 7.625 17.175781 M 7.625 17.175781 C 7.625 17.175781 7.621094 17.175781 7.621094 17.175781 C 7.621094 17.175781 7.625 17.175781 7.625 17.175781 M 14.636719 17.140625 L 14.636719 17.140625 " fill-opacity="1" fill-rule="nonzero"/><path fill="rgb(12.548828%, 10.978699%, 13.328552%)" d="M 14.535156 17.179688 L 7.679688 17.179688 C 7.679688 17.179688 7.675781 17.179688 7.675781 17.179688 C 7.675781 17.179688 7.675781 17.179688 7.671875 17.179688 C 7.671875 17.179688 7.671875 17.179688 7.667969 17.179688 C 7.667969 17.179688 7.667969 17.179688 7.664062 17.179688 C 7.660156 17.179688 7.660156 17.179688 7.660156 17.179688 C 7.660156 17.179688 7.660156 17.179688 7.65625 17.179688 C 7.65625 17.179688 7.652344 17.179688 7.652344 17.179688 C 7.652344 17.179688 7.652344 17.179688 7.648438 17.179688 C 7.648438 17.179688 7.648438 17.179688 7.644531 17.179688 C 7.640625 17.179688 7.640625 17.179688 7.640625 17.179688 C 7.636719 17.179688 7.636719 17.179688 7.636719 17.179688 C 7.636719 17.179688 7.632812 17.179688 7.632812 17.179688 C 7.632812 17.179688 7.628906 17.179688 7.628906 17.179688 C 7.625 17.179688 7.625 17.179688 7.625 17.179688 C 7.625 17.179688 7.625 17.175781 7.625 17.175781 C 7.625 17.175781 7.621094 17.175781 7.621094 17.175781 C 7.394531 17.148438 7.21875 16.949219 7.191406 16.699219 L 14.710938 16.699219 C 14.753906 16.851562 14.726562 17.054688 14.636719 17.140625 C 14.609375 17.164062 14.578125 17.179688 14.542969 17.179688 C 14.539062 17.179688 14.539062 17.179688 14.539062 17.179688 C 14.535156 17.179688 14.535156 17.179688 14.535156 17.179688 " fill-opacity="1" fill-rule="nonzero"/><path fill="rgb(96.469116%, 52.938843%, 7.058716%)" d="M 23.609375 17.433594 C 23.609375 17.433594 23.34375 16.539062 23.027344 15.683594 C 22.628906 14.609375 22.21875 13.984375 22.390625 13.933594 C 22.394531 13.933594 22.398438 13.933594 22.402344 13.933594 C 22.582031 13.933594 23.003906 14.894531 23.277344 15.882812 C 23.503906 16.6875 23.609375 17.433594 23.609375 17.433594 " fill-opacity="1" fill-rule="nonzero"/><path fill="rgb(96.469116%, 52.938843%, 7.058716%)" d="M 26.476562 20.214844 C 26.476562 20.214844 26.03125 19.5 25.367188 18.882812 C 24.535156 18.105469 23.789062 17.859375 23.921875 17.738281 C 23.933594 17.726562 23.953125 17.71875 23.976562 17.71875 C 24.210938 17.71875 24.957031 18.21875 25.589844 18.921875 C 26.152344 19.539062 26.476562 20.214844 26.476562 20.214844 " fill-opacity="1" fill-rule="nonzero"/><g clip-path="url(#clip-1)"><path fill="rgb(64.309692%, 45.098877%, 26.269531%)" d="M 7.007812 16.894531 C 7.007812 17.148438 6.804688 17.351562 6.554688 17.351562 L 2.402344 17.351562 C 2.152344 17.351562 1.949219 17.148438 1.949219 16.894531 L 1.949219 12.695312 C 1.949219 12.445312 2.152344 12.238281 2.402344 12.238281 L 6.554688 12.238281 C 6.804688 12.238281 7.007812 12.445312 7.007812 12.695312 L 7.007812 16.894531 " fill-opacity="1" fill-rule="nonzero"/></g><path fill="rgb(69.799805%, 51.759338%, 32.939148%)" d="M 2.042969 16.234375 C 2.042969 16.234375 2.042969 16.230469 2.042969 16.226562 L 2.042969 12.722656 C 2.042969 12.511719 2.210938 12.339844 2.421875 12.339844 L 5.890625 12.339844 C 6.082031 12.339844 2.699219 12.652344 2.699219 12.652344 C 2.488281 12.652344 2.320312 12.824219 2.320312 13.035156 C 2.320312 13.035156 2.058594 16.234375 2.042969 16.234375 " fill-opacity="1" fill-rule="nonzero"/><path fill="rgb(55.288696%, 37.249756%, 21.179199%)" d="M 6.417969 17.183594 L 2.539062 17.183594 C 7.21875 15.65625 6.417969 12.40625 6.417969 12.40625 C 6.652344 12.40625 6.84375 12.597656 6.84375 12.835938 L 6.84375 16.757812 C 6.84375 16.992188 6.652344 17.183594 6.417969 17.183594 " fill-opacity="1" fill-rule="nonzero"/><path fill="rgb(97.648621%, 66.668701%, 47.059631%)" d="M 17.566406 12.335938 C 17.566406 12.335938 18.328125 12.214844 18.640625 12.292969 C 18.949219 12.367188 18.976562 12.632812 18.976562 12.632812 C 18.976562 12.632812 19 13.480469 18.792969 13.371094 C 18.6875 13.316406 18.683594 12.667969 18.683594 12.667969 C 18.683594 12.667969 18.1875 13.039062 17.933594 13.011719 C 17.679688 12.988281 17.464844 12.753906 17.464844 12.753906 L 17.566406 12.335938 " fill-opacity="1" fill-rule="nonzero"/><path fill="rgb(16.079712%, 14.118958%, 17.248535%)" d="M 18.828125 12.941406 C 18.828125 13.171875 18.644531 13.359375 18.414062 13.359375 C 18.183594 13.359375 18 13.171875 18 12.941406 C 18 12.710938 18.183594 12.519531 18.414062 12.519531 C 18.644531 12.519531 18.828125 12.710938 18.828125 12.941406 " fill-opacity="1" fill-rule="nonzero"/><path fill="rgb(15.689087%, 8.628845%, 9.799194%)" d="M 16.480469 20.585938 C 16.480469 20.585938 16.605469 21.105469 16.59375 21.339844 C 16.578125 21.628906 16.28125 21.992188 16.464844 22.148438 C 16.796875 22.425781 17.289062 22.660156 17.617188 22.6875 C 17.945312 22.71875 18.667969 22.691406 18.667969 22.691406 C 18.667969 22.691406 18.730469 22.167969 18.210938 22.148438 C 17.691406 22.125 17.542969 21.507812 17.542969 21.507812 L 17.382812 20.917969 L 16.480469 20.585938 " fill-opacity="1" fill-rule="nonzero"/><path fill="rgb(8.239746%, 10.198975%, 10.978699%)" d="M 11.042969 14.070312 C 11.042969 14.070312 10.699219 16.320312 12.128906 16.320312 C 13.921875 16.320312 15.667969 16.75 15.738281 17.179688 C 15.8125 17.613281 16.457031 21.433594 16.457031 21.433594 L 17.65625 21.433594 C 17.65625 21.433594 17.660156 16.9375 17.351562 16.132812 C 17.066406 15.375 13.914062 14.070312 13.914062 14.070312 L 11.042969 14.070312 " fill-opacity="1" fill-rule="nonzero"/><path fill="rgb(6.269836%, 7.449341%, 7.839966%)" d="M 17.300781 21.433594 L 16.457031 21.433594 C 16.457031 21.433594 15.8125 17.613281 15.738281 17.179688 C 15.703125 16.976562 15.292969 16.773438 14.683594 16.613281 C 14 16.441406 13.070312 16.320312 12.128906 16.320312 C 11.910156 16.320312 11.734375 16.269531 11.589844 16.179688 C 11.195312 15.933594 11.058594 15.40625 11.019531 14.941406 C 11.230469 15.007812 11.425781 15.035156 11.605469 15.035156 C 12.023438 15.035156 12.371094 14.890625 12.695312 14.71875 C 12.714844 14.792969 12.742188 14.871094 12.777344 14.945312 C 13.066406 15.605469 13.929688 15.753906 14.550781 15.777344 C 15.144531 15.800781 15.925781 15.691406 16.339844 16.234375 C 16.632812 16.617188 16.710938 17.210938 16.707031 17.679688 C 16.703125 18.566406 16.492188 20.726562 17.300781 21.433594 " fill-opacity="1" fill-rule="nonzero"/><path fill="rgb(65.489197%, 64.709473%, 65.098572%)" d="M 8.183594 17.5625 C 8.183594 17.675781 8.089844 17.769531 7.976562 17.769531 L 2.652344 17.769531 C 2.539062 17.769531 2.449219 17.675781 2.449219 17.5625 C 2.449219 17.445312 2.539062 17.351562 2.652344 17.351562 L 7.976562 17.351562 C 8.089844 17.351562 8.183594 17.445312 8.183594 17.5625 " fill-opacity="1" fill-rule="nonzero"/><path fill="rgb(56.858826%, 56.079102%, 56.469727%)" d="M 7.976562 17.769531 L 2.652344 17.769531 C 2.539062 17.769531 2.449219 17.675781 2.449219 17.5625 C 2.449219 17.550781 2.449219 17.542969 2.449219 17.535156 L 8.179688 17.535156 C 8.179688 17.542969 8.183594 17.550781 8.183594 17.5625 C 8.183594 17.675781 8.089844 17.769531 7.976562 17.769531 " fill-opacity="1" fill-rule="nonzero"/><path fill="rgb(48.239136%, 47.44873%, 47.44873%)" d="M 8.101562 17.5625 C 8.101562 17.644531 8.035156 17.710938 7.953125 17.710938 C 7.867188 17.710938 7.800781 17.644531 7.800781 17.5625 C 7.800781 17.476562 7.867188 17.410156 7.953125 17.410156 C 8.035156 17.410156 8.101562 17.476562 8.101562 17.5625 " fill-opacity="1" fill-rule="nonzero"/><path fill="rgb(29.019165%, 3.919983%, 4.708862%)" d="M 10.371094 17.707031 C 10.371094 17.804688 10.292969 17.882812 10.199219 17.882812 L 8.992188 17.882812 C 8.898438 17.882812 8.820312 17.804688 8.820312 17.707031 C 8.820312 17.609375 8.898438 17.535156 8.992188 17.535156 L 10.199219 17.535156 C 10.292969 17.535156 10.371094 17.609375 10.371094 17.707031 " fill-opacity="1" fill-rule="nonzero"/><path fill="rgb(29.019165%, 3.919983%, 4.708862%)" d="M 10.597656 18.171875 C 10.597656 18.265625 10.519531 18.34375 10.425781 18.34375 L 9.21875 18.34375 C 9.125 18.34375 9.046875 18.265625 9.046875 18.171875 C 9.046875 18.074219 9.125 17.996094 9.21875 17.996094 L 10.425781 17.996094 C 10.519531 17.996094 10.597656 18.074219 10.597656 18.171875 " fill-opacity="1" fill-rule="nonzero"/><path fill="rgb(29.019165%, 3.919983%, 4.708862%)" d="M 10.953125 18.648438 C 10.953125 18.746094 10.875 18.824219 10.78125 18.824219 L 9.574219 18.824219 C 9.480469 18.824219 9.402344 18.746094 9.402344 18.648438 C 9.402344 18.554688 9.480469 18.476562 9.574219 18.476562 L 10.78125 18.476562 C 10.875 18.476562 10.953125 18.554688 10.953125 18.648438 " fill-opacity="1" fill-rule="nonzero"/><path fill="rgb(25.878906%, 63.919067%, 67.059326%)" d="M 11.621094 8.28125 C 11.621094 8.28125 11.167969 8.679688 11.167969 10.167969 C 11.167969 10.71875 10.675781 14.648438 10.953125 14.921875 C 11.769531 15.203125 12.351562 14.914062 12.878906 14.621094 C 13.390625 14.335938 13.855469 14.050781 14.4375 14.296875 C 14.078125 13.375 13.980469 9.796875 13.738281 9.101562 C 13.347656 7.972656 11.621094 8.28125 11.621094 8.28125 " fill-opacity="1" fill-rule="nonzero"/><path fill="rgb(85.099792%, 84.709167%, 84.709167%)" d="M 11.019531 14.941406 C 10.996094 14.933594 10.976562 14.929688 10.953125 14.921875 C 10.976562 14.929688 10.996094 14.933594 11.019531 14.941406 " fill-opacity="1" fill-rule="nonzero"/><path fill="rgb(7.449341%, 9.01947%, 9.408569%)" d="M 12.695312 14.71875 C 12.757812 14.6875 12.820312 14.652344 12.878906 14.621094 C 13.023438 14.539062 13.167969 14.457031 13.308594 14.390625 C 13.109375 14.488281 12.910156 14.609375 12.695312 14.71875 " fill-opacity="1" fill-rule="nonzero"/><path fill="rgb(5.488586%, 6.669617%, 6.669617%)" d="M 11.605469 15.035156 C 11.425781 15.035156 11.230469 15.007812 11.019531 14.941406 C 11.109375 14.972656 11.199219 14.992188 11.285156 15.007812 C 11.394531 15.027344 11.503906 15.035156 11.605469 15.035156 C 11.925781 15.035156 12.207031 14.949219 12.464844 14.832031 C 12.542969 14.796875 12.621094 14.757812 12.695312 14.71875 C 12.371094 14.890625 12.023438 15.035156 11.605469 15.035156 " fill-opacity="1" fill-rule="nonzero"/><path fill="rgb(22.349548%, 54.508972%, 57.649231%)" d="M 11.285156 15.007812 C 11.199219 14.992188 11.109375 14.972656 11.019531 14.941406 C 10.996094 14.933594 10.976562 14.929688 10.953125 14.921875 C 11.066406 14.960938 11.179688 14.988281 11.285156 15.007812 M 10.953125 14.921875 C 10.953125 14.921875 10.953125 14.921875 10.953125 14.917969 C 10.953125 14.921875 10.953125 14.921875 10.953125 14.921875 M 12.464844 14.832031 C 12.15625 14.722656 11.871094 14.523438 11.652344 14.253906 C 11.179688 13.675781 11.03125 12.925781 10.996094 12.164062 C 10.953125 12.671875 10.910156 13.203125 10.886719 13.660156 C 10.941406 12.570312 11.105469 11.074219 11.152344 10.425781 C 11.175781 10.167969 11.226562 9.90625 11.308594 9.648438 C 11.433594 9.234375 11.613281 8.847656 11.835938 8.492188 C 11.914062 8.546875 12.011719 8.609375 12.148438 8.683594 C 12.152344 8.6875 12.160156 8.691406 12.164062 8.695312 C 12.117188 8.789062 12.070312 8.886719 12.027344 8.984375 C 11.699219 9.117188 11.464844 9.4375 11.617188 9.96875 C 11.621094 9.96875 11.621094 9.972656 11.621094 9.972656 C 11.636719 10.023438 11.65625 10.074219 11.675781 10.128906 C 11.507812 10.910156 11.457031 11.734375 11.636719 12.511719 C 11.84375 13.414062 12.507812 14.089844 13.308594 14.390625 C 13.167969 14.457031 13.023438 14.539062 12.878906 14.621094 C 12.820312 14.652344 12.757812 14.6875 12.695312 14.71875 C 12.621094 14.757812 12.542969 14.796875 12.464844 14.832031 M 11.167969 10.167969 L 11.167969 10.167969 M 11.167969 10.167969 L 11.167969 10.167969 M 11.167969 10.167969 L 11.167969 10.167969 M 11.167969 10.167969 C 11.167969 8.679688 11.621094 8.28125 11.621094 8.28125 C 11.621094 8.28125 11.167969 8.679688 11.167969 10.167969 " fill-opacity="1" fill-rule="nonzero"/><path fill="rgb(85.099792%, 84.709167%, 84.709167%)" d="M 11.152344 10.429688 C 11.160156 10.3125 11.167969 10.226562 11.167969 10.167969 C 11.167969 10.226562 11.160156 10.3125 11.152344 10.425781 C 11.152344 10.425781 11.152344 10.429688 11.152344 10.429688 " fill-opacity="1" fill-rule="nonzero"/><path fill="rgb(19.219971%, 46.669006%, 49.409485%)" d="M 11.152344 10.425781 C 11.160156 10.3125 11.167969 10.226562 11.167969 10.167969 C 11.167969 8.679688 11.621094 8.28125 11.621094 8.28125 C 11.621094 8.28125 11.640625 8.351562 11.835938 8.492188 C 11.613281 8.847656 11.433594 9.234375 11.308594 9.648438 C 11.226562 9.90625 11.175781 10.167969 11.152344 10.425781 " fill-opacity="1" fill-rule="nonzero"/><path fill="rgb(85.099792%, 84.709167%, 84.709167%)" d="M 10.953125 14.917969 L 10.953125 14.917969 M 10.953125 14.917969 L 10.953125 14.917969 M 10.953125 14.917969 C 10.859375 14.824219 10.855469 14.316406 10.886719 13.660156 C 10.875 13.890625 10.867188 14.105469 10.867188 14.285156 C 10.867188 14.621094 10.890625 14.859375 10.953125 14.917969 " fill-opacity="1" fill-rule="nonzero"/><path fill="rgb(5.099487%, 5.879211%, 5.879211%)" d="M 11.605469 15.035156 C 11.503906 15.035156 11.394531 15.027344 11.285156 15.007812 C 11.394531 15.027344 11.503906 15.035156 11.605469 15.035156 C 11.925781 15.035156 12.207031 14.949219 12.464844 14.832031 C 12.207031 14.949219 11.925781 15.035156 11.605469 15.035156 " fill-opacity="1" fill-rule="nonzero"/><path fill="rgb(19.219971%, 46.669006%, 49.409485%)" d="M 11.605469 15.035156 C 11.503906 15.035156 11.394531 15.027344 11.285156 15.007812 C 11.179688 14.988281 11.066406 14.960938 10.953125 14.921875 C 10.953125 14.921875 10.953125 14.921875 10.953125 14.917969 C 10.890625 14.859375 10.867188 14.621094 10.867188 14.285156 C 10.867188 14.105469 10.875 13.890625 10.886719 13.660156 C 10.910156 13.203125 10.953125 12.671875 10.996094 12.164062 C 11.03125 12.925781 11.179688 13.675781 11.652344 14.253906 C 11.871094 14.523438 12.15625 14.722656 12.464844 14.832031 C 12.207031 14.949219 11.925781 15.035156 11.605469 15.035156 " fill-opacity="1" fill-rule="nonzero"/><path fill="rgb(97.648621%, 66.668701%, 47.059631%)" d="M 12.296875 10.257812 C 12.535156 11.066406 14.03125 12.175781 14.5625 12.449219 C 15.105469 12.730469 17.464844 12.753906 17.464844 12.753906 C 17.464844 12.753906 17.695312 12.328125 17.566406 12.335938 C 17.441406 12.339844 15.339844 11.90625 14.929688 11.773438 C 14.699219 11.699219 13.652344 10.296875 13.339844 9.910156 C 13.027344 9.527344 12.054688 9.449219 12.296875 10.257812 " fill-opacity="1" fill-rule="nonzero"/><path fill="rgb(100%, 100%, 100%)" d="M 13.503906 11.25 C 13.839844 10.851562 13.886719 10.460938 13.886719 10.460938 C 13.886719 10.460938 13.238281 9.464844 13.007812 9.179688 C 12.59375 8.667969 11.300781 8.898438 11.621094 9.972656 C 11.824219 10.660156 12.910156 11.773438 12.910156 11.773438 C 12.910156 11.773438 13.261719 11.535156 13.503906 11.25 " fill-opacity="1" fill-rule="nonzero"/><path fill="rgb(19.219971%, 46.669006%, 49.409485%)" d="M 11.675781 10.128906 C 11.65625 10.074219 11.636719 10.023438 11.621094 9.972656 C 11.636719 10.023438 11.65625 10.074219 11.675781 10.128906 " fill-opacity="1" fill-rule="nonzero"/><path fill="rgb(19.219971%, 46.669006%, 49.409485%)" d="M 11.621094 9.972656 C 11.621094 9.972656 11.621094 9.96875 11.617188 9.96875 C 11.621094 9.96875 11.621094 9.972656 11.621094 9.972656 M 11.617188 9.96875 L 11.617188 9.96875 " fill-opacity="1" fill-rule="nonzero"/><path fill="rgb(86.268616%, 85.879517%, 85.879517%)" d="M 12.910156 11.773438 C 12.910156 11.773438 11.976562 10.816406 11.675781 10.128906 C 11.65625 10.074219 11.636719 10.023438 11.621094 9.972656 C 11.621094 9.972656 11.621094 9.96875 11.617188 9.96875 C 11.535156 9.6875 11.5625 9.464844 11.65625 9.300781 C 11.859375 10.136719 12.421875 10.789062 13.316406 10.875 C 13.378906 10.878906 13.4375 10.882812 13.5 10.882812 C 13.585938 10.882812 13.671875 10.875 13.753906 10.863281 C 13.695312 10.984375 13.617188 11.117188 13.503906 11.25 C 13.425781 11.339844 13.339844 11.425781 13.257812 11.5 C 13.074219 11.664062 12.910156 11.773438 12.910156 11.773438 " fill-opacity="1" fill-rule="nonzero"/><path fill="rgb(100%, 100%, 100%)" d="M 11.976562 7.867188 L 11.621094 8.28125 C 11.621094 8.28125 11.660156 8.417969 12.148438 8.683594 C 12.636719 8.953125 13.492188 8.8125 13.789062 9.300781 C 13.707031 9.023438 13.640625 8.585938 13.277344 8.425781 C 12.914062 8.269531 11.976562 7.867188 11.976562 7.867188 " fill-opacity="1" fill-rule="nonzero"/><path fill="rgb(97.648621%, 66.668701%, 47.059631%)" d="M 11.886719 7.96875 C 12.097656 8.753906 13.324219 8.683594 13.324219 8.683594 C 13.324219 8.683594 13.148438 8.195312 13.464844 8.074219 C 14.058594 8.117188 14.65625 8.089844 14.886719 7.867188 C 15.039062 7.71875 15.046875 7.375 15.121094 6.941406 C 15.136719 6.839844 15.304688 6.949219 15.320312 6.757812 C 15.332031 6.59375 14.9375 6.382812 15.054688 5.886719 C 15.1875 5.308594 15.117188 4.265625 14.886719 4.160156 C 14.273438 3.871094 11.976562 4.160156 11.976562 4.160156 C 11.976562 4.160156 12.148438 7.746094 11.886719 7.96875 " fill-opacity="1" fill-rule="nonzero"/><path fill="rgb(90.589905%, 58.81958%, 39.608765%)" d="M 12.382812 8.519531 C 12.15625 8.414062 11.960938 8.246094 11.886719 7.972656 C 11.886719 7.972656 11.886719 7.96875 11.886719 7.96875 C 11.9375 7.925781 11.972656 7.761719 11.992188 7.523438 C 12.078125 7.503906 12.226562 7.4375 12.355469 7.226562 C 12.726562 7.1875 13.101562 7.007812 13.246094 6.726562 C 13.480469 6.285156 13.398438 5.984375 13.484375 5.722656 C 13.613281 5.589844 13.78125 5.488281 14.007812 5.488281 C 14.019531 5.488281 14.027344 5.492188 14.039062 5.492188 C 14.089844 5.492188 14.140625 5.492188 14.1875 5.492188 C 14.84375 5.492188 15.050781 5.300781 15.101562 5.226562 C 15.105469 5.226562 15.109375 5.226562 15.109375 5.226562 C 14.976562 5.582031 14.398438 5.660156 14.195312 5.753906 C 13.964844 5.863281 13.789062 6.015625 13.65625 6.238281 C 13.503906 6.492188 13.589844 6.867188 13.324219 7.042969 C 13.09375 7.199219 12.800781 7.222656 12.570312 7.390625 C 12.328125 7.566406 12.171875 7.84375 12.21875 8.148438 C 12.242188 8.292969 12.300781 8.414062 12.382812 8.519531 " fill-opacity="1" fill-rule="nonzero"/><path fill="rgb(15.689087%, 8.628845%, 9.799194%)" d="M 15.121094 5.199219 C 15.121094 5.199219 15.285156 3.707031 14.941406 3.5625 C 14.597656 3.417969 12.984375 3.214844 12.601562 3.382812 C 12.246094 3.539062 12.144531 3.964844 12.144531 3.964844 C 12.144531 3.964844 11.65625 3.933594 11.453125 4.457031 C 11.125 5.320312 11.921875 7.53125 11.921875 7.53125 C 11.921875 7.53125 12.367188 7.554688 12.554688 6.707031 C 12.316406 6.5625 12.171875 5.527344 12.578125 5.488281 C 12.984375 5.445312 13.152344 6.390625 13.152344 6.390625 C 13.152344 6.390625 13.335938 5.460938 14.039062 5.492188 C 14.984375 5.53125 15.121094 5.199219 15.121094 5.199219 " fill-opacity="1" fill-rule="nonzero"/><path fill="rgb(94.119263%, 25.099182%, 11.759949%)" d="M 13.246094 6.726562 C 13.035156 7.128906 12.359375 7.328125 11.886719 7.191406 C 11.417969 7.050781 10.664062 6.089844 10.660156 5.476562 C 10.65625 4.859375 11.375 2.902344 13.988281 3.09375 C 15.226562 3.1875 15.617188 4.066406 15.320312 5.132812 C 15.28125 5.273438 15.117188 5.230469 14.875 5.191406 C 14.601562 5.144531 14.230469 5.097656 13.847656 5.328125 C 13.222656 5.699219 13.605469 6.050781 13.246094 6.726562 " fill-opacity="1" fill-rule="nonzero"/><path fill="rgb(99.21875%, 99.21875%, 99.21875%)" d="M 13.996094 3.09375 C 13.992188 3.09375 13.992188 3.09375 13.992188 3.09375 C 13.992188 3.09375 13.992188 3.09375 13.996094 3.09375 M 13.992188 3.09375 C 13.992188 3.09375 13.988281 3.09375 13.988281 3.09375 C 13.988281 3.09375 13.992188 3.09375 13.992188 3.09375 M 13.988281 3.09375 C 13.960938 3.09375 13.933594 3.089844 13.910156 3.089844 C 13.933594 3.089844 13.960938 3.09375 13.988281 3.09375 " fill-opacity="1" fill-rule="nonzero"/><path fill="rgb(95.689392%, 45.489502%, 8.239746%)" d="M 15.394531 4.21875 C 15.324219 4.113281 15.242188 4.011719 15.152344 3.925781 C 14.710938 3.5 14.160156 3.328125 13.585938 3.328125 C 13.445312 3.328125 13.304688 3.339844 13.160156 3.359375 C 12.570312 3.4375 12.03125 3.648438 11.480469 3.84375 C 11.941406 3.417969 12.632812 3.082031 13.636719 3.082031 C 13.722656 3.082031 13.816406 3.085938 13.910156 3.089844 C 13.933594 3.089844 13.960938 3.09375 13.988281 3.09375 C 13.988281 3.09375 13.992188 3.09375 13.992188 3.09375 C 13.992188 3.09375 13.992188 3.09375 13.996094 3.09375 C 13.996094 3.09375 14 3.09375 14 3.09375 C 14.851562 3.164062 15.296875 3.601562 15.394531 4.21875 " fill-opacity="1" fill-rule="nonzero"/><path fill="rgb(81.17981%, 21.179199%, 9.799194%)" d="M 12.210938 7.234375 C 12.101562 7.234375 11.992188 7.222656 11.894531 7.195312 C 11.992188 7.222656 12.101562 7.234375 12.210938 7.234375 " fill-opacity="1" fill-rule="nonzero"/><path fill="rgb(85.099792%, 84.709167%, 84.709167%)" d="M 10.660156 5.433594 L 10.660156 5.433594 M 10.660156 5.429688 L 10.660156 5.429688 M 10.660156 5.425781 L 10.660156 5.425781 M 10.660156 5.425781 L 10.660156 5.425781 M 10.660156 5.421875 L 10.660156 5.421875 M 10.660156 5.421875 C 10.671875 5.269531 10.714844 5.058594 10.808594 4.824219 C 10.714844 5.058594 10.671875 5.269531 10.660156 5.421875 M 15.160156 5.230469 C 15.148438 5.230469 15.132812 5.230469 15.121094 5.226562 C 15.132812 5.230469 15.148438 5.230469 15.160156 5.230469 C 15.242188 5.230469 15.300781 5.207031 15.320312 5.132812 C 15.320312 5.128906 15.320312 5.128906 15.320312 5.128906 C 15.320312 5.128906 15.320312 5.128906 15.320312 5.132812 C 15.300781 5.207031 15.242188 5.230469 15.160156 5.230469 " fill-opacity="1" fill-rule="nonzero"/><path fill="rgb(85.099792%, 84.709167%, 84.709167%)" d="M 15.320312 5.128906 C 15.324219 5.128906 15.324219 5.125 15.324219 5.125 C 15.324219 5.125 15.324219 5.128906 15.320312 5.128906 M 15.324219 5.125 C 15.324219 5.121094 15.324219 5.121094 15.324219 5.117188 C 15.324219 5.121094 15.324219 5.121094 15.324219 5.125 M 15.324219 5.117188 L 15.324219 5.117188 M 15.324219 5.117188 C 15.347656 5.03125 15.367188 4.949219 15.382812 4.867188 C 15.367188 4.949219 15.347656 5.03125 15.324219 5.117188 " fill-opacity="1" fill-rule="nonzero"/><path fill="rgb(81.17981%, 21.179199%, 9.799194%)" d="M 12.03125 6.832031 C 11.6875 6.761719 11.421875 6.527344 11.148438 6.246094 C 10.964844 6.058594 10.886719 5.816406 10.730469 5.617188 C 10.707031 5.589844 10.683594 5.5625 10.664062 5.53125 C 10.6875 5.851562 10.894531 6.253906 11.15625 6.582031 C 10.878906 6.234375 10.664062 5.804688 10.660156 5.476562 C 10.660156 5.464844 10.660156 5.449219 10.660156 5.433594 C 10.660156 5.433594 10.660156 5.433594 10.660156 5.429688 C 10.660156 5.429688 10.660156 5.425781 10.660156 5.425781 C 10.660156 5.425781 10.660156 5.421875 10.660156 5.421875 C 10.671875 5.269531 10.714844 5.058594 10.808594 4.824219 C 10.972656 5.472656 11.078125 6.214844 11.738281 6.480469 C 11.789062 6.609375 11.878906 6.71875 11.992188 6.796875 C 12.003906 6.808594 12.015625 6.820312 12.03125 6.832031 M 13.101562 6.234375 C 13.082031 6.089844 13.019531 5.960938 12.925781 5.859375 C 12.964844 5.78125 13.007812 5.699219 13.050781 5.621094 C 13.316406 5.144531 13.675781 4.667969 14.46875 4.667969 C 14.726562 4.667969 15.027344 4.714844 15.386719 4.832031 C 15.386719 4.84375 15.382812 4.855469 15.382812 4.867188 C 15.367188 4.949219 15.347656 5.03125 15.324219 5.117188 C 15.324219 5.121094 15.324219 5.121094 15.324219 5.125 C 15.324219 5.125 15.324219 5.128906 15.320312 5.128906 C 15.320312 5.128906 15.320312 5.128906 15.320312 5.132812 C 15.300781 5.207031 15.242188 5.230469 15.160156 5.230469 C 15.148438 5.230469 15.132812 5.230469 15.121094 5.226562 C 15.113281 5.226562 15.109375 5.226562 15.101562 5.226562 C 15.039062 5.222656 14.960938 5.207031 14.875 5.191406 C 14.761719 5.171875 14.632812 5.152344 14.496094 5.152344 C 14.3125 5.152344 14.113281 5.1875 13.910156 5.292969 C 14.117188 5.1875 14.3125 5.152344 14.496094 5.152344 C 14.632812 5.152344 14.761719 5.171875 14.875 5.191406 C 14.988281 5.210938 15.085938 5.230469 15.160156 5.230469 C 15.195312 5.230469 15.230469 5.226562 15.253906 5.214844 C 15.023438 5.015625 14.746094 4.882812 14.441406 4.882812 C 14.351562 4.882812 14.261719 4.894531 14.171875 4.917969 C 13.460938 5.09375 13.417969 5.703125 13.101562 6.234375 " fill-opacity="1" fill-rule="nonzero"/><path fill="rgb(78.039551%, 50.588989%, 34.118652%)" d="M 12.355469 7.226562 C 12.726562 7.1875 13.101562 7.007812 13.246094 6.726562 C 13.480469 6.285156 13.398438 5.984375 13.484375 5.722656 C 13.398438 5.984375 13.480469 6.285156 13.246094 6.726562 C 13.101562 7.007812 12.726562 7.1875 12.355469 7.226562 " fill-opacity="1" fill-rule="nonzero"/><path fill="rgb(13.729858%, 7.449341%, 8.239746%)" d="M 12.210938 7.234375 C 12.261719 7.234375 12.308594 7.230469 12.355469 7.226562 C 12.308594 7.230469 12.261719 7.234375 12.210938 7.234375 M 11.894531 7.195312 C 11.894531 7.191406 11.894531 7.191406 11.894531 7.191406 C 11.894531 7.191406 11.894531 7.191406 11.894531 7.195312 M 11.886719 7.191406 L 11.886719 7.191406 M 13.484375 5.722656 C 13.535156 5.582031 13.628906 5.457031 13.847656 5.328125 C 13.867188 5.316406 13.890625 5.300781 13.910156 5.292969 C 13.890625 5.300781 13.867188 5.316406 13.847656 5.328125 C 13.628906 5.457031 13.535156 5.582031 13.484375 5.722656 " fill-opacity="1" fill-rule="nonzero"/><path fill="rgb(85.099792%, 84.709167%, 84.709167%)" d="M 11.796875 7.15625 C 11.597656 7.0625 11.363281 6.847656 11.160156 6.589844 C 11.363281 6.847656 11.597656 7.0625 11.796875 7.15625 " fill-opacity="1" fill-rule="nonzero"/><path fill="rgb(13.729858%, 7.449341%, 8.239746%)" d="M 11.886719 7.191406 C 11.859375 7.183594 11.828125 7.171875 11.796875 7.15625 C 11.828125 7.171875 11.859375 7.183594 11.886719 7.191406 " fill-opacity="1" fill-rule="nonzero"/><path fill="rgb(85.099792%, 84.709167%, 84.709167%)" d="M 11.160156 6.589844 L 11.160156 6.589844 M 11.15625 6.589844 C 11.15625 6.585938 11.15625 6.585938 11.15625 6.585938 C 11.15625 6.585938 11.15625 6.585938 11.15625 6.589844 M 11.15625 6.585938 L 11.15625 6.585938 M 11.15625 6.585938 C 11.15625 6.585938 11.15625 6.585938 11.15625 6.582031 C 11.15625 6.585938 11.15625 6.585938 11.15625 6.585938 " fill-opacity="1" fill-rule="nonzero"/><path fill="rgb(70.199585%, 18.03894%, 8.239746%)" d="M 12.210938 7.234375 C 12.101562 7.234375 11.992188 7.222656 11.894531 7.195312 C 11.894531 7.191406 11.894531 7.191406 11.894531 7.191406 C 11.890625 7.191406 11.890625 7.191406 11.886719 7.191406 C 11.667969 7.125 11.394531 6.886719 11.160156 6.589844 C 11.15625 6.589844 11.15625 6.589844 11.15625 6.589844 C 11.15625 6.585938 11.15625 6.585938 11.15625 6.585938 C 11.15625 6.585938 11.15625 6.585938 11.15625 6.582031 C 10.894531 6.253906 10.6875 5.851562 10.664062 5.53125 C 10.683594 5.5625 10.707031 5.589844 10.730469 5.617188 C 10.886719 5.816406 10.964844 6.058594 11.148438 6.246094 C 11.421875 6.527344 11.6875 6.761719 12.03125 6.832031 C 12.144531 6.929688 12.289062 6.984375 12.449219 6.984375 C 12.8125 6.984375 13.109375 6.6875 13.109375 6.320312 C 13.109375 6.289062 13.105469 6.261719 13.101562 6.234375 C 13.417969 5.703125 13.460938 5.09375 14.171875 4.917969 C 14.261719 4.894531 14.351562 4.882812 14.441406 4.882812 C 14.746094 4.882812 15.023438 5.015625 15.253906 5.214844 C 15.230469 5.226562 15.195312 5.230469 15.160156 5.230469 C 15.085938 5.230469 14.988281 5.210938 14.875 5.191406 C 14.761719 5.171875 14.632812 5.152344 14.496094 5.152344 C 14.3125 5.152344 14.117188 5.1875 13.910156 5.292969 C 13.890625 5.300781 13.867188 5.316406 13.847656 5.328125 C 13.222656 5.699219 13.605469 6.050781 13.246094 6.726562 C 13.082031 7.042969 12.628906 7.234375 12.210938 7.234375 " fill-opacity="1" fill-rule="nonzero"/><path fill="rgb(32.548523%, 4.708862%, 5.488586%)" d="M 13.109375 6.320312 C 13.109375 6.6875 12.8125 6.984375 12.449219 6.984375 C 12.085938 6.984375 11.792969 6.6875 11.792969 6.320312 C 11.792969 5.953125 12.085938 5.65625 12.449219 5.65625 C 12.8125 5.65625 13.109375 5.953125 13.109375 6.320312 " fill-opacity="1" fill-rule="nonzero"/><path fill="rgb(94.509888%, 31.759644%, 10.5896%)" d="M 13.011719 6.242188 C 13.011719 6.609375 12.71875 6.90625 12.355469 6.90625 C 11.992188 6.90625 11.695312 6.609375 11.695312 6.242188 C 11.695312 5.875 11.992188 5.578125 12.355469 5.578125 C 12.71875 5.578125 13.011719 5.875 13.011719 6.242188 " fill-opacity="1" fill-rule="nonzero"/><path fill="rgb(49.409485%, 8.239746%, 9.799194%)" d="M 12.800781 6.242188 C 12.800781 6.492188 12.601562 6.691406 12.355469 6.691406 C 12.109375 6.691406 11.90625 6.492188 11.90625 6.242188 C 11.90625 5.992188 12.109375 5.792969 12.355469 5.792969 C 12.601562 5.792969 12.800781 5.992188 12.800781 6.242188 " fill-opacity="1" fill-rule="nonzero"/><path fill="rgb(64.309692%, 18.03894%, 7.058716%)" d="M 11.90625 6.246094 L 11.90625 6.246094 M 11.90625 6.246094 C 11.90625 6.246094 11.90625 6.242188 11.90625 6.242188 C 11.90625 6.242188 11.90625 6.246094 11.90625 6.246094 M 11.90625 6.242188 L 11.90625 6.242188 M 12.363281 5.792969 L 12.363281 5.792969 M 12.363281 5.792969 L 12.363281 5.792969 M 12.363281 5.792969 L 12.363281 5.792969 M 12.359375 5.792969 L 12.359375 5.792969 M 12.359375 5.792969 L 12.359375 5.792969 M 12.359375 5.792969 C 12.359375 5.792969 12.355469 5.792969 12.355469 5.792969 C 12.355469 5.792969 12.359375 5.792969 12.359375 5.792969 M 12.355469 5.792969 L 12.355469 5.792969 M 12.355469 5.792969 L 12.355469 5.792969 " fill-opacity="1" fill-rule="nonzero"/><path fill="rgb(35.289001%, 5.099487%, 6.269836%)" d="M 12.027344 6.546875 C 11.953125 6.46875 11.910156 6.363281 11.90625 6.246094 C 11.90625 6.246094 11.90625 6.242188 11.90625 6.242188 C 11.90625 5.992188 12.109375 5.792969 12.355469 5.792969 C 12.355469 5.792969 12.359375 5.792969 12.359375 5.792969 C 12.359375 5.792969 12.359375 5.792969 12.363281 5.792969 C 12.367188 5.792969 12.367188 5.792969 12.367188 5.792969 C 12.527344 5.796875 12.664062 5.882812 12.738281 6.015625 C 12.65625 5.925781 12.542969 5.867188 12.410156 5.867188 C 12.164062 5.867188 11.964844 6.070312 11.964844 6.320312 C 11.964844 6.402344 11.988281 6.480469 12.027344 6.546875 " fill-opacity="1" fill-rule="nonzero"/></svg>