<?xml version="1.0" encoding="UTF-8"?><svg xmlns="http://www.w3.org/2000/svg" xmlns:xlink="http://www.w3.org/1999/xlink" contentScriptType="text/ecmascript" width="30" zoomAndPan="magnify" contentStyleType="text/css" viewBox="0 0 30 30.000001" height="30.000001" preserveAspectRatio="xMidYMid meet" version="1.0"><defs><clipPath id="clip-0"><path d="M 6 6.117188 L 9 6.117188 L 9 12 L 6 12 Z M 6 6.117188 " clip-rule="nonzero"/></clipPath><clipPath id="clip-1"><path d="M 3.800781 6.117188 L 8 6.117188 L 8 12 L 3.800781 12 Z M 3.800781 6.117188 " clip-rule="nonzero"/></clipPath><clipPath id="clip-2"><path d="M 9 17 L 23 17 L 23 22.8125 L 9 22.8125 Z M 9 17 " clip-rule="nonzero"/></clipPath><clipPath id="clip-3"><path d="M 23 18 L 26.300781 18 L 26.300781 22.8125 L 23 22.8125 Z M 23 18 " clip-rule="nonzero"/></clipPath></defs><path fill="rgb(43.919373%, 71.759033%, 27.839661%)" d="M 19.214844 18.785156 C 19.195312 18.839844 19.136719 18.871094 19.085938 18.851562 L 9.632812 15.617188 C 9.578125 15.597656 9.550781 15.539062 9.570312 15.484375 L 11.015625 11.191406 C 11.035156 11.136719 11.09375 11.109375 11.144531 11.128906 L 20.597656 14.359375 C 20.648438 14.378906 20.679688 14.4375 20.660156 14.492188 L 19.214844 18.785156 " fill-opacity="1" fill-rule="nonzero"/><path fill="rgb(55.288696%, 82.749939%, 38.038635%)" d="M 18.847656 18.238281 C 18.835938 18.285156 18.78125 18.308594 18.734375 18.292969 L 10.25 15.386719 C 10.203125 15.371094 10.175781 15.320312 10.1875 15.277344 L 11.378906 11.738281 C 11.394531 11.691406 11.449219 11.667969 11.496094 11.6875 L 19.980469 14.589844 C 20.027344 14.605469 20.054688 14.65625 20.042969 14.703125 L 18.847656 18.238281 " fill-opacity="1" fill-rule="nonzero"/><path fill="rgb(43.919373%, 71.759033%, 27.839661%)" d="M 16.34375 15.410156 C 16.113281 16.09375 15.375 16.457031 14.699219 16.226562 C 14.019531 15.996094 13.65625 15.253906 13.886719 14.570312 C 14.117188 13.886719 14.855469 13.519531 15.53125 13.75 C 16.210938 13.984375 16.574219 14.726562 16.34375 15.410156 " fill-opacity="1" fill-rule="nonzero"/><path fill="rgb(43.919373%, 71.759033%, 27.839661%)" d="M 11.378906 11.738281 L 11.058594 12.695312 C 11.628906 12.890625 12.246094 12.585938 12.441406 12.007812 L 11.496094 11.6875 C 11.449219 11.667969 11.394531 11.691406 11.378906 11.738281 " fill-opacity="1" fill-rule="nonzero"/><path fill="rgb(43.919373%, 71.759033%, 27.839661%)" d="M 10.242188 15.386719 L 11.195312 15.710938 C 11.386719 15.136719 11.082031 14.511719 10.511719 14.316406 L 10.191406 15.269531 C 10.175781 15.316406 10.199219 15.371094 10.242188 15.386719 " fill-opacity="1" fill-rule="nonzero"/><path fill="rgb(43.919373%, 71.759033%, 27.839661%)" d="M 20.042969 14.703125 L 19.71875 15.660156 C 19.148438 15.464844 18.84375 14.839844 19.035156 14.265625 L 19.980469 14.589844 C 20.027344 14.605469 20.054688 14.65625 20.042969 14.703125 " fill-opacity="1" fill-rule="nonzero"/><path fill="rgb(43.919373%, 71.759033%, 27.839661%)" d="M 18.742188 18.292969 L 17.789062 17.96875 C 17.984375 17.394531 18.601562 17.085938 19.171875 17.28125 L 18.851562 18.234375 C 18.835938 18.28125 18.785156 18.308594 18.742188 18.292969 " fill-opacity="1" fill-rule="nonzero"/><path fill="rgb(97.648621%, 66.668701%, 42.349243%)" d="M 15.601562 11.8125 C 15.601562 11.8125 13.847656 9.09375 13.140625 8.703125 C 13.140625 8.703125 12.019531 7.941406 7.464844 7.265625 L 6.675781 9.617188 C 6.675781 9.617188 9.199219 12.148438 9.40625 12.363281 C 9.617188 12.574219 10.457031 13.109375 10.929688 13.273438 C 11.402344 13.433594 13.238281 14.347656 13.238281 14.347656 C 13.238281 14.347656 13.664062 14.492188 13.910156 14.144531 C 14.054688 13.933594 14.066406 13.796875 13.953125 13.640625 C 13.953125 13.640625 13.828125 13.351562 12.074219 12.070312 C 11.527344 11.671875 11.003906 10.585938 11.25 10.441406 C 11.660156 10.191406 12.171875 10.3125 12.171875 10.3125 L 13.320312 11.078125 L 14.316406 12.210938 L 15.972656 12.777344 C 15.972656 12.777344 15.941406 12.292969 15.601562 11.8125 " fill-opacity="1" fill-rule="nonzero"/><path fill="rgb(97.24884%, 74.119568%, 56.469727%)" d="M 13.296875 13.238281 L 12.828125 13.886719 C 12.828125 13.886719 13.355469 14.296875 13.625 14.066406 C 13.957031 13.777344 13.628906 13.457031 13.296875 13.238281 " fill-opacity="1" fill-rule="nonzero"/><g clip-path="url(#clip-0)"><path fill="rgb(59.999084%, 87.059021%, 94.898987%)" d="M 6.453125 10.894531 L 7.496094 11.25 L 8.824219 7.304688 L 7.785156 6.949219 L 6.453125 10.894531 " fill-opacity="1" fill-rule="nonzero"/></g><g clip-path="url(#clip-1)"><path fill="rgb(20.779419%, 30.198669%, 49.798584%)" d="M 6.410156 11.554688 L 3.824219 10.671875 L 5.355469 6.121094 L 7.941406 7.003906 L 6.410156 11.554688 " fill-opacity="1" fill-rule="nonzero"/></g><g clip-path="url(#clip-2)"><path fill="rgb(97.648621%, 66.668701%, 42.349243%)" d="M 13.789062 22.75 C 13.109375 22.6875 9.132812 20.308594 9.132812 20.308594 C 9.132812 20.308594 8.945312 19.621094 9.941406 19.621094 C 10.933594 19.621094 13.605469 20.496094 13.605469 20.496094 L 15.355469 20.320312 C 15.355469 20.320312 14.8125 19.777344 15.523438 19.4375 C 16.105469 19.15625 18.683594 18.066406 19.304688 17.878906 C 19.925781 17.691406 22.222656 18.191406 22.96875 18.628906 L 22.96875 21.449219 C 22.96875 21.449219 14.472656 22.8125 13.789062 22.75 " fill-opacity="1" fill-rule="nonzero"/></g><path fill="rgb(97.24884%, 74.119568%, 56.469727%)" d="M 16.28125 19.421875 C 16.28125 19.421875 16.40625 20.136719 16.40625 20.300781 C 16.40625 20.300781 15.496094 20.53125 15.496094 19.863281 C 15.496094 19.433594 16.28125 19.421875 16.28125 19.421875 " fill-opacity="1" fill-rule="nonzero"/><path fill="rgb(90.979004%, 57.249451%, 34.509277%)" d="M 15.355469 20.320312 C 15.355469 20.320312 15.734375 20.632812 16.652344 20.445312 C 16.652344 20.445312 18.25 19.984375 18.4375 19.882812 C 18.4375 19.882812 19.800781 19.566406 20.570312 19.882812 C 20.570312 19.882812 16.621094 21.46875 15.355469 20.320312 " fill-opacity="1" fill-rule="nonzero"/><path fill="rgb(97.24884%, 74.119568%, 56.469727%)" d="M 10.394531 21.046875 L 10.582031 20.601562 C 10.582031 20.601562 9.609375 19.683594 9.195312 20.34375 C 9.355469 20.441406 9.816406 20.714844 10.394531 21.046875 " fill-opacity="1" fill-rule="nonzero"/><path fill="rgb(59.999084%, 87.059021%, 94.898987%)" d="M 23.859375 21.886719 L 22.636719 21.886719 L 22.636719 18.171875 L 23.859375 18.171875 L 23.859375 21.886719 " fill-opacity="1" fill-rule="nonzero"/><g clip-path="url(#clip-3)"><path fill="rgb(20.779419%, 30.198669%, 49.798584%)" d="M 26.28125 22.242188 L 23.527344 22.242188 L 23.527344 18.171875 L 26.28125 18.171875 L 26.28125 22.242188 " fill-opacity="1" fill-rule="nonzero"/></g></svg>