<?xml version="1.0" encoding="UTF-8"?><svg xmlns="http://www.w3.org/2000/svg" xmlns:xlink="http://www.w3.org/1999/xlink" contentScriptType="text/ecmascript" width="30" zoomAndPan="magnify" contentStyleType="text/css" viewBox="0 0 30 30.000001" height="30.000001" preserveAspectRatio="xMidYMid meet" version="1.0"><defs><clipPath id="clip-0"><path d="M 2.890625 26 L 26.839844 26 L 26.839844 27.273438 L 2.890625 27.273438 Z M 2.890625 26 " clip-rule="nonzero"/></clipPath><clipPath id="clip-1"><path d="M 2.890625 21 L 26.839844 21 L 26.839844 27 L 2.890625 27 Z M 2.890625 21 " clip-rule="nonzero"/></clipPath></defs><g clip-path="url(#clip-0)"><path fill="rgb(93.728638%, 83.529663%, 61.569214%)" d="M 2.894531 26.222656 L 26.835938 26.222656 L 26.835938 27.273438 L 2.894531 27.273438 L 2.894531 26.222656 " fill-opacity="1" fill-rule="evenodd"/></g><path fill="rgb(98.429871%, 75.689697%, 59.609985%)" d="M 16.550781 18.804688 C 17.03125 19.109375 18.109375 20.035156 18.617188 19.566406 C 19.125 19.097656 19.238281 17.960938 19.015625 16.71875 C 18.792969 15.480469 17.878906 16.394531 17.878906 16.394531 C 17.878906 16.394531 17.890625 17.042969 17.925781 17.425781 C 17.785156 17.296875 17.347656 16.15625 16.816406 17.984375 C 16.644531 18.570312 16.316406 18.660156 16.550781 18.804688 " fill-opacity="1" fill-rule="evenodd"/><path fill="rgb(98.429871%, 75.689697%, 59.609985%)" d="M 17.199219 13.207031 C 17.269531 13.066406 17.570312 12.921875 17.714844 13.207031 C 17.714844 13.207031 18.121094 12.945312 18.207031 13.398438 C 18.207031 13.398438 18.742188 13.308594 18.628906 13.738281 C 18.628906 13.738281 17.132812 13.347656 17.199219 13.207031 " fill-opacity="1" fill-rule="evenodd"/><path fill="rgb(97.24884%, 63.919067%, 44.309998%)" d="M 12.46875 14.398438 C 12.46875 14.398438 12.601562 15 12.167969 15.058594 C 11.734375 15.117188 13.179688 16.140625 13.855469 15.929688 C 14.53125 15.71875 15.144531 15.179688 15.144531 15.179688 L 14.367188 13.949219 L 12.46875 14.398438 " fill-opacity="1" fill-rule="evenodd"/><path fill="rgb(94.509888%, 28.239441%, 22.749329%)" d="M 16.878906 16.152344 C 16.878906 16.152344 17.636719 16.976562 17.78125 17.15625 C 17.921875 17.339844 17.1875 17.433594 16.96875 18.546875 L 16.339844 16.523438 L 16.878906 16.152344 " fill-opacity="1" fill-rule="evenodd"/><path fill="rgb(94.509888%, 28.239441%, 22.749329%)" d="M 16.699219 17.203125 C 17.054688 18.722656 17.433594 21.46875 17.433594 21.46875 L 14.011719 21.46875 C 14.394531 21.144531 13.371094 19.570312 14.011719 18.941406 C 14.773438 18.195312 16.460938 17.8125 16.699219 17.203125 " fill-opacity="1" fill-rule="evenodd"/><path fill="rgb(94.509888%, 28.239441%, 22.749329%)" d="M 10.480469 16.101562 C 10.480469 16.039062 10.195312 15.707031 10.191406 15.605469 C 10.136719 14.675781 12.292969 15 12.292969 15 C 13.25 15.867188 14.625 15.101562 14.625 15.101562 L 15.933594 15.1875 C 15.933594 15.1875 15.78125 15.289062 15.910156 15.671875 C 15.859375 15.679688 15.960938 16.851562 15.910156 16.871094 C 15.375 17.085938 14.523438 18.972656 13.808594 18.363281 C 13.09375 17.753906 12.605469 17.734375 12.097656 17.753906 C 11.90625 17.761719 11.03125 15.890625 10.480469 16.101562 " fill-opacity="1" fill-rule="evenodd"/><path fill="rgb(90.19928%, 23.139954%, 18.429565%)" d="M 15.910156 15.671875 C 15.976562 15.867188 16.117188 16.140625 16.394531 16.511719 C 16.628906 16.828125 16.738281 17.035156 16.828125 17.648438 C 16.589844 18.257812 16.289062 19.324219 15.53125 20.066406 C 14.886719 20.695312 14.394531 21.144531 14.011719 21.46875 L 10.261719 21.46875 L 10.261719 17.039062 C 10.261719 16.121094 10.472656 16.644531 10.480469 16.101562 C 11.03125 15.890625 11.539062 15.71875 11.730469 15.710938 C 12.238281 15.691406 13.140625 16.058594 13.855469 16.667969 C 14.570312 17.277344 15.21875 15.925781 15.753906 15.710938 C 15.804688 15.691406 15.859375 15.679688 15.910156 15.671875 " fill-opacity="1" fill-rule="evenodd"/><path fill="rgb(98.429871%, 75.689697%, 59.609985%)" d="M 15.988281 6.382812 C 16.667969 7.820312 16.613281 8.621094 16.617188 9.960938 C 16.617188 10.328125 16.59375 10.691406 16.546875 11.042969 C 16.316406 12.679688 15.503906 14.164062 13.398438 14.445312 C 11.292969 14.730469 9.507812 14.152344 8.339844 11.515625 C 6.832031 8.113281 14.914062 4.105469 15.988281 6.382812 " fill-opacity="1" fill-rule="evenodd"/><path fill="rgb(97.24884%, 63.919067%, 44.309998%)" d="M 13.273438 10.246094 C 13.167969 10.285156 13.078125 10.347656 13 10.429688 C 12.953125 10.472656 13.011719 10.578125 13.085938 10.5 C 13.179688 10.410156 13.292969 10.34375 13.417969 10.328125 C 13.523438 10.316406 13.636719 10.339844 13.726562 10.394531 C 13.78125 10.429688 13.867188 10.34375 13.769531 10.289062 C 13.621094 10.203125 13.433594 10.1875 13.273438 10.246094 " fill-opacity="1" fill-rule="nonzero"/><path fill="rgb(52.159119%, 40.779114%, 33.329773%)" d="M 10.699219 10.527344 C 10.695312 10.484375 10.714844 10.464844 10.726562 10.488281 C 10.777344 10.574219 10.851562 10.660156 10.949219 10.765625 C 11.078125 10.898438 11.296875 10.921875 11.484375 10.832031 C 11.667969 10.742188 11.804688 10.570312 11.84375 10.355469 C 11.867188 10.21875 11.917969 10.0625 11.941406 10.128906 C 11.980469 10.242188 11.960938 10.601562 11.753906 10.832031 C 11.578125 11.027344 11.277344 11.101562 11.042969 10.988281 C 10.882812 10.90625 10.710938 10.640625 10.699219 10.527344 " fill-opacity="1" fill-rule="nonzero"/><path fill="rgb(52.159119%, 40.779114%, 33.329773%)" d="M 15.582031 9.34375 C 15.570312 9.304688 15.542969 9.296875 15.542969 9.324219 C 15.53125 9.421875 15.503906 9.535156 15.457031 9.667969 C 15.394531 9.847656 15.207031 9.960938 15 9.957031 C 14.796875 9.957031 14.597656 9.859375 14.476562 9.679688 C 14.398438 9.566406 14.285156 9.449219 14.292969 9.515625 C 14.304688 9.636719 14.46875 9.957031 14.753906 10.074219 C 14.996094 10.179688 15.300781 10.117188 15.464844 9.910156 C 15.574219 9.769531 15.621094 9.453125 15.582031 9.34375 " fill-opacity="1" fill-rule="nonzero"/><path fill="rgb(98.81897%, 85.879517%, 46.669006%)" d="M 11.550781 8.414062 C 11.605469 8.40625 11.65625 8.410156 11.703125 8.464844 C 11.75 8.515625 11.738281 8.628906 11.71875 8.6875 C 11.589844 8.953125 11.324219 9.136719 11.015625 9.320312 C 10.890625 9.390625 10.703125 9.472656 10.585938 9.542969 C 10.585938 9.542969 10.445312 9.5625 10.46875 9.457031 C 10.480469 9.421875 10.515625 9.402344 10.550781 9.382812 C 10.820312 9.214844 10.980469 9.054688 11.195312 8.824219 C 11.289062 8.722656 11.363281 8.625 11.402344 8.542969 C 11.433594 8.476562 11.492188 8.421875 11.550781 8.414062 " fill-opacity="1" fill-rule="nonzero"/><path fill="rgb(98.81897%, 85.879517%, 46.669006%)" d="M 14.027344 7.78125 C 13.972656 7.789062 13.929688 7.808594 13.898438 7.871094 C 13.867188 7.9375 13.910156 8.039062 13.945312 8.089844 C 14.140625 8.304688 14.445312 8.40625 14.792969 8.492188 C 14.929688 8.523438 15.128906 8.546875 15.265625 8.582031 C 15.265625 8.582031 15.40625 8.558594 15.347656 8.46875 C 15.332031 8.4375 15.289062 8.429688 15.253906 8.417969 C 14.949219 8.335938 14.753906 8.230469 14.480469 8.070312 C 14.367188 8.003906 14.269531 7.925781 14.207031 7.859375 C 14.160156 7.808594 14.085938 7.773438 14.027344 7.78125 " fill-opacity="1" fill-rule="nonzero"/><path fill="rgb(74.119568%, 18.818665%, 13.328552%)" d="M 13.035156 12.777344 C 12.597656 12.242188 12.34375 11.390625 12.402344 11.390625 C 12.730469 11.378906 12.902344 11.453125 13.402344 11.332031 C 13.847656 11.222656 14.230469 10.875 14.261719 10.964844 C 14.28125 11.019531 14.519531 11.847656 14.414062 12.480469 C 13.898438 12.800781 13.414062 13.078125 13.035156 12.777344 " fill-opacity="1" fill-rule="evenodd"/><path fill="rgb(94.509888%, 28.239441%, 22.749329%)" d="M 13.035156 12.777344 C 13.292969 12.40625 13.753906 12.015625 14.414062 12.480469 C 14.359375 12.804688 14.214844 13.078125 13.902344 13.171875 C 13.574219 13.269531 13.277344 13.074219 13.035156 12.777344 " fill-opacity="1" fill-rule="evenodd"/><path fill="rgb(95.289612%, 61.959839%, 30.589294%)" d="M 15.453125 15.9375 C 16.121094 16.25 18.023438 16.984375 18.980469 17.027344 C 19.9375 17.074219 20.535156 16.980469 20.683594 16.515625 C 20.828125 16.050781 20.082031 15.488281 18.636719 15.066406 C 17.695312 14.792969 16.578125 14.074219 15.796875 14 C 15.015625 13.921875 13.984375 14.34375 14.390625 15.183594 C 14.558594 15.53125 14.78125 15.621094 15.453125 15.9375 " fill-opacity="1" fill-rule="evenodd"/><path fill="rgb(76.858521%, 29.019165%, 18.429565%)" d="M 14.347656 13.875 C 14.347656 13.875 13.871094 14.199219 14.613281 14.738281 C 15.378906 15.296875 17.074219 16.035156 18.144531 16.28125 C 19.210938 16.53125 20.785156 16.484375 20.398438 15.660156 C 20.007812 14.839844 14.347656 13.875 14.347656 13.875 " fill-opacity="1" fill-rule="evenodd"/><path fill="rgb(63.919067%, 78.819275%, 30.979919%)" d="M 14.421875 13.558594 C 14.226562 13.621094 14.023438 13.816406 14.390625 14 C 14.757812 14.179688 14.015625 14.476562 14.730469 14.546875 C 15.023438 14.574219 14.742188 15.023438 15.449219 14.90625 C 15.65625 14.875 15.507812 15.285156 16.128906 15.226562 C 16.75 15.171875 16.636719 15.605469 16.871094 15.597656 C 17.105469 15.59375 17.4375 15.757812 17.59375 15.914062 C 17.75 16.066406 17.910156 15.953125 18.21875 15.914062 C 18.523438 15.871094 18.304688 16.253906 18.703125 16.171875 C 19.105469 16.085938 19.09375 16.335938 19.554688 16.171875 C 20.011719 16.003906 20.039062 16.03125 20.386719 15.992188 C 20.730469 15.949219 20.882812 15.519531 20.703125 15.3125 C 20.527344 15.105469 20.386719 14.984375 20.386719 14.984375 L 15.449219 13.875 C 15.449219 13.875 14.621094 13.492188 14.421875 13.558594 " fill-opacity="1" fill-rule="evenodd"/><path fill="rgb(95.289612%, 61.959839%, 30.589294%)" d="M 15.484375 14.589844 C 16.152344 14.902344 18.054688 15.636719 19.011719 15.679688 C 19.96875 15.726562 20.566406 15.628906 20.710938 15.167969 C 20.859375 14.703125 20.113281 14.136719 18.667969 13.71875 C 17.726562 13.445312 16.609375 12.726562 15.828125 12.652344 C 15.046875 12.574219 14.015625 12.996094 14.421875 13.835938 C 14.589844 14.183594 14.8125 14.273438 15.484375 14.589844 " fill-opacity="1" fill-rule="evenodd"/><path fill="rgb(98.81897%, 85.099792%, 60.389709%)" d="M 15.675781 13.796875 C 15.664062 13.792969 15.648438 13.796875 15.636719 13.804688 C 15.625 13.816406 15.617188 13.828125 15.621094 13.84375 C 15.621094 13.898438 15.628906 13.976562 15.652344 14.003906 C 15.6875 14.050781 15.757812 14.058594 15.804688 14.023438 C 15.851562 13.984375 15.859375 13.914062 15.824219 13.863281 C 15.800781 13.835938 15.730469 13.8125 15.675781 13.796875 " fill-opacity="1" fill-rule="evenodd"/><path fill="rgb(89.7995%, 45.489502%, 18.818665%)" d="M 17.203125 14.726562 C 17.207031 14.710938 17.203125 14.695312 17.191406 14.6875 C 17.179688 14.675781 17.164062 14.671875 17.148438 14.675781 C 17.097656 14.6875 17.023438 14.710938 17 14.738281 C 16.960938 14.785156 16.964844 14.855469 17.011719 14.894531 C 17.058594 14.933594 17.125 14.929688 17.167969 14.882812 C 17.191406 14.855469 17.199219 14.78125 17.203125 14.726562 " fill-opacity="1" fill-rule="evenodd"/><path fill="rgb(98.81897%, 85.099792%, 60.389709%)" d="M 17.210938 13.835938 C 17.214844 13.824219 17.207031 13.808594 17.195312 13.796875 C 17.183594 13.789062 17.167969 13.785156 17.15625 13.789062 C 17.101562 13.800781 17.03125 13.824219 17.007812 13.847656 C 16.96875 13.894531 16.972656 13.964844 17.019531 14.007812 C 17.0625 14.046875 17.132812 14.042969 17.171875 13.996094 C 17.195312 13.96875 17.207031 13.894531 17.210938 13.835938 " fill-opacity="1" fill-rule="evenodd"/><path fill="rgb(89.7995%, 45.489502%, 18.818665%)" d="M 16.378906 14.488281 C 16.375 14.476562 16.363281 14.464844 16.351562 14.460938 C 16.335938 14.457031 16.320312 14.460938 16.308594 14.46875 C 16.265625 14.503906 16.210938 14.554688 16.203125 14.589844 C 16.1875 14.648438 16.222656 14.710938 16.28125 14.726562 C 16.339844 14.742188 16.398438 14.707031 16.414062 14.648438 C 16.421875 14.613281 16.398438 14.539062 16.378906 14.488281 " fill-opacity="1" fill-rule="evenodd"/><path fill="rgb(98.81897%, 85.099792%, 60.389709%)" d="M 16.289062 13.308594 C 16.300781 13.316406 16.316406 13.316406 16.332031 13.3125 C 16.34375 13.304688 16.355469 13.292969 16.359375 13.277344 C 16.371094 13.226562 16.382812 13.148438 16.371094 13.117188 C 16.347656 13.058594 16.28125 13.035156 16.226562 13.058594 C 16.171875 13.082031 16.144531 13.144531 16.167969 13.203125 C 16.179688 13.234375 16.242188 13.277344 16.289062 13.308594 " fill-opacity="1" fill-rule="evenodd"/><path fill="rgb(98.81897%, 85.099792%, 60.389709%)" d="M 18.515625 15.257812 C 18.507812 15.273438 18.507812 15.289062 18.515625 15.300781 C 18.523438 15.316406 18.539062 15.324219 18.554688 15.324219 C 18.605469 15.328125 18.683594 15.332031 18.710938 15.3125 C 18.765625 15.28125 18.78125 15.214844 18.75 15.160156 C 18.722656 15.109375 18.652344 15.089844 18.601562 15.121094 C 18.570312 15.140625 18.539062 15.207031 18.515625 15.257812 " fill-opacity="1" fill-rule="evenodd"/><path fill="rgb(98.81897%, 85.099792%, 60.389709%)" d="M 19.023438 14.324219 C 19.023438 14.339844 19.035156 14.351562 19.050781 14.355469 C 19.0625 14.363281 19.078125 14.359375 19.089844 14.351562 C 19.136719 14.320312 19.195312 14.273438 19.207031 14.238281 C 19.226562 14.183594 19.199219 14.117188 19.140625 14.097656 C 19.085938 14.074219 19.023438 14.105469 19 14.164062 C 18.988281 14.199219 19.007812 14.273438 19.023438 14.324219 " fill-opacity="1" fill-rule="evenodd"/><path fill="rgb(98.81897%, 85.099792%, 60.389709%)" d="M 18.136719 14.542969 C 18.152344 14.542969 18.164062 14.535156 18.175781 14.523438 C 18.183594 14.507812 18.183594 14.492188 18.179688 14.480469 C 18.160156 14.425781 18.128906 14.355469 18.101562 14.335938 C 18.050781 14.304688 17.980469 14.316406 17.949219 14.367188 C 17.914062 14.417969 17.929688 14.488281 17.976562 14.523438 C 18.007812 14.542969 18.082031 14.542969 18.136719 14.542969 " fill-opacity="1" fill-rule="evenodd"/><path fill="rgb(98.81897%, 85.099792%, 60.389709%)" d="M 17.925781 13.863281 C 17.933594 13.875 17.949219 13.882812 17.964844 13.882812 C 17.976562 13.882812 17.992188 13.875 18 13.863281 C 18.03125 13.816406 18.070312 13.753906 18.070312 13.71875 C 18.070312 13.65625 18.019531 13.605469 17.960938 13.605469 C 17.898438 13.609375 17.851562 13.660156 17.851562 13.71875 C 17.851562 13.753906 17.894531 13.820312 17.925781 13.863281 " fill-opacity="1" fill-rule="evenodd"/><path fill="rgb(98.81897%, 85.099792%, 60.389709%)" d="M 15.382812 13.300781 C 15.394531 13.308594 15.410156 13.308594 15.425781 13.304688 C 15.4375 13.296875 15.449219 13.285156 15.453125 13.269531 C 15.464844 13.21875 15.476562 13.140625 15.464844 13.109375 C 15.441406 13.050781 15.378906 13.023438 15.320312 13.046875 C 15.265625 13.070312 15.238281 13.136719 15.261719 13.195312 C 15.273438 13.226562 15.335938 13.269531 15.382812 13.300781 " fill-opacity="1" fill-rule="evenodd"/><path fill="rgb(98.81897%, 85.099792%, 60.389709%)" d="M 15.066406 13.710938 C 15.078125 13.699219 15.082031 13.683594 15.074219 13.667969 C 15.070312 13.65625 15.058594 13.644531 15.046875 13.640625 C 14.992188 13.621094 14.921875 13.601562 14.886719 13.613281 C 14.828125 13.632812 14.796875 13.695312 14.816406 13.753906 C 14.835938 13.8125 14.898438 13.84375 14.957031 13.828125 C 14.988281 13.816406 15.035156 13.753906 15.066406 13.710938 " fill-opacity="1" fill-rule="evenodd"/><path fill="rgb(98.81897%, 85.099792%, 60.389709%)" d="M 19.464844 14.929688 C 19.480469 14.925781 19.492188 14.917969 19.496094 14.902344 C 19.503906 14.890625 19.5 14.871094 19.492188 14.859375 C 19.464844 14.8125 19.421875 14.75 19.386719 14.738281 C 19.332031 14.714844 19.269531 14.742188 19.246094 14.796875 C 19.222656 14.855469 19.25 14.921875 19.304688 14.945312 C 19.335938 14.957031 19.410156 14.941406 19.464844 14.929688 " fill-opacity="1" fill-rule="evenodd"/><path fill="rgb(98.81897%, 85.099792%, 60.389709%)" d="M 19.1875 15.507812 C 19.199219 15.5 19.207031 15.484375 19.207031 15.46875 C 19.207031 15.453125 19.199219 15.441406 19.1875 15.429688 C 19.144531 15.398438 19.082031 15.355469 19.046875 15.355469 C 18.988281 15.351562 18.9375 15.402344 18.9375 15.464844 C 18.933594 15.527344 18.984375 15.578125 19.042969 15.578125 C 19.078125 15.578125 19.140625 15.539062 19.1875 15.507812 " fill-opacity="1" fill-rule="evenodd"/><path fill="rgb(98.81897%, 85.099792%, 60.389709%)" d="M 20.171875 14.800781 C 20.183594 14.808594 20.199219 14.8125 20.214844 14.804688 C 20.230469 14.800781 20.238281 14.789062 20.242188 14.773438 C 20.257812 14.722656 20.277344 14.648438 20.265625 14.613281 C 20.246094 14.554688 20.179688 14.523438 20.125 14.546875 C 20.066406 14.566406 20.039062 14.628906 20.058594 14.6875 C 20.070312 14.722656 20.128906 14.769531 20.171875 14.800781 " fill-opacity="1" fill-rule="evenodd"/><path fill="rgb(98.81897%, 85.099792%, 60.389709%)" d="M 17.972656 15.097656 C 17.984375 15.105469 18 15.109375 18.015625 15.101562 C 18.027344 15.097656 18.039062 15.085938 18.042969 15.070312 C 18.058594 15.019531 18.074219 14.945312 18.0625 14.910156 C 18.042969 14.851562 17.980469 14.820312 17.925781 14.84375 C 17.867188 14.863281 17.835938 14.925781 17.855469 14.984375 C 17.867188 15.019531 17.929688 15.066406 17.972656 15.097656 " fill-opacity="1" fill-rule="evenodd"/><path fill="rgb(98.81897%, 85.879517%, 46.669006%)" d="M 7.023438 7.175781 C 7.003906 7.167969 6.011719 6.75 6.167969 5.640625 C 6.328125 4.519531 7.570312 4.578125 7.570312 4.578125 C 7.3125 3.394531 8.542969 4.109375 8.542969 4.109375 C 8.542969 4.109375 8.226562 3.058594 8.976562 2.464844 C 9.722656 1.867188 10.402344 2.84375 10.402344 2.84375 C 10.402344 2.84375 10.582031 2.433594 11.09375 2.359375 C 11.609375 2.285156 11.898438 2.84375 11.898438 2.84375 C 11.898438 2.84375 12.492188 1.90625 13.941406 2.359375 C 15.390625 2.8125 14.886719 4.285156 14.886719 4.285156 C 14.886719 4.285156 15.222656 4.019531 15.476562 4.109375 C 15.730469 4.195312 15.632812 4.578125 15.632812 4.578125 C 15.632812 4.578125 16.113281 4.488281 16.472656 4.964844 C 16.832031 5.441406 16.320312 6.042969 16.320312 6.042969 C 16.320312 6.042969 16.847656 6.019531 17.0625 6.484375 C 17.40625 7.222656 16.863281 7.800781 16.863281 7.800781 C 17.308594 8.945312 16.613281 9.011719 16.613281 9.011719 C 16.613281 8.695312 15.941406 7.800781 15.941406 7.800781 C 15.375 7.601562 15.476562 7.070312 15.476562 7.070312 C 14.847656 7.410156 14.414062 6.777344 14.414062 6.777344 C 13.167969 7.773438 12.820312 6.484375 12.820312 6.484375 C 12.035156 7.765625 10.816406 7.175781 10.816406 7.175781 C 10.816406 7.175781 10.984375 7.390625 10.816406 7.738281 C 10.648438 8.085938 10.300781 7.984375 10.300781 7.984375 C 10.300781 7.984375 10.507812 8.171875 10.300781 8.566406 C 10.09375 8.957031 9.675781 8.914062 9.675781 8.914062 C 9.675781 8.914062 9.933594 9.09375 10 9.394531 C 9.726562 9.410156 7.617188 9.964844 7.570312 9.582031 C 7.496094 8.9375 7.136719 7.632812 6.824219 7.800781 C 6.515625 7.964844 7.019531 7.195312 7.023438 7.175781 " fill-opacity="1" fill-rule="evenodd"/><path fill="rgb(98.429871%, 77.249146%, 37.249756%)" d="M 7.003906 7.289062 C 6.96875 7.484375 6.929688 7.863281 7.164062 7.738281 C 7.476562 7.574219 7.816406 7.425781 7.820312 7.949219 C 7.824219 8.472656 8.183594 8.171875 8.296875 7.949219 C 8.414062 7.730469 8.507812 8.148438 8.433594 8.5625 C 8.355469 8.976562 8.761719 8.882812 8.933594 8.640625 C 9.105469 8.398438 9.265625 8.324219 9.339844 8.96875 C 9.386719 9.347656 9.726562 9.410156 10 9.394531 C 10.019531 9.488281 10.023438 9.585938 10 9.699219 C 9.886719 10.175781 9.46875 10.296875 9.46875 10.296875 C 9.46875 10.296875 9.859375 10.671875 9.46875 11.015625 C 9.078125 11.359375 9.414062 11.085938 9.386719 11.476562 C 9.300781 12.675781 7.863281 12.460938 7.375 12.03125 C 6.886719 11.601562 7.445312 10.933594 7.445312 10.933594 C 7.445312 10.933594 6.441406 10.953125 6.167969 10.296875 C 5.898438 9.640625 6.847656 9.230469 6.847656 9.230469 C 5.980469 8.75 6.761719 8.246094 6.761719 8.246094 C 6.761719 8.246094 6.40625 8.390625 6.273438 7.800781 C 6.140625 7.210938 7.023438 7.175781 7.023438 7.175781 L 7.003906 7.289062 " fill-opacity="1" fill-rule="evenodd"/><path fill="rgb(98.429871%, 75.689697%, 59.609985%)" d="M 8.816406 11.789062 C 8.621094 11.644531 8.386719 11.675781 8.105469 11.910156 C 7.824219 12.148438 7.753906 12.542969 8.027344 12.898438 C 8.300781 13.253906 9.011719 13.3125 9.273438 12.78125 C 9.539062 12.253906 9.011719 11.933594 8.816406 11.789062 " fill-opacity="1" fill-rule="evenodd"/><path fill="rgb(97.24884%, 63.919067%, 44.309998%)" d="M 8.363281 12.144531 C 8.515625 12.035156 8.757812 12.085938 8.867188 12.253906 C 8.953125 12.382812 8.972656 12.554688 8.914062 12.695312 C 8.882812 12.769531 8.785156 12.839844 8.707031 12.773438 C 8.675781 12.746094 8.65625 12.699219 8.644531 12.660156 L 8.640625 12.652344 C 8.640625 12.652344 8.621094 12.726562 8.566406 12.734375 C 8.445312 12.75 8.378906 12.453125 8.53125 12.382812 C 8.613281 12.339844 8.714844 12.410156 8.765625 12.5 C 8.761719 12.382812 8.679688 12.238281 8.53125 12.261719 C 8.46875 12.273438 8.414062 12.328125 8.398438 12.394531 C 8.386719 12.4375 8.386719 12.488281 8.394531 12.53125 C 8.394531 12.53125 8.402344 12.574219 8.378906 12.605469 C 8.335938 12.660156 8.234375 12.640625 8.21875 12.550781 C 8.195312 12.402344 8.238281 12.238281 8.355469 12.148438 C 8.355469 12.148438 8.359375 12.144531 8.363281 12.144531 " fill-opacity="1" fill-rule="nonzero"/><path fill="rgb(98.429871%, 75.689697%, 59.609985%)" d="M 16.066406 15.835938 C 16.058594 15.382812 16.015625 14.796875 16.238281 14.519531 C 16.464844 14.242188 16.730469 13.847656 16.878906 14 C 16.964844 14.09375 16.828125 14.21875 16.636719 14.429688 C 16.445312 14.644531 16.40625 14.753906 16.617188 14.570312 C 16.828125 14.386719 17.113281 14.039062 17.253906 14.175781 C 17.390625 14.316406 17.011719 14.5625 16.878906 14.710938 C 16.742188 14.859375 16.753906 14.921875 17.015625 14.710938 C 17.28125 14.503906 17.34375 14.421875 17.441406 14.519531 C 17.539062 14.617188 17.316406 14.761719 17.132812 14.933594 C 16.976562 15.082031 17.054688 15.078125 17.253906 14.933594 C 17.351562 14.859375 17.421875 14.800781 17.476562 14.871094 C 17.539062 14.953125 17.363281 15.085938 17.113281 15.3125 C 17.046875 15.367188 17.019531 15.503906 17.046875 15.648438 C 17.078125 15.816406 16.894531 16.222656 16.824219 16.339844 C 16.753906 16.457031 16.238281 16.257812 16.238281 16.257812 C 16.238281 16.257812 16.074219 16.285156 16.066406 15.835938 " fill-opacity="1" fill-rule="evenodd"/><g clip-path="url(#clip-1)"><path fill="rgb(97.24884%, 90.19928%, 70.588684%)" d="M 26.835938 26.226562 L 2.890625 26.226562 L 4.222656 21.347656 L 25.507812 21.347656 L 26.835938 26.226562 " fill-opacity="1" fill-rule="evenodd"/></g><path fill="rgb(95.689392%, 91.758728%, 88.238525%)" d="M 18.535156 22.261719 C 20.691406 22.261719 22.441406 22.914062 22.441406 23.714844 C 22.441406 24.519531 20.691406 25.171875 18.535156 25.171875 C 16.382812 25.171875 14.632812 24.519531 14.632812 23.714844 C 14.632812 22.914062 16.382812 22.261719 18.535156 22.261719 " fill-opacity="1" fill-rule="evenodd"/><path fill="rgb(100%, 100%, 100%)" d="M 18.535156 22.078125 C 20.691406 22.078125 22.441406 22.730469 22.441406 23.53125 C 22.441406 24.335938 20.691406 24.988281 18.535156 24.988281 C 16.382812 24.988281 14.632812 24.335938 14.632812 23.53125 C 14.632812 22.730469 16.382812 22.078125 18.535156 22.078125 " fill-opacity="1" fill-rule="evenodd"/><path fill="rgb(95.689392%, 91.758728%, 88.238525%)" d="M 18.535156 22.777344 C 19.65625 22.777344 20.5625 23.117188 20.5625 23.53125 C 20.5625 23.949219 19.65625 24.289062 18.535156 24.289062 C 17.417969 24.289062 16.511719 23.949219 16.511719 23.53125 C 16.511719 23.117188 17.417969 22.777344 18.535156 22.777344 " fill-opacity="1" fill-rule="evenodd"/><path fill="rgb(95.689392%, 70.199585%, 24.708557%)" d="M 19.519531 22.105469 C 20.402344 22.160156 21.382812 22.855469 21.339844 23.714844 L 21.25 23.722656 C 20.171875 23.789062 17.429688 24.164062 16.714844 23.925781 C 16 23.683594 15.714844 23.527344 16.601562 23.421875 C 16.851562 23.390625 17.417969 23.082031 17.636719 22.964844 C 18.152344 22.691406 19.007812 22.324219 19.519531 22.105469 " fill-opacity="1" fill-rule="evenodd"/><path fill="rgb(76.858521%, 29.019165%, 18.429565%)" d="M 18.78125 23.09375 C 18.582031 22.921875 18.878906 22.8125 19.078125 22.777344 C 19.273438 22.746094 19.402344 22.453125 19.613281 22.628906 C 19.78125 22.769531 19.453125 23.667969 18.78125 23.09375 " fill-opacity="1" fill-rule="evenodd"/><path fill="rgb(63.919067%, 78.819275%, 30.979919%)" d="M 19.894531 23.0625 C 19.976562 23.1875 19.902344 23.28125 19.824219 23.484375 C 19.746094 23.6875 19.980469 23.773438 20.148438 23.75 C 20.3125 23.726562 20.390625 23.542969 20.292969 23.339844 C 20.195312 23.136719 19.792969 22.917969 19.894531 23.0625 " fill-opacity="1" fill-rule="evenodd"/><path fill="rgb(63.919067%, 78.819275%, 30.979919%)" d="M 18.457031 23.054688 C 18.386719 23.039062 18.386719 22.976562 18.355469 22.878906 C 18.324219 22.777344 18.207031 22.820312 18.152344 22.882812 C 18.09375 22.949219 18.121094 23.039062 18.21875 23.085938 C 18.316406 23.128906 18.539062 23.078125 18.457031 23.054688 " fill-opacity="1" fill-rule="evenodd"/><path fill="rgb(90.19928%, 54.119873%, 26.269531%)" d="M 19.519531 22.105469 C 19.707031 22.023438 19.851562 21.960938 19.910156 21.933594 C 20.128906 21.824219 20.710938 22.097656 21.125 22.574219 C 21.527344 23.035156 22.28125 23.621094 21.339844 23.714844 C 20.945312 23.132812 19.980469 22.425781 19.519531 22.105469 " fill-opacity="1" fill-rule="evenodd"/><path fill="rgb(95.289612%, 61.959839%, 30.589294%)" d="M 6.457031 23.433594 C 5.953125 23.4375 4.867188 23.386719 4.886719 22.691406 C 4.90625 21.996094 5.464844 22.121094 6.027344 22.199219 C 6.59375 22.277344 6.917969 22.257812 7.300781 22.351562 C 7.644531 22.4375 8.332031 22.632812 7.792969 23.21875 C 7.554688 23.476562 6.886719 23.433594 6.457031 23.433594 " fill-opacity="1" fill-rule="evenodd"/><path fill="rgb(76.858521%, 29.019165%, 18.429565%)" d="M 4.683594 22.472656 C 4.683594 22.472656 4.777344 23.066406 5.554688 23.136719 C 6.332031 23.210938 8.292969 23.25 7.910156 22.933594 C 7.527344 22.617188 4.683594 22.472656 4.683594 22.472656 " fill-opacity="1" fill-rule="evenodd"/><path fill="rgb(63.919067%, 78.819275%, 30.979919%)" d="M 4.996094 21.851562 C 4.816406 21.957031 4.277344 22.359375 4.722656 22.582031 C 5.101562 22.769531 4.921875 22.921875 5.304688 23.070312 C 5.6875 23.214844 5.488281 22.824219 5.808594 22.902344 C 6.132812 22.984375 6.402344 23.296875 6.707031 23.03125 C 7.007812 22.765625 7.320312 23.164062 7.71875 23.082031 C 8.117188 22.996094 8.269531 22.792969 8.019531 22.519531 C 7.769531 22.25 8.019531 21.976562 7.785156 22.019531 C 7.546875 22.058594 5.171875 21.75 4.996094 21.851562 " fill-opacity="1" fill-rule="evenodd"/><path fill="rgb(95.289612%, 61.959839%, 30.589294%)" d="M 6.277344 20.726562 C 6.773438 20.625 7.589844 20.933594 7.867188 21.523438 C 8.007812 21.816406 8.105469 22.316406 7.960938 22.457031 C 7.851562 22.558594 7.554688 22.566406 7.230469 22.585938 C 6.65625 22.617188 5.824219 22.5 5.445312 22.398438 C 5.101562 22.304688 4.515625 22.179688 4.960938 21.523438 C 5.40625 20.867188 5.960938 20.792969 6.277344 20.726562 " fill-opacity="1" fill-rule="evenodd"/><path fill="rgb(98.81897%, 85.099792%, 60.389709%)" d="M 5.484375 21.363281 C 5.480469 21.375 5.480469 21.386719 5.488281 21.398438 C 5.492188 21.40625 5.503906 21.414062 5.515625 21.414062 C 5.5625 21.417969 5.628906 21.421875 5.652344 21.40625 C 5.699219 21.382812 5.710938 21.328125 5.6875 21.285156 C 5.660156 21.242188 5.601562 21.230469 5.558594 21.253906 C 5.53125 21.269531 5.503906 21.324219 5.484375 21.363281 " fill-opacity="1" fill-rule="evenodd"/><path fill="rgb(98.81897%, 85.099792%, 60.389709%)" d="M 7.378906 21.507812 C 7.390625 21.503906 7.398438 21.492188 7.398438 21.480469 C 7.398438 21.46875 7.394531 21.457031 7.382812 21.449219 C 7.351562 21.421875 7.300781 21.382812 7.269531 21.378906 C 7.21875 21.375 7.171875 21.410156 7.167969 21.457031 C 7.164062 21.507812 7.199219 21.550781 7.25 21.554688 C 7.28125 21.558594 7.339844 21.53125 7.378906 21.507812 " fill-opacity="1" fill-rule="evenodd"/><path fill="rgb(98.81897%, 85.099792%, 60.389709%)" d="M 6.40625 20.945312 C 6.410156 20.957031 6.417969 20.96875 6.429688 20.972656 C 6.441406 20.976562 6.453125 20.972656 6.464844 20.96875 C 6.503906 20.941406 6.554688 20.90625 6.5625 20.878906 C 6.582031 20.832031 6.554688 20.78125 6.507812 20.765625 C 6.460938 20.75 6.40625 20.773438 6.386719 20.820312 C 6.378906 20.84375 6.394531 20.90625 6.40625 20.945312 " fill-opacity="1" fill-rule="evenodd"/><path fill="rgb(98.81897%, 85.099792%, 60.389709%)" d="M 6.617188 21.421875 C 6.621094 21.410156 6.621094 21.394531 6.613281 21.386719 C 6.605469 21.375 6.59375 21.371094 6.582031 21.371094 C 6.535156 21.371094 6.472656 21.371094 6.449219 21.386719 C 6.40625 21.414062 6.394531 21.46875 6.421875 21.507812 C 6.453125 21.550781 6.507812 21.558594 6.550781 21.53125 C 6.578125 21.515625 6.601562 21.460938 6.617188 21.421875 " fill-opacity="1" fill-rule="evenodd"/><path fill="rgb(98.81897%, 85.099792%, 60.389709%)" d="M 7.285156 22.148438 C 7.273438 22.140625 7.261719 22.136719 7.25 22.144531 C 7.238281 22.148438 7.226562 22.15625 7.226562 22.167969 C 7.210938 22.210938 7.199219 22.269531 7.207031 22.296875 C 7.226562 22.339844 7.28125 22.367188 7.328125 22.347656 C 7.375 22.332031 7.402344 22.28125 7.382812 22.234375 C 7.375 22.207031 7.324219 22.171875 7.285156 22.148438 " fill-opacity="1" fill-rule="evenodd"/><path fill="rgb(98.81897%, 85.099792%, 60.389709%)" d="M 6.066406 21.871094 C 6.082031 21.871094 6.089844 21.863281 6.097656 21.851562 C 6.101562 21.839844 6.097656 21.828125 6.089844 21.816406 C 6.066406 21.78125 6.03125 21.730469 6.003906 21.71875 C 5.957031 21.699219 5.902344 21.722656 5.882812 21.769531 C 5.863281 21.8125 5.882812 21.863281 5.933594 21.882812 C 5.960938 21.894531 6.023438 21.882812 6.066406 21.871094 " fill-opacity="1" fill-rule="evenodd"/><path fill="rgb(98.81897%, 85.099792%, 60.389709%)" d="M 6.792969 22.207031 C 6.804688 22.203125 6.808594 22.191406 6.8125 22.179688 C 6.8125 22.167969 6.804688 22.15625 6.792969 22.148438 C 6.757812 22.121094 6.703125 22.089844 6.675781 22.085938 C 6.621094 22.085938 6.582031 22.125 6.578125 22.175781 C 6.578125 22.222656 6.617188 22.265625 6.671875 22.265625 C 6.699219 22.265625 6.753906 22.234375 6.792969 22.207031 " fill-opacity="1" fill-rule="evenodd"/><path fill="rgb(98.81897%, 85.099792%, 60.389709%)" d="M 7.039062 21.03125 C 7.027344 21.03125 7.015625 21.035156 7.007812 21.042969 C 7 21.054688 6.996094 21.066406 7 21.078125 C 7.015625 21.121094 7.035156 21.175781 7.058594 21.195312 C 7.101562 21.222656 7.160156 21.214844 7.191406 21.175781 C 7.222656 21.136719 7.214844 21.082031 7.171875 21.054688 C 7.148438 21.035156 7.085938 21.03125 7.039062 21.03125 " fill-opacity="1" fill-rule="evenodd"/><path fill="rgb(98.81897%, 85.099792%, 60.389709%)" d="M 6.0625 21.160156 C 6.058594 21.148438 6.046875 21.136719 6.035156 21.132812 C 6.023438 21.128906 6.011719 21.132812 6 21.140625 C 5.964844 21.167969 5.914062 21.207031 5.90625 21.234375 C 5.894531 21.28125 5.921875 21.332031 5.96875 21.34375 C 6.019531 21.359375 6.070312 21.332031 6.085938 21.285156 C 6.09375 21.257812 6.078125 21.199219 6.0625 21.160156 " fill-opacity="1" fill-rule="evenodd"/><path fill="rgb(98.81897%, 85.099792%, 60.389709%)" d="M 5.238281 21.808594 C 5.246094 21.816406 5.261719 21.820312 5.273438 21.816406 C 5.285156 21.808594 5.292969 21.800781 5.296875 21.789062 C 5.308594 21.746094 5.324219 21.6875 5.316406 21.660156 C 5.296875 21.617188 5.246094 21.589844 5.195312 21.609375 C 5.148438 21.625 5.121094 21.675781 5.140625 21.71875 C 5.148438 21.746094 5.199219 21.785156 5.238281 21.808594 " fill-opacity="1" fill-rule="evenodd"/><path fill="rgb(98.81897%, 85.099792%, 60.389709%)" d="M 7.667969 21.871094 C 7.667969 21.859375 7.65625 21.847656 7.644531 21.847656 C 7.632812 21.84375 7.621094 21.84375 7.609375 21.851562 C 7.574219 21.878906 7.523438 21.917969 7.515625 21.945312 C 7.5 21.992188 7.527344 22.042969 7.578125 22.054688 C 7.628906 22.070312 7.679688 22.042969 7.695312 21.996094 C 7.703125 21.96875 7.683594 21.910156 7.667969 21.871094 " fill-opacity="1" fill-rule="evenodd"/><path fill="rgb(95.289612%, 61.959839%, 30.589294%)" d="M 23.699219 25.273438 C 23.191406 25.273438 22.109375 25.226562 22.128906 24.527344 C 22.144531 23.832031 22.703125 23.957031 23.269531 24.035156 C 23.835938 24.113281 24.160156 24.097656 24.542969 24.191406 C 24.886719 24.273438 25.574219 24.46875 25.03125 25.058594 C 24.796875 25.316406 24.128906 25.269531 23.699219 25.273438 " fill-opacity="1" fill-rule="evenodd"/><path fill="rgb(76.858521%, 29.019165%, 18.429565%)" d="M 21.925781 24.308594 C 21.925781 24.308594 22.019531 24.902344 22.796875 24.976562 C 23.574219 25.046875 25.53125 25.085938 25.152344 24.773438 C 24.769531 24.457031 21.925781 24.308594 21.925781 24.308594 " fill-opacity="1" fill-rule="evenodd"/><path fill="rgb(63.919067%, 78.819275%, 30.979919%)" d="M 22.238281 23.691406 C 22.058594 23.792969 21.519531 24.195312 21.964844 24.421875 C 22.34375 24.609375 22.164062 24.757812 22.546875 24.90625 C 22.929688 25.054688 22.726562 24.660156 23.050781 24.742188 C 23.375 24.820312 23.640625 25.132812 23.945312 24.867188 C 24.25 24.601562 24.5625 25 24.960938 24.917969 C 25.355469 24.832031 25.507812 24.628906 25.261719 24.359375 C 25.011719 24.085938 25.261719 23.816406 25.023438 23.855469 C 24.789062 23.894531 22.414062 23.585938 22.238281 23.691406 " fill-opacity="1" fill-rule="evenodd"/><path fill="rgb(95.289612%, 61.959839%, 30.589294%)" d="M 23.519531 22.566406 C 24.011719 22.460938 24.832031 22.773438 25.109375 23.359375 C 25.246094 23.652344 25.347656 24.15625 25.199219 24.292969 C 25.09375 24.394531 24.792969 24.402344 24.46875 24.421875 C 23.898438 24.457031 23.066406 24.335938 22.6875 24.234375 C 22.339844 24.144531 21.753906 24.015625 22.199219 23.359375 C 22.648438 22.703125 23.203125 22.632812 23.519531 22.566406 " fill-opacity="1" fill-rule="evenodd"/><path fill="rgb(98.81897%, 85.099792%, 60.389709%)" d="M 22.726562 23.199219 C 22.71875 23.210938 22.722656 23.222656 22.726562 23.234375 C 22.734375 23.246094 22.746094 23.25 22.757812 23.25 C 22.804688 23.253906 22.867188 23.257812 22.894531 23.242188 C 22.9375 23.21875 22.953125 23.164062 22.925781 23.121094 C 22.902344 23.082031 22.84375 23.066406 22.800781 23.089844 C 22.773438 23.105469 22.746094 23.160156 22.726562 23.199219 " fill-opacity="1" fill-rule="evenodd"/><path fill="rgb(98.81897%, 85.099792%, 60.389709%)" d="M 24.617188 23.34375 C 24.628906 23.339844 24.636719 23.328125 24.640625 23.316406 C 24.640625 23.304688 24.636719 23.292969 24.625 23.285156 C 24.589844 23.257812 24.539062 23.21875 24.511719 23.214844 C 24.460938 23.210938 24.414062 23.246094 24.410156 23.296875 C 24.402344 23.34375 24.441406 23.386719 24.492188 23.390625 C 24.523438 23.394531 24.578125 23.367188 24.617188 23.34375 " fill-opacity="1" fill-rule="evenodd"/><path fill="rgb(98.81897%, 85.099792%, 60.389709%)" d="M 23.648438 22.785156 C 23.648438 22.796875 23.65625 22.804688 23.671875 22.808594 C 23.683594 22.8125 23.695312 22.8125 23.707031 22.804688 C 23.742188 22.777344 23.792969 22.742188 23.804688 22.714844 C 23.820312 22.671875 23.796875 22.621094 23.75 22.601562 C 23.699219 22.585938 23.644531 22.609375 23.628906 22.65625 C 23.617188 22.683594 23.632812 22.742188 23.648438 22.785156 " fill-opacity="1" fill-rule="evenodd"/><path fill="rgb(98.81897%, 85.099792%, 60.389709%)" d="M 23.859375 23.257812 C 23.863281 23.246094 23.863281 23.234375 23.855469 23.222656 C 23.847656 23.214844 23.835938 23.207031 23.824219 23.207031 C 23.777344 23.207031 23.714844 23.207031 23.6875 23.222656 C 23.644531 23.25 23.632812 23.304688 23.664062 23.347656 C 23.691406 23.386719 23.75 23.398438 23.792969 23.371094 C 23.816406 23.355469 23.84375 23.296875 23.859375 23.257812 " fill-opacity="1" fill-rule="evenodd"/><path fill="rgb(98.81897%, 85.099792%, 60.389709%)" d="M 24.523438 23.984375 C 24.515625 23.976562 24.5 23.976562 24.488281 23.980469 C 24.476562 23.984375 24.46875 23.992188 24.464844 24.003906 C 24.453125 24.046875 24.4375 24.105469 24.449219 24.132812 C 24.46875 24.179688 24.519531 24.203125 24.570312 24.1875 C 24.617188 24.167969 24.640625 24.117188 24.625 24.070312 C 24.613281 24.046875 24.5625 24.007812 24.523438 23.984375 " fill-opacity="1" fill-rule="evenodd"/><path fill="rgb(98.81897%, 85.099792%, 60.389709%)" d="M 23.308594 23.710938 C 23.320312 23.707031 23.332031 23.699219 23.335938 23.6875 C 23.339844 23.675781 23.339844 23.664062 23.332031 23.652344 C 23.308594 23.617188 23.269531 23.566406 23.242188 23.554688 C 23.195312 23.539062 23.140625 23.558594 23.121094 23.605469 C 23.101562 23.648438 23.125 23.703125 23.171875 23.71875 C 23.199219 23.730469 23.265625 23.71875 23.308594 23.710938 " fill-opacity="1" fill-rule="evenodd"/><path fill="rgb(98.81897%, 85.099792%, 60.389709%)" d="M 24.035156 24.046875 C 24.042969 24.039062 24.050781 24.027344 24.050781 24.015625 C 24.050781 24.003906 24.046875 23.992188 24.035156 23.984375 C 23.996094 23.960938 23.945312 23.925781 23.914062 23.925781 C 23.863281 23.925781 23.820312 23.960938 23.820312 24.011719 C 23.820312 24.058594 23.859375 24.101562 23.910156 24.101562 C 23.941406 24.101562 23.996094 24.070312 24.035156 24.046875 " fill-opacity="1" fill-rule="evenodd"/><path fill="rgb(98.81897%, 85.099792%, 60.389709%)" d="M 24.28125 22.867188 C 24.265625 22.867188 24.253906 22.871094 24.246094 22.882812 C 24.238281 22.890625 24.238281 22.902344 24.242188 22.914062 C 24.253906 22.957031 24.277344 23.015625 24.300781 23.03125 C 24.339844 23.0625 24.398438 23.054688 24.429688 23.015625 C 24.460938 22.976562 24.453125 22.917969 24.414062 22.890625 C 24.390625 22.875 24.328125 22.867188 24.28125 22.867188 " fill-opacity="1" fill-rule="evenodd"/><path fill="rgb(98.81897%, 85.099792%, 60.389709%)" d="M 23.300781 22.996094 C 23.300781 22.984375 23.289062 22.976562 23.277344 22.972656 C 23.265625 22.96875 23.25 22.96875 23.242188 22.980469 C 23.207031 23.003906 23.15625 23.042969 23.148438 23.070312 C 23.132812 23.117188 23.160156 23.167969 23.210938 23.179688 C 23.261719 23.195312 23.3125 23.167969 23.328125 23.121094 C 23.335938 23.09375 23.316406 23.035156 23.300781 22.996094 " fill-opacity="1" fill-rule="evenodd"/><path fill="rgb(98.81897%, 85.099792%, 60.389709%)" d="M 22.476562 23.644531 C 22.488281 23.652344 22.5 23.65625 22.515625 23.652344 C 22.527344 23.648438 22.535156 23.636719 22.539062 23.625 C 22.550781 23.585938 22.566406 23.523438 22.554688 23.5 C 22.539062 23.453125 22.484375 23.429688 22.4375 23.445312 C 22.386719 23.460938 22.363281 23.511719 22.378906 23.558594 C 22.390625 23.585938 22.441406 23.621094 22.476562 23.644531 " fill-opacity="1" fill-rule="evenodd"/><path fill="rgb(98.81897%, 85.099792%, 60.389709%)" d="M 24.910156 23.707031 C 24.90625 23.695312 24.898438 23.6875 24.886719 23.683594 C 24.875 23.679688 24.859375 23.683594 24.851562 23.691406 C 24.8125 23.71875 24.765625 23.757812 24.757812 23.785156 C 24.742188 23.828125 24.769531 23.878906 24.820312 23.894531 C 24.867188 23.90625 24.921875 23.878906 24.933594 23.832031 C 24.945312 23.808594 24.925781 23.75 24.910156 23.707031 " fill-opacity="1" fill-rule="evenodd"/><path fill="rgb(98.429871%, 75.689697%, 59.609985%)" d="M 16.238281 15.648438 C 16.238281 15.648438 16.070312 16.035156 15.539062 16.410156 C 15.011719 16.789062 14.589844 17.089844 14.3125 17.257812 C 14.035156 17.429688 13.484375 17.085938 13.027344 16.542969 C 12.566406 16.003906 11.234375 18.929688 11.234375 18.929688 C 11.234375 18.929688 12.457031 19.902344 13.167969 20.152344 C 13.875 20.398438 14.617188 20.074219 15.285156 19.289062 C 15.816406 18.667969 16.464844 17.273438 16.765625 16.546875 C 16.839844 16.359375 16.929688 16.144531 16.953125 16.066406 C 17.066406 15.703125 16.238281 15.648438 16.238281 15.648438 " fill-opacity="1" fill-rule="evenodd"/><path fill="rgb(94.509888%, 28.239441%, 22.749329%)" d="M 10.363281 18.058594 C 9.902344 17.359375 9.289062 16.835938 9.917969 15.691406 C 10.675781 14.316406 12.308594 15.277344 13.277344 16.714844 C 13.277344 16.714844 12.359375 17.578125 11.402344 19.21875 C 11.402344 19.21875 10.78125 18.6875 10.363281 18.058594 " fill-opacity="1" fill-rule="evenodd"/><path fill="rgb(76.858521%, 29.019165%, 18.429565%)" d="M 18.386719 23.417969 C 18.386719 23.417969 18.671875 23.523438 18.605469 23.644531 C 18.539062 23.761719 18.074219 23.820312 17.773438 23.824219 C 17.472656 23.828125 17.484375 23.632812 17.726562 23.53125 C 17.96875 23.433594 18.308594 23.386719 18.386719 23.417969 " fill-opacity="1" fill-rule="evenodd"/><path fill="rgb(76.858521%, 29.019165%, 18.429565%)" d="M 17.199219 23.257812 C 17.199219 23.257812 17.398438 23.347656 17.308594 23.441406 C 17.214844 23.535156 16.753906 23.683594 16.496094 23.617188 C 16.234375 23.550781 16.339844 23.46875 16.601562 23.421875 C 16.867188 23.371094 16.894531 23.242188 17.199219 23.257812 " fill-opacity="1" fill-rule="evenodd"/><path fill="rgb(94.509888%, 28.239441%, 22.749329%)" d="M 19.015625 23.632812 L 20.140625 23.386719 C 20.140625 23.386719 19.839844 23.085938 19.335938 23.1875 C 18.832031 23.292969 19.015625 23.632812 19.015625 23.632812 " fill-opacity="1" fill-rule="evenodd"/><path fill="rgb(94.509888%, 28.239441%, 22.749329%)" d="M 17.980469 22.925781 L 17.332031 23.53125 C 17.332031 23.53125 17.582031 23.613281 17.980469 23.355469 C 18.375 23.097656 17.980469 22.925781 17.980469 22.925781 " fill-opacity="1" fill-rule="evenodd"/><path fill="rgb(94.509888%, 28.239441%, 22.749329%)" d="M 18.855469 22.394531 L 20.140625 22.558594 C 20.140625 22.558594 19.984375 22.847656 19.300781 22.816406 C 18.621094 22.789062 18.855469 22.394531 18.855469 22.394531 " fill-opacity="1" fill-rule="evenodd"/><path fill="rgb(95.289612%, 61.959839%, 30.589294%)" d="M 9.3125 25.230469 C 8.71875 25.230469 7.441406 25.175781 7.464844 24.355469 C 7.488281 23.535156 8.140625 23.683594 8.808594 23.777344 C 9.472656 23.867188 9.855469 23.847656 10.304688 23.957031 C 10.710938 24.058594 11.515625 24.289062 10.882812 24.976562 C 10.601562 25.28125 9.816406 25.226562 9.3125 25.230469 " fill-opacity="1" fill-rule="evenodd"/><path fill="rgb(76.858521%, 29.019165%, 18.429565%)" d="M 7.226562 24.097656 C 7.226562 24.097656 7.335938 24.796875 8.25 24.878906 C 9.164062 24.964844 11.46875 25.011719 11.019531 24.640625 C 10.570312 24.269531 7.226562 24.097656 7.226562 24.097656 " fill-opacity="1" fill-rule="evenodd"/><path fill="rgb(63.919067%, 78.819275%, 30.979919%)" d="M 7.59375 23.367188 C 7.382812 23.492188 6.746094 23.964844 7.273438 24.226562 C 7.71875 24.449219 7.503906 24.625 7.957031 24.796875 C 8.410156 24.972656 8.171875 24.507812 8.550781 24.605469 C 8.929688 24.699219 9.246094 25.066406 9.605469 24.753906 C 9.960938 24.441406 10.328125 24.910156 10.796875 24.8125 C 11.261719 24.714844 11.441406 24.472656 11.148438 24.15625 C 10.855469 23.835938 11.148438 23.515625 10.871094 23.5625 C 10.59375 23.609375 7.800781 23.246094 7.59375 23.367188 " fill-opacity="1" fill-rule="evenodd"/><path fill="rgb(95.289612%, 61.959839%, 30.589294%)" d="M 9.101562 22.046875 C 9.683594 21.925781 10.644531 22.289062 10.96875 22.980469 C 11.132812 23.328125 11.25 23.917969 11.078125 24.078125 C 10.953125 24.199219 10.601562 24.207031 10.21875 24.230469 C 9.546875 24.269531 8.570312 24.128906 8.121094 24.011719 C 7.714844 23.902344 7.027344 23.753906 7.550781 22.980469 C 8.074219 22.207031 8.730469 22.125 9.101562 22.046875 " fill-opacity="1" fill-rule="evenodd"/><path fill="rgb(98.81897%, 85.099792%, 60.389709%)" d="M 8.167969 22.792969 C 8.160156 22.804688 8.164062 22.820312 8.171875 22.832031 C 8.175781 22.84375 8.191406 22.851562 8.207031 22.851562 C 8.261719 22.859375 8.335938 22.863281 8.367188 22.84375 C 8.417969 22.816406 8.433594 22.753906 8.40625 22.703125 C 8.375 22.652344 8.308594 22.636719 8.253906 22.664062 C 8.222656 22.683594 8.191406 22.746094 8.167969 22.792969 " fill-opacity="1" fill-rule="evenodd"/><path fill="rgb(98.81897%, 85.099792%, 60.389709%)" d="M 10.394531 22.964844 C 10.40625 22.957031 10.417969 22.945312 10.417969 22.929688 C 10.417969 22.917969 10.414062 22.902344 10.402344 22.894531 C 10.359375 22.859375 10.300781 22.816406 10.265625 22.8125 C 10.207031 22.804688 10.152344 22.847656 10.148438 22.90625 C 10.140625 22.960938 10.183594 23.011719 10.246094 23.019531 C 10.28125 23.023438 10.347656 22.988281 10.394531 22.964844 " fill-opacity="1" fill-rule="evenodd"/><path fill="rgb(98.81897%, 85.099792%, 60.389709%)" d="M 9.25 22.304688 C 9.253906 22.316406 9.265625 22.328125 9.277344 22.332031 C 9.292969 22.339844 9.308594 22.335938 9.320312 22.328125 C 9.363281 22.296875 9.425781 22.253906 9.4375 22.222656 C 9.457031 22.171875 9.429688 22.109375 9.371094 22.089844 C 9.3125 22.070312 9.25 22.101562 9.230469 22.152344 C 9.21875 22.183594 9.234375 22.253906 9.25 22.304688 " fill-opacity="1" fill-rule="evenodd"/><path fill="rgb(98.81897%, 85.099792%, 60.389709%)" d="M 9.5 22.859375 C 9.507812 22.847656 9.503906 22.832031 9.496094 22.820312 C 9.488281 22.808594 9.472656 22.800781 9.457031 22.800781 C 9.40625 22.800781 9.328125 22.800781 9.300781 22.820312 C 9.25 22.851562 9.238281 22.917969 9.269531 22.964844 C 9.304688 23.011719 9.375 23.023438 9.421875 22.992188 C 9.453125 22.972656 9.480469 22.910156 9.5 22.859375 " fill-opacity="1" fill-rule="evenodd"/><path fill="rgb(98.81897%, 85.099792%, 60.389709%)" d="M 10.285156 23.714844 C 10.273438 23.707031 10.257812 23.703125 10.242188 23.710938 C 10.226562 23.714844 10.21875 23.726562 10.214844 23.738281 C 10.199219 23.789062 10.183594 23.859375 10.195312 23.890625 C 10.214844 23.945312 10.277344 23.972656 10.335938 23.953125 C 10.390625 23.933594 10.421875 23.871094 10.402344 23.820312 C 10.390625 23.789062 10.328125 23.746094 10.285156 23.714844 " fill-opacity="1" fill-rule="evenodd"/><path fill="rgb(98.81897%, 85.099792%, 60.389709%)" d="M 8.855469 23.390625 C 8.867188 23.390625 8.882812 23.378906 8.886719 23.367188 C 8.890625 23.355469 8.890625 23.339844 8.882812 23.328125 C 8.851562 23.285156 8.808594 23.226562 8.777344 23.210938 C 8.722656 23.191406 8.65625 23.214844 8.632812 23.269531 C 8.613281 23.324219 8.636719 23.382812 8.695312 23.40625 C 8.726562 23.417969 8.800781 23.402344 8.855469 23.390625 " fill-opacity="1" fill-rule="evenodd"/><path fill="rgb(98.81897%, 85.099792%, 60.389709%)" d="M 9.707031 23.789062 C 9.71875 23.78125 9.726562 23.765625 9.726562 23.753906 C 9.726562 23.738281 9.71875 23.726562 9.707031 23.71875 C 9.664062 23.6875 9.601562 23.644531 9.566406 23.644531 C 9.507812 23.644531 9.457031 23.691406 9.453125 23.746094 C 9.453125 23.804688 9.5 23.851562 9.5625 23.855469 C 9.597656 23.855469 9.660156 23.816406 9.707031 23.789062 " fill-opacity="1" fill-rule="evenodd"/><path fill="rgb(98.81897%, 85.099792%, 60.389709%)" d="M 9.996094 22.402344 C 9.980469 22.402344 9.964844 22.40625 9.957031 22.417969 C 9.949219 22.429688 9.945312 22.445312 9.953125 22.457031 C 9.96875 22.507812 9.992188 22.574219 10.019531 22.59375 C 10.066406 22.628906 10.136719 22.621094 10.175781 22.574219 C 10.210938 22.527344 10.203125 22.464844 10.152344 22.429688 C 10.125 22.410156 10.050781 22.402344 9.996094 22.402344 " fill-opacity="1" fill-rule="evenodd"/><path fill="rgb(98.81897%, 85.099792%, 60.389709%)" d="M 8.847656 22.554688 C 8.84375 22.539062 8.832031 22.527344 8.816406 22.523438 C 8.800781 22.519531 8.785156 22.523438 8.777344 22.53125 C 8.734375 22.5625 8.675781 22.609375 8.664062 22.640625 C 8.648438 22.695312 8.679688 22.753906 8.738281 22.769531 C 8.796875 22.789062 8.859375 22.757812 8.875 22.703125 C 8.886719 22.671875 8.863281 22.601562 8.847656 22.554688 " fill-opacity="1" fill-rule="evenodd"/><path fill="rgb(98.81897%, 85.099792%, 60.389709%)" d="M 7.878906 23.316406 C 7.890625 23.328125 7.90625 23.328125 7.917969 23.324219 C 7.933594 23.320312 7.945312 23.308594 7.945312 23.292969 C 7.960938 23.246094 7.980469 23.175781 7.96875 23.144531 C 7.949219 23.089844 7.886719 23.0625 7.828125 23.082031 C 7.769531 23.101562 7.742188 23.160156 7.761719 23.214844 C 7.773438 23.246094 7.832031 23.289062 7.878906 23.316406 " fill-opacity="1" fill-rule="evenodd"/><path fill="rgb(98.81897%, 85.099792%, 60.389709%)" d="M 10.738281 23.390625 C 10.734375 23.375 10.722656 23.363281 10.707031 23.359375 C 10.695312 23.355469 10.679688 23.359375 10.667969 23.371094 C 10.625 23.402344 10.566406 23.445312 10.554688 23.480469 C 10.539062 23.535156 10.570312 23.59375 10.628906 23.609375 C 10.6875 23.625 10.75 23.59375 10.765625 23.539062 C 10.777344 23.507812 10.753906 23.4375 10.738281 23.390625 " fill-opacity="1" fill-rule="evenodd"/></svg>